<svg width="396" height="69" viewBox="0 0 396 69" fill="none" xmlns="http://www.w3.org/2000/svg">
<g clip-path="url(#big-logo)">
<path d="M21.2375 8.83483C21.2375 3.95553 25.183 0 30.0498 0H47.6743V9.01152C47.6743 18.7702 39.7836 26.6812 30.0498 26.6812H21.2375V8.83483Z" fill="#8CAFF7"/>
<path d="M60.188 21.1152C65.0548 21.1152 69.0002 25.0708 69.0002 29.9501V47.6197H60.0117C50.278 47.6197 42.3872 39.7087 42.3872 29.9501V21.1152H60.188Z" fill="#5F86D6"/>
<path d="M47.6743 60.1652C47.6743 65.0445 43.7289 69 38.8621 69H21.2375V59.9885C21.2375 50.2298 29.1283 42.3188 38.8621 42.3188H47.6743V60.1652Z" fill="#5F86D6"/>
<path d="M8.81226 47.5313C3.94543 47.5313 0 43.5758 0 38.6965V21.0269H8.98851C18.7223 21.0269 26.613 28.9378 26.613 38.6965V47.5313H8.81226Z" fill="#5F86D6"/>
</g>
<path d="M88.461 11.3545H90.8994V27.7664H99.9708V11.3545H102.397V27.7159H104.33L104.102 34.1846H101.917V29.75H88.461V11.3545ZM112.876 30.0027C111.023 30.0027 109.516 29.3962 108.353 28.1833C107.191 26.962 106.61 25.3322 106.61 23.2939V22.8643C106.61 21.5082 106.867 20.2996 107.381 19.2383C107.903 18.1686 108.627 17.3347 109.554 16.7367C110.489 16.1302 111.499 15.827 112.586 15.827C114.363 15.827 115.744 16.4124 116.73 17.5832C117.715 18.754 118.208 20.4301 118.208 22.6116V23.5845H108.947C108.981 24.9321 109.373 26.0229 110.122 26.8568C110.88 27.6822 111.84 28.0949 113.003 28.0949C113.828 28.0949 114.527 27.9265 115.1 27.5895C115.673 27.2526 116.174 26.8062 116.604 26.2503L118.031 27.3621C116.886 29.1225 115.168 30.0027 112.876 30.0027ZM112.586 17.7474C111.643 17.7474 110.851 18.0928 110.211 18.7834C109.571 19.4657 109.175 20.4259 109.023 21.6641H115.871V21.4872C115.803 20.2996 115.483 19.3815 114.911 18.7329C114.338 18.0759 113.563 17.7474 112.586 17.7474ZM132.352 29.75H130.015V23.913H123.735V29.75H121.385V16.0797H123.735V22.0052H130.015V16.0797H132.352V29.75ZM146.534 17.9749H141.947V29.75H139.61V17.9749H135.112V16.0797H146.534V17.9749ZM160.614 23.0665C160.614 25.1469 160.138 26.8231 159.187 28.0949C158.235 29.3668 156.946 30.0027 155.321 30.0027C153.661 30.0027 152.356 29.4763 151.404 28.4234V35.0059H149.067V16.0797H151.202L151.316 17.5958C152.267 16.4166 153.59 15.827 155.283 15.827C156.925 15.827 158.222 16.4461 159.174 17.6843C160.134 18.9224 160.614 20.6449 160.614 22.8517V23.0665ZM158.277 22.8011C158.277 21.2598 157.949 20.0427 157.292 19.1498C156.635 18.257 155.733 17.8106 154.588 17.8106C153.173 17.8106 152.111 18.4381 151.404 19.6931V26.225C152.103 27.4716 153.173 28.0949 154.613 28.0949C155.733 28.0949 156.622 27.6527 157.279 26.7683C157.944 25.8755 158.277 24.5531 158.277 22.8011ZM166.407 20.7923H169.957C171.507 20.8091 172.732 21.2134 173.634 22.0052C174.535 22.7969 174.986 23.8708 174.986 25.2269C174.986 26.5914 174.522 27.6864 173.596 28.5118C172.669 29.3373 171.423 29.75 169.856 29.75H164.07V16.0797H166.407V20.7923ZM179.862 29.75H177.512V16.0797H179.862V29.75ZM166.407 22.7001V27.8422H169.881C170.757 27.8422 171.435 27.619 171.915 27.1726C172.396 26.7178 172.636 26.0987 172.636 25.3154C172.636 24.5573 172.4 23.9382 171.928 23.4581C171.465 22.9696 170.812 22.7169 169.97 22.7001H166.407ZM191.245 29.75V11.3545H197.259C199.256 11.3545 200.755 11.7672 201.757 12.5927C202.768 13.4181 203.273 14.6394 203.273 16.2566C203.273 17.1157 203.029 17.878 202.54 18.5434C202.052 19.2004 201.387 19.71 200.544 20.0721C201.538 20.3501 202.321 20.8807 202.894 21.6641C203.475 22.439 203.766 23.3655 203.766 24.4436C203.766 26.0945 203.231 27.3916 202.161 28.335C201.092 29.2783 199.58 29.75 197.626 29.75H191.245ZM193.671 21.1461V27.7664H197.676C198.805 27.7664 199.694 27.4758 200.342 26.8947C200.999 26.3051 201.328 25.4965 201.328 24.4689C201.328 22.2537 200.123 21.1461 197.714 21.1461H193.671ZM193.671 19.2004H197.335C198.396 19.2004 199.243 18.9351 199.875 18.4044C200.515 17.8738 200.835 17.1536 200.835 16.244C200.835 15.2332 200.54 14.5004 199.95 14.0456C199.361 13.5823 198.464 13.3507 197.259 13.3507H193.671V19.2004ZM206.64 22.7885C206.64 21.4493 206.901 20.2448 207.423 19.1751C207.954 18.1054 208.687 17.28 209.622 16.6988C210.565 16.1176 211.639 15.827 212.843 15.827C214.705 15.827 216.208 16.4714 217.354 17.7601C218.508 19.0488 219.085 20.7628 219.085 22.9022V23.0665C219.085 24.3973 218.828 25.5933 218.314 26.6546C217.809 27.7075 217.08 28.5287 216.128 29.1183C215.185 29.7079 214.098 30.0027 212.869 30.0027C211.016 30.0027 209.512 29.3583 208.358 28.0696C207.213 26.7809 206.64 25.0753 206.64 22.9528V22.7885ZM208.99 23.0665C208.99 24.5826 209.34 25.7997 210.039 26.7178C210.746 27.6359 211.69 28.0949 212.869 28.0949C214.056 28.0949 215 27.6317 215.699 26.7051C216.398 25.7702 216.747 24.4647 216.747 22.7885C216.747 21.2892 216.389 20.0764 215.674 19.1498C214.966 18.2149 214.023 17.7474 212.843 17.7474C211.69 17.7474 210.759 18.2065 210.051 19.1246C209.344 20.0427 208.99 21.3566 208.99 23.0665ZM227.758 28.0949C228.592 28.0949 229.32 27.8422 229.944 27.3369C230.567 26.8315 230.912 26.1998 230.98 25.4417H233.191C233.149 26.225 232.879 26.9705 232.382 27.678C231.885 28.3855 231.22 28.9498 230.386 29.371C229.56 29.7921 228.684 30.0027 227.758 30.0027C225.896 30.0027 224.414 29.3836 223.311 28.1454C222.216 26.8989 221.668 25.1974 221.668 23.0412V22.6495C221.668 21.3187 221.912 20.1353 222.401 19.0993C222.89 18.0633 223.589 17.2589 224.498 16.6862C225.416 16.1134 226.499 15.827 227.745 15.827C229.278 15.827 230.55 16.2861 231.561 17.2042C232.58 18.1223 233.123 19.3141 233.191 20.7797H230.98C230.912 19.8953 230.575 19.1709 229.969 18.6066C229.371 18.0338 228.63 17.7474 227.745 17.7474C226.558 17.7474 225.635 18.177 224.978 19.0361C224.33 19.8868 224.006 21.1208 224.006 22.738V23.1802C224.006 24.7552 224.33 25.9681 224.978 26.8188C225.627 27.6696 226.553 28.0949 227.758 28.0949ZM241.561 28.0949C242.395 28.0949 243.123 27.8422 243.746 27.3369C244.37 26.8315 244.715 26.1998 244.782 25.4417H246.993C246.951 26.225 246.682 26.9705 246.185 27.678C245.688 28.3855 245.022 28.9498 244.189 29.371C243.363 29.7921 242.487 30.0027 241.561 30.0027C239.699 30.0027 238.217 29.3836 237.113 28.1454C236.018 26.8989 235.471 25.1974 235.471 23.0412V22.6495C235.471 21.3187 235.715 20.1353 236.204 19.0993C236.692 18.0633 237.391 17.2589 238.301 16.6862C239.219 16.1134 240.301 15.827 241.548 15.827C243.081 15.827 244.353 16.2861 245.364 17.2042C246.383 18.1223 246.926 19.3141 246.993 20.7797H244.782C244.715 19.8953 244.378 19.1709 243.772 18.6066C243.174 18.0338 242.432 17.7474 241.548 17.7474C240.36 17.7474 239.438 18.177 238.781 19.0361C238.133 19.8868 237.808 21.1208 237.808 22.738V23.1802C237.808 24.7552 238.133 25.9681 238.781 26.8188C239.43 27.6696 240.356 28.0949 241.561 28.0949ZM260.038 17.9749H255.452V29.75H253.114V17.9749H248.617V16.0797H260.038V17.9749ZM270.808 29.75C270.674 29.4805 270.564 29.0004 270.48 28.3097C269.393 29.4384 268.096 30.0027 266.589 30.0027C265.241 30.0027 264.133 29.6237 263.266 28.8656C262.407 28.0991 261.977 27.1305 261.977 25.9597C261.977 24.5363 262.516 23.4329 263.594 22.6495C264.681 21.8578 266.205 21.4619 268.168 21.4619H270.442V20.388C270.442 19.571 270.198 18.9224 269.709 18.4423C269.221 17.9538 268.501 17.7095 267.549 17.7095C266.715 17.7095 266.016 17.9201 265.452 18.3412C264.887 18.7624 264.605 19.272 264.605 19.87H262.255C262.255 19.1877 262.495 18.5308 262.975 17.899C263.464 17.2589 264.121 16.7535 264.946 16.3829C265.78 16.0123 266.694 15.827 267.688 15.827C269.263 15.827 270.497 16.2229 271.39 17.0146C272.282 17.798 272.746 18.8803 272.779 20.2617V26.5535C272.779 27.8085 272.939 28.8066 273.26 29.5479V29.75H270.808ZM266.93 27.9686C267.663 27.9686 268.357 27.7791 269.014 27.4C269.671 27.021 270.147 26.5283 270.442 25.9218V23.117H268.61C265.746 23.117 264.314 23.9551 264.314 25.6312C264.314 26.364 264.559 26.9368 265.047 27.3495C265.536 27.7622 266.163 27.9686 266.93 27.9686ZM287.871 29.75H285.533V23.913H279.254V29.75H276.904V16.0797H279.254V22.0052H285.533V16.0797H287.871V29.75ZM291.276 22.7885C291.276 21.4493 291.537 20.2448 292.059 19.1751C292.589 18.1054 293.322 17.28 294.257 16.6988C295.201 16.1176 296.274 15.827 297.479 15.827C299.34 15.827 300.844 16.4714 301.989 17.7601C303.143 19.0488 303.72 20.7628 303.72 22.9022V23.0665C303.72 24.3973 303.463 25.5933 302.95 26.6546C302.444 27.7075 301.716 28.5287 300.764 29.1183C299.82 29.7079 298.734 30.0027 297.504 30.0027C295.651 30.0027 294.148 29.3583 292.994 28.0696C291.848 26.7809 291.276 25.0753 291.276 22.9528V22.7885ZM293.625 23.0665C293.625 24.5826 293.975 25.7997 294.674 26.7178C295.382 27.6359 296.325 28.0949 297.504 28.0949C298.692 28.0949 299.635 27.6317 300.334 26.7051C301.033 25.7702 301.383 24.4647 301.383 22.7885C301.383 21.2892 301.025 20.0764 300.309 19.1498C299.602 18.2149 298.658 17.7474 297.479 17.7474C296.325 17.7474 295.394 18.2065 294.687 19.1246C293.979 20.0427 293.625 21.3566 293.625 23.0665ZM307.125 29.75V16.0797H312.457C314.276 16.0797 315.67 16.3998 316.639 17.0399C317.616 17.6716 318.104 18.6024 318.104 19.8321C318.104 20.4638 317.915 21.0366 317.536 21.5504C317.157 22.0557 316.596 22.4432 315.855 22.7127C316.681 22.9064 317.342 23.2855 317.839 23.8498C318.344 24.4141 318.597 25.088 318.597 25.8713C318.597 27.1263 318.134 28.0865 317.207 28.7519C316.289 29.4173 314.988 29.75 313.303 29.75H307.125ZM309.462 23.7487V27.8675H313.328C314.305 27.8675 315.034 27.6864 315.514 27.3242C316.003 26.962 316.247 26.4525 316.247 25.7955C316.247 24.431 315.245 23.7487 313.24 23.7487H309.462ZM309.462 21.8788H312.482C314.672 21.8788 315.767 21.2387 315.767 19.9584C315.767 18.6782 314.731 18.017 312.659 17.9749H309.462V21.8788ZM333.158 16.0797V29.75H330.808V18.0128H326.158L325.88 23.1296C325.729 25.4796 325.333 27.16 324.693 28.1707C324.061 29.1815 323.054 29.7079 321.673 29.75H320.738V27.6906L321.408 27.6401C322.166 27.5558 322.709 27.1179 323.038 26.3261C323.366 25.5344 323.577 24.0688 323.669 21.9294L323.922 16.0797H333.158ZM342.842 30.0027C340.989 30.0027 339.481 29.3962 338.318 28.1833C337.156 26.962 336.575 25.3322 336.575 23.2939V22.8643C336.575 21.5082 336.832 20.2996 337.346 19.2383C337.868 18.1686 338.592 17.3347 339.519 16.7367C340.454 16.1302 341.464 15.827 342.551 15.827C344.328 15.827 345.71 16.4124 346.695 17.5832C347.68 18.754 348.173 20.4301 348.173 22.6116V23.5845H338.912C338.946 24.9321 339.338 26.0229 340.087 26.8568C340.845 27.6822 341.806 28.0949 342.968 28.0949C343.793 28.0949 344.492 27.9265 345.065 27.5895C345.638 27.2526 346.139 26.8062 346.569 26.2503L347.996 27.3621C346.851 29.1225 345.133 30.0027 342.842 30.0027ZM342.551 17.7474C341.608 17.7474 340.816 18.0928 340.176 18.7834C339.536 19.4657 339.14 20.4259 338.988 21.6641H345.836V21.4872C345.768 20.2996 345.448 19.3815 344.876 18.7329C344.303 18.0759 343.528 17.7474 342.551 17.7474ZM362.317 29.75H359.98V23.913H353.7V29.75H351.35V16.0797H353.7V22.0052H359.98V16.0797H362.317V29.75ZM375.185 16.0797H377.522V29.75H375.185V19.7816L368.88 29.75H366.543V16.0797H368.88V26.0608L375.185 16.0797ZM391.982 16.0797V29.75H389.632V24.431H386.107L382.885 29.75H380.358L383.795 24.0772C382.919 23.7571 382.245 23.2644 381.773 22.599C381.31 21.9252 381.078 21.1418 381.078 20.249C381.078 19.0024 381.546 18.0001 382.481 17.2421C383.416 16.4756 384.667 16.0881 386.233 16.0797H391.982ZM383.428 20.2743C383.428 20.9397 383.656 21.4788 384.111 21.8915C384.565 22.2958 385.168 22.5021 385.917 22.5106H389.632V17.9749H386.271C385.404 17.9749 384.713 18.1896 384.199 18.6192C383.685 19.0403 383.428 19.592 383.428 20.2743Z" fill="#4875C5"/>
<path d="M92.756 41.5547L98.6414 54.375H97.6103L92.4548 43.1972L87.3541 54.375H86.323L92.2085 41.5547H92.756ZM107.255 53.426C106.756 53.8093 106.245 54.0921 105.722 54.2746C105.199 54.451 104.633 54.5392 104.025 54.5392C103.416 54.5392 102.854 54.4297 102.337 54.2108C101.826 53.9857 101.385 53.6754 101.013 53.28C100.642 52.8846 100.353 52.4132 100.147 51.8657C99.9398 51.3182 99.8364 50.7221 99.8364 50.0772C99.8364 49.4628 99.9307 48.8971 100.119 48.38C100.314 47.8569 100.582 47.4067 100.922 47.0296C101.269 46.6463 101.677 46.3483 102.145 46.1353C102.619 45.9224 103.133 45.816 103.687 45.816C104.137 45.816 104.581 45.8951 105.019 46.0532C105.463 46.2114 105.862 46.4578 106.215 46.7923C106.567 47.1208 106.853 47.5406 107.072 48.0515C107.291 48.5564 107.401 49.1617 107.401 49.8674H100.785C100.773 49.9465 100.767 50.0194 100.767 50.0864V50.3054C100.767 50.7859 100.858 51.23 101.041 51.6376C101.223 52.0451 101.47 52.401 101.78 52.7052C102.09 53.0032 102.449 53.2374 102.857 53.4078C103.264 53.5781 103.69 53.6633 104.134 53.6633C104.694 53.6633 105.217 53.5659 105.704 53.3713C106.196 53.1705 106.713 52.8512 107.255 52.4132V53.426ZM106.342 49.1465C106.02 47.5101 105.135 46.692 103.687 46.692C103.34 46.692 103.015 46.7497 102.711 46.8653C102.407 46.9748 102.133 47.136 101.889 47.3489C101.652 47.5558 101.448 47.8113 101.278 48.1154C101.108 48.4196 100.983 48.7633 100.904 49.1465H106.342ZM115.576 45.9802V54.375H114.682V50.1502C114.372 50.5517 113.998 50.8498 113.56 51.0445C113.122 51.233 112.617 51.3273 112.045 51.3273C111.674 51.3273 111.303 51.2756 110.932 51.1722C110.567 51.0688 110.238 50.8863 109.946 50.6247C109.66 50.3631 109.426 50.0134 109.244 49.5754C109.067 49.1374 108.979 48.5808 108.979 47.9055V45.9802H109.882V47.9694C109.882 48.377 109.922 48.745 110.001 49.0735C110.086 49.3959 110.22 49.6727 110.402 49.9039C110.591 50.1289 110.834 50.3023 111.132 50.424C111.431 50.5396 111.799 50.5974 112.237 50.5974C112.504 50.5974 112.769 50.5669 113.03 50.5061C113.292 50.4453 113.535 50.3479 113.76 50.2141C113.985 50.0803 114.177 49.91 114.335 49.7031C114.5 49.4902 114.615 49.2347 114.682 48.9366V45.9802H115.576ZM125.285 53.426C124.786 53.8093 124.275 54.0921 123.752 54.2746C123.228 54.451 122.663 54.5392 122.054 54.5392C121.446 54.5392 120.883 54.4297 120.366 54.2108C119.855 53.9857 119.414 53.6754 119.043 53.28C118.672 52.8846 118.383 52.4132 118.176 51.8657C117.97 51.3182 117.866 50.7221 117.866 50.0772C117.866 49.4628 117.96 48.8971 118.149 48.38C118.344 47.8569 118.611 47.4067 118.952 47.0296C119.299 46.6463 119.706 46.3483 120.175 46.1353C120.649 45.9224 121.163 45.816 121.717 45.816C122.167 45.816 122.611 45.8951 123.049 46.0532C123.493 46.2114 123.892 46.4578 124.244 46.7923C124.597 47.1208 124.883 47.5406 125.102 48.0515C125.321 48.5564 125.431 49.1617 125.431 49.8674H118.815C118.803 49.9465 118.797 50.0194 118.797 50.0864V50.3054C118.797 50.7859 118.888 51.23 119.071 51.6376C119.253 52.0451 119.5 52.401 119.81 52.7052C120.12 53.0032 120.479 53.2374 120.886 53.4078C121.294 53.5781 121.72 53.6633 122.164 53.6633C122.724 53.6633 123.247 53.5659 123.733 53.3713C124.226 53.1705 124.743 52.8512 125.285 52.4132V53.426ZM124.372 49.1465C124.05 47.5101 123.165 46.692 121.717 46.692C121.37 46.692 121.045 46.7497 120.74 46.8653C120.436 46.9748 120.163 47.136 119.919 47.3489C119.682 47.5558 119.478 47.8113 119.308 48.1154C119.138 48.4196 119.013 48.7633 118.934 49.1465H124.372ZM134.601 45.9802V54.375H133.706V50.3784H128.505V54.375H127.611V45.9802H128.505V49.6484H133.706V45.9802H134.601ZM143.387 47.5314L137.794 54.448H137.292V45.9802H138.186V52.842L143.78 45.9802H144.282V54.375H143.387V47.5314ZM153.981 53.426C153.482 53.8093 152.971 54.0921 152.448 54.2746C151.925 54.451 151.359 54.5392 150.751 54.5392C150.142 54.5392 149.58 54.4297 149.063 54.2108C148.552 53.9857 148.111 53.6754 147.74 53.28C147.368 52.8846 147.08 52.4132 146.873 51.8657C146.666 51.3182 146.562 50.7221 146.562 50.0772C146.562 49.4628 146.657 48.8971 146.845 48.38C147.04 47.8569 147.308 47.4067 147.648 47.0296C147.995 46.6463 148.403 46.3483 148.871 46.1353C149.345 45.9224 149.86 45.816 150.413 45.816C150.863 45.816 151.307 45.8951 151.745 46.0532C152.189 46.2114 152.588 46.4578 152.941 46.7923C153.293 47.1208 153.579 47.5406 153.798 48.0515C154.017 48.5564 154.127 49.1617 154.127 49.8674H147.511C147.499 49.9465 147.493 50.0194 147.493 50.0864V50.3054C147.493 50.7859 147.584 51.23 147.767 51.6376C147.949 52.0451 148.196 52.401 148.506 52.7052C148.816 53.0032 149.175 53.2374 149.583 53.4078C149.99 53.5781 150.416 53.6633 150.86 53.6633C151.42 53.6633 151.943 53.5659 152.43 53.3713C152.922 53.1705 153.439 52.8512 153.981 52.4132V53.426ZM153.068 49.1465C152.746 47.5101 151.861 46.692 150.413 46.692C150.066 46.692 149.741 46.7497 149.437 46.8653C149.133 46.9748 148.859 47.136 148.616 47.3489C148.378 47.5558 148.174 47.8113 148.004 48.1154C147.834 48.4196 147.709 48.7633 147.63 49.1465H153.068ZM161.882 54.375V45.9802H164.702C165.207 45.9802 165.639 46.0441 165.997 46.1718C166.362 46.2935 166.661 46.4517 166.892 46.6463C167.129 46.841 167.302 47.063 167.412 47.3124C167.527 47.5558 167.585 47.7991 167.585 48.0424C167.585 48.2492 167.549 48.4591 167.476 48.672C167.409 48.8789 167.308 49.0735 167.175 49.256C167.047 49.4385 166.892 49.5997 166.709 49.7396C166.527 49.8795 166.32 49.986 166.089 50.059C166.715 50.132 167.196 50.3571 167.53 50.7342C167.865 51.1114 168.032 51.5828 168.032 52.1486C168.032 52.5014 167.959 52.8147 167.813 53.0884C167.667 53.3622 167.463 53.5964 167.202 53.791C166.94 53.9796 166.63 54.1256 166.271 54.229C165.912 54.3263 165.52 54.375 165.094 54.375H161.882ZM162.776 46.7102V49.7579H164.519C164.884 49.7579 165.198 49.7122 165.459 49.621C165.727 49.5298 165.946 49.4111 166.116 49.2651C166.292 49.1191 166.42 48.9549 166.499 48.7724C166.584 48.5838 166.627 48.3952 166.627 48.2067C166.627 47.9573 166.572 47.7413 166.463 47.5588C166.353 47.3702 166.198 47.2151 165.997 47.0934C165.797 46.9657 165.559 46.8714 165.286 46.8106C165.012 46.7437 164.711 46.7102 164.382 46.7102H162.776ZM162.776 50.4879V53.645H165.058C165.453 53.645 165.778 53.5964 166.034 53.499C166.296 53.3956 166.502 53.2648 166.654 53.1067C166.807 52.9424 166.913 52.7599 166.974 52.5592C167.041 52.3584 167.074 52.1546 167.074 51.9478C167.074 51.6862 167.013 51.4642 166.892 51.2817C166.776 51.0931 166.618 50.9411 166.417 50.8255C166.216 50.7099 165.979 50.6247 165.705 50.57C165.438 50.5152 165.149 50.4879 164.839 50.4879H162.776ZM176.253 54.1104C176.016 54.1895 175.797 54.2564 175.596 54.3111C175.396 54.3659 175.204 54.4085 175.021 54.4389C174.839 54.4754 174.656 54.4997 174.474 54.5119C174.298 54.5301 174.112 54.5392 173.917 54.5392C173.297 54.5392 172.734 54.4389 172.229 54.2381C171.724 54.0313 171.292 53.7424 170.934 53.3713C170.575 53.0002 170.295 52.5561 170.094 52.0391C169.899 51.5159 169.802 50.938 169.802 50.3054C169.802 49.6484 169.902 49.0461 170.103 48.4987C170.304 47.9451 170.584 47.4706 170.943 47.0752C171.302 46.6737 171.73 46.3635 172.229 46.1445C172.728 45.9255 173.276 45.816 173.872 45.816C174.054 45.816 174.228 45.8251 174.392 45.8434C174.562 45.8555 174.733 45.8799 174.903 45.9164C175.079 45.9468 175.262 45.9893 175.45 46.0441C175.645 46.0928 175.861 46.1536 176.098 46.2266V47.2212C175.855 47.1178 175.636 47.0326 175.441 46.9657C175.253 46.8988 175.073 46.844 174.903 46.8015C174.739 46.7589 174.577 46.7315 174.419 46.7193C174.261 46.7011 174.094 46.692 173.917 46.692C173.449 46.692 173.02 46.7771 172.631 46.9474C172.241 47.1178 171.907 47.3581 171.627 47.6683C171.353 47.9725 171.137 48.3405 170.979 48.7724C170.827 49.2043 170.751 49.6818 170.751 50.205C170.751 50.7342 170.827 51.2118 170.979 51.6376C171.131 52.0634 171.347 52.4284 171.627 52.7325C171.907 53.0306 172.248 53.2618 172.649 53.426C173.051 53.5842 173.498 53.6633 173.99 53.6633C174.185 53.6633 174.368 53.6572 174.538 53.645C174.708 53.6268 174.882 53.5994 175.058 53.5629C175.234 53.5203 175.417 53.4686 175.605 53.4078C175.8 53.3469 176.016 53.2709 176.253 53.1797V54.1104ZM185.35 53.426C184.852 53.8093 184.341 54.0921 183.817 54.2746C183.294 54.451 182.728 54.5392 182.12 54.5392C181.512 54.5392 180.949 54.4297 180.432 54.2108C179.921 53.9857 179.48 53.6754 179.109 53.28C178.738 52.8846 178.449 52.4132 178.242 51.8657C178.035 51.3182 177.932 50.7221 177.932 50.0772C177.932 49.4628 178.026 48.8971 178.215 48.38C178.409 47.8569 178.677 47.4067 179.018 47.0296C179.364 46.6463 179.772 46.3483 180.24 46.1353C180.715 45.9224 181.229 45.816 181.783 45.816C182.233 45.816 182.677 45.8951 183.115 46.0532C183.559 46.2114 183.957 46.4578 184.31 46.7923C184.663 47.1208 184.949 47.5406 185.168 48.0515C185.387 48.5564 185.496 49.1617 185.496 49.8674H178.881C178.869 49.9465 178.863 50.0194 178.863 50.0864V50.3054C178.863 50.7859 178.954 51.23 179.136 51.6376C179.319 52.0451 179.565 52.401 179.875 52.7052C180.186 53.0032 180.545 53.2374 180.952 53.4078C181.36 53.5781 181.786 53.6633 182.23 53.6633C182.789 53.6633 183.312 53.5659 183.799 53.3713C184.292 53.1705 184.809 52.8512 185.35 52.4132V53.426ZM184.438 49.1465C184.115 47.5101 183.23 46.692 181.783 46.692C181.436 46.692 181.11 46.7497 180.806 46.8653C180.502 46.9748 180.228 47.136 179.985 47.3489C179.748 47.5558 179.544 47.8113 179.374 48.1154C179.203 48.4196 179.079 48.7633 178.999 49.1465H184.438ZM191.08 50.6977L187.786 54.375H186.627L190.46 50.0772L186.627 45.9802H187.786L191.08 49.4568L194.365 45.9802H195.524L191.673 50.0772L195.524 54.375H194.365L191.08 50.6977ZM209.95 45.9802V46.8106H206.208V54.375H205.314V46.8106H201.573V45.9802H209.95ZM217.742 47.5314L212.148 54.448H211.646V45.9802H212.541V52.842L218.134 45.9802H218.636V54.375H217.742V47.5314ZM228.317 45.9802V54.375H227.423V46.7102H222.222V54.375H221.327V45.9802H228.317ZM239.175 50.1867C239.175 50.8072 239.066 51.3851 238.847 51.9204C238.634 52.4497 238.339 52.909 237.961 53.2983C237.584 53.6876 237.134 53.9918 236.611 54.2108C236.094 54.4297 235.528 54.5392 234.914 54.5392C234.305 54.5392 233.74 54.4297 233.217 54.2108C232.693 53.9918 232.24 53.6876 231.857 53.2983C231.474 52.909 231.173 52.4497 230.954 51.9204C230.741 51.3851 230.634 50.8072 230.634 50.1867C230.634 49.5602 230.741 48.9823 230.954 48.453C231.173 47.9177 231.474 47.4554 231.857 47.0661C232.24 46.6767 232.693 46.3726 233.217 46.1536C233.74 45.9285 234.305 45.816 234.914 45.816C235.528 45.816 236.094 45.9285 236.611 46.1536C237.134 46.3726 237.584 46.6767 237.961 47.0661C238.339 47.4554 238.634 47.9177 238.847 48.453C239.066 48.9823 239.175 49.5602 239.175 50.1867ZM238.226 50.1867C238.226 49.6879 238.141 49.2256 237.971 48.7998C237.806 48.374 237.575 48.0059 237.277 47.6957C236.979 47.3794 236.629 47.133 236.228 46.9566C235.826 46.7802 235.388 46.692 234.914 46.692C234.439 46.692 233.998 46.7802 233.591 46.9566C233.183 47.133 232.83 47.3763 232.532 47.6866C232.234 47.9968 232 48.3648 231.83 48.7906C231.665 49.2165 231.583 49.6818 231.583 50.1867C231.583 50.6856 231.665 51.1479 231.83 51.5737C232 51.9995 232.234 52.3676 232.532 52.6778C232.83 52.988 233.183 53.2314 233.591 53.4078C233.998 53.5781 234.439 53.6633 234.914 53.6633C235.388 53.6633 235.826 53.5781 236.228 53.4078C236.629 53.2314 236.979 52.988 237.277 52.6778C237.575 52.3676 237.806 51.9995 237.971 51.5737C238.141 51.1479 238.226 50.6856 238.226 50.1867ZM241.511 54.375V45.9802H244.33C244.835 45.9802 245.267 46.0441 245.626 46.1718C245.991 46.2935 246.289 46.4517 246.52 46.6463C246.757 46.841 246.931 47.063 247.04 47.3124C247.156 47.5558 247.214 47.7991 247.214 48.0424C247.214 48.2492 247.177 48.4591 247.104 48.672C247.037 48.8789 246.937 49.0735 246.803 49.256C246.675 49.4385 246.52 49.5997 246.338 49.7396C246.155 49.8795 245.948 49.986 245.717 50.059C246.344 50.132 246.824 50.3571 247.159 50.7342C247.493 51.1114 247.661 51.5828 247.661 52.1486C247.661 52.5014 247.588 52.8147 247.442 53.0884C247.296 53.3622 247.092 53.5964 246.83 53.791C246.569 53.9796 246.259 54.1256 245.9 54.229C245.541 54.3263 245.148 54.375 244.723 54.375H241.511ZM242.405 46.7102V49.7579H244.148C244.513 49.7579 244.826 49.7122 245.088 49.621C245.355 49.5298 245.574 49.4111 245.745 49.2651C245.921 49.1191 246.049 48.9549 246.128 48.7724C246.213 48.5838 246.256 48.3952 246.256 48.2067C246.256 47.9573 246.201 47.7413 246.091 47.5588C245.982 47.3702 245.827 47.2151 245.626 47.0934C245.425 46.9657 245.188 46.8714 244.914 46.8106C244.64 46.7437 244.339 46.7102 244.011 46.7102H242.405ZM242.405 50.4879V53.645H244.686C245.081 53.645 245.407 53.5964 245.662 53.499C245.924 53.3956 246.131 53.2648 246.283 53.1067C246.435 52.9424 246.541 52.7599 246.602 52.5592C246.669 52.3584 246.703 52.1546 246.703 51.9478C246.703 51.6862 246.642 51.4642 246.52 51.2817C246.405 51.0931 246.246 50.9411 246.046 50.8255C245.845 50.7099 245.608 50.6247 245.334 50.57C245.066 50.5152 244.777 50.4879 244.467 50.4879H242.405ZM256.201 50.3419V49.6119H257.624C258.014 49.6119 258.354 49.5663 258.646 49.475C258.938 49.3777 259.182 49.253 259.376 49.1009C259.571 48.9488 259.717 48.7785 259.814 48.5899C259.912 48.4013 259.96 48.2127 259.96 48.0242C259.96 47.7504 259.905 47.5223 259.796 47.3398C259.686 47.1512 259.531 46.9992 259.331 46.8836C259.13 46.7619 258.886 46.6767 258.601 46.6281C258.315 46.5733 257.995 46.546 257.642 46.546C257.186 46.546 256.727 46.6129 256.265 46.7467C255.802 46.8805 255.37 47.0509 254.969 47.2577V46.4912C255.158 46.4 255.364 46.3148 255.589 46.2357C255.814 46.1506 256.052 46.0776 256.301 46.0167C256.551 45.9559 256.806 45.9072 257.068 45.8707C257.329 45.8342 257.588 45.816 257.843 45.816C258.233 45.816 258.61 45.8586 258.975 45.9437C259.346 46.0228 259.674 46.1445 259.96 46.3087C260.246 46.473 260.474 46.6828 260.645 46.9383C260.821 47.1877 260.909 47.4858 260.909 47.8326C260.909 48.0637 260.864 48.2888 260.772 48.5078C260.687 48.7207 260.572 48.9184 260.426 49.1009C260.28 49.2773 260.109 49.4355 259.915 49.5754C259.726 49.7092 259.528 49.8126 259.321 49.8856C259.449 49.9221 259.61 49.9921 259.805 50.0955C260 50.1989 260.188 50.3419 260.371 50.5244C260.553 50.7008 260.711 50.9198 260.845 51.1813C260.979 51.4429 261.046 51.7532 261.046 52.1121C261.046 52.5683 260.933 52.9515 260.708 53.2618C260.489 53.572 260.21 53.8214 259.869 54.01C259.534 54.1986 259.169 54.3324 258.774 54.4115C258.385 54.4967 258.02 54.5392 257.679 54.5392C257.18 54.5392 256.687 54.4997 256.201 54.4206C255.72 54.3476 255.261 54.226 254.823 54.0556V53.2527C255.261 53.4595 255.705 53.6055 256.155 53.6906C256.605 53.7758 257.077 53.8184 257.569 53.8184C257.874 53.8184 258.175 53.7849 258.473 53.718C258.777 53.645 259.048 53.5355 259.285 53.3895C259.522 53.2435 259.714 53.055 259.86 52.8238C260.012 52.5926 260.088 52.3189 260.088 52.0026C260.088 51.6984 260.018 51.4429 259.878 51.2361C259.744 51.0232 259.556 50.8498 259.312 50.716C259.069 50.5821 258.777 50.4879 258.436 50.4331C258.096 50.3723 257.719 50.3419 257.305 50.3419H256.201ZM267.57 48.2797C267.57 47.136 266.949 46.5642 265.708 46.5642C265.483 46.5642 265.267 46.5855 265.061 46.6281C264.86 46.6646 264.656 46.7285 264.449 46.8197C264.248 46.9049 264.042 47.0144 263.829 47.1482C263.616 47.282 263.388 47.4432 263.144 47.6318V46.7102C263.4 46.552 263.643 46.4182 263.874 46.3087C264.105 46.1931 264.328 46.0988 264.54 46.0258C264.759 45.9529 264.975 45.9011 265.188 45.8707C265.407 45.8342 265.629 45.816 265.854 45.816C266.122 45.816 266.408 45.8494 266.712 45.9164C267.016 45.9772 267.299 46.0897 267.561 46.254C267.822 46.4182 268.038 46.6433 268.209 46.9292C268.385 47.209 268.473 47.5679 268.473 48.0059V53.2344C268.473 53.4047 268.488 53.5203 268.519 53.5811C268.549 53.6359 268.601 53.6633 268.674 53.6633C268.723 53.6633 268.793 53.642 268.884 53.5994C268.975 53.5507 269.075 53.4929 269.185 53.426C269.294 53.353 269.407 53.2739 269.523 53.1888C269.644 53.0975 269.76 53.0063 269.869 52.915V53.6633L269.723 53.7728C269.51 53.9309 269.328 54.0617 269.176 54.1651C269.024 54.2625 268.887 54.3385 268.765 54.3932C268.65 54.448 268.543 54.4845 268.446 54.5027C268.355 54.5271 268.263 54.5392 268.172 54.5392C268.075 54.5392 267.99 54.524 267.917 54.4936C267.85 54.4632 267.792 54.4115 267.743 54.3385C267.701 54.2594 267.664 54.153 267.634 54.0191C267.609 53.8792 267.588 53.7059 267.57 53.499C267.095 53.864 266.651 54.1286 266.238 54.2929C265.83 54.4571 265.398 54.5392 264.942 54.5392C264.626 54.5392 264.328 54.4845 264.048 54.375C263.774 54.2594 263.534 54.1073 263.327 53.9188C263.126 53.7241 262.968 53.499 262.852 53.2435C262.737 52.982 262.679 52.7052 262.679 52.4132C262.679 52.0482 262.743 51.7227 262.871 51.4368C262.998 51.1448 263.175 50.8893 263.4 50.6703C263.631 50.4453 263.899 50.2567 264.203 50.1046C264.513 49.9465 264.848 49.8157 265.207 49.7122C265.572 49.6028 265.955 49.5206 266.356 49.4659C266.758 49.405 267.162 49.3655 267.57 49.3473V48.2797ZM267.57 50.0955C267.022 50.0712 266.505 50.1107 266.019 50.2141C265.538 50.3114 265.115 50.4635 264.75 50.6703C264.391 50.8772 264.105 51.1296 263.893 51.4277C263.68 51.7197 263.573 52.0482 263.573 52.4132C263.573 52.6078 263.616 52.7903 263.701 52.9607C263.786 53.131 263.902 53.28 264.048 53.4078C264.194 53.5294 264.367 53.6268 264.568 53.6998C264.775 53.7667 264.997 53.8001 265.234 53.8001C265.435 53.8001 265.626 53.7819 265.809 53.7454C265.997 53.7028 266.183 53.6389 266.365 53.5538C266.554 53.4625 266.746 53.35 266.94 53.2162C267.141 53.0762 267.351 52.909 267.57 52.7143V50.0955ZM271.511 54.375V45.9802H274.331C274.836 45.9802 275.268 46.0441 275.627 46.1718C275.992 46.2935 276.29 46.4517 276.521 46.6463C276.758 46.841 276.931 47.063 277.041 47.3124C277.157 47.5558 277.214 47.7991 277.214 48.0424C277.214 48.2492 277.178 48.4591 277.105 48.672C277.038 48.8789 276.938 49.0735 276.804 49.256C276.676 49.4385 276.521 49.5997 276.338 49.7396C276.156 49.8795 275.949 49.986 275.718 50.059C276.344 50.132 276.825 50.3571 277.16 50.7342C277.494 51.1114 277.661 51.5828 277.661 52.1486C277.661 52.5014 277.588 52.8147 277.442 53.0884C277.296 53.3622 277.093 53.5964 276.831 53.791C276.57 53.9796 276.259 54.1256 275.9 54.229C275.541 54.3263 275.149 54.375 274.723 54.375H271.511ZM272.406 46.7102V49.7579H274.148C274.513 49.7579 274.827 49.7122 275.088 49.621C275.356 49.5298 275.575 49.4111 275.745 49.2651C275.922 49.1191 276.049 48.9549 276.129 48.7724C276.214 48.5838 276.256 48.3952 276.256 48.2067C276.256 47.9573 276.202 47.7413 276.092 47.5588C275.983 47.3702 275.827 47.2151 275.627 47.0934C275.426 46.9657 275.189 46.8714 274.915 46.8106C274.641 46.7437 274.34 46.7102 274.012 46.7102H272.406ZM272.406 50.4879V53.645H274.687C275.082 53.645 275.408 53.5964 275.663 53.499C275.925 53.3956 276.132 53.2648 276.284 53.1067C276.436 52.9424 276.542 52.7599 276.603 52.5592C276.67 52.3584 276.703 52.1546 276.703 51.9478C276.703 51.6862 276.643 51.4642 276.521 51.2817C276.405 51.0931 276.247 50.9411 276.046 50.8255C275.846 50.7099 275.608 50.6247 275.335 50.57C275.067 50.5152 274.778 50.4879 274.468 50.4879H272.406ZM285.901 47.5314L280.307 54.448H279.805V45.9802H280.7V52.842L286.293 45.9802H286.795V54.375H285.901V47.5314ZM295.564 54.1104C295.326 54.1895 295.107 54.2564 294.907 54.3111C294.706 54.3659 294.514 54.4085 294.332 54.4389C294.149 54.4754 293.967 54.4997 293.784 54.5119C293.608 54.5301 293.422 54.5392 293.228 54.5392C292.607 54.5392 292.044 54.4389 291.539 54.2381C291.035 54.0313 290.603 53.7424 290.244 53.3713C289.885 53.0002 289.605 52.5561 289.404 52.0391C289.21 51.5159 289.112 50.938 289.112 50.3054C289.112 49.6484 289.213 49.0461 289.413 48.4987C289.614 47.9451 289.894 47.4706 290.253 47.0752C290.612 46.6737 291.041 46.3635 291.539 46.1445C292.038 45.9255 292.586 45.816 293.182 45.816C293.364 45.816 293.538 45.8251 293.702 45.8434C293.872 45.8555 294.043 45.8799 294.213 45.9164C294.389 45.9468 294.572 45.9893 294.761 46.0441C294.955 46.0928 295.171 46.1536 295.408 46.2266V47.2212C295.165 47.1178 294.946 47.0326 294.751 46.9657C294.563 46.8988 294.383 46.844 294.213 46.8015C294.049 46.7589 293.888 46.7315 293.729 46.7193C293.571 46.7011 293.404 46.692 293.228 46.692C292.759 46.692 292.33 46.7771 291.941 46.9474C291.552 47.1178 291.217 47.3581 290.937 47.6683C290.664 47.9725 290.448 48.3405 290.289 48.7724C290.137 49.2043 290.061 49.6818 290.061 50.205C290.061 50.7342 290.137 51.2118 290.289 51.6376C290.441 52.0634 290.657 52.4284 290.937 52.7325C291.217 53.0306 291.558 53.2618 291.959 53.426C292.361 53.5842 292.808 53.6633 293.301 53.6633C293.495 53.6633 293.678 53.6572 293.848 53.645C294.018 53.6268 294.192 53.5994 294.368 53.5629C294.545 53.5203 294.727 53.4686 294.916 53.4078C295.11 53.3469 295.326 53.2709 295.564 53.1797V54.1104ZM303.748 47.5314L298.155 54.448H297.653V45.9802H298.547V52.842L304.14 45.9802H304.642V54.375H303.748V47.5314ZM311.796 52.7873L315.336 45.9802H315.856L316.413 54.375H315.555L315.126 48.0972L311.796 54.375L308.401 48.0972L308.045 54.375H307.188L307.744 45.9802H308.264L311.796 52.7873ZM327.171 50.1867C327.171 50.8072 327.061 51.3851 326.842 51.9204C326.629 52.4497 326.334 52.909 325.957 53.2983C325.58 53.6876 325.13 53.9918 324.607 54.2108C324.089 54.4297 323.524 54.5392 322.909 54.5392C322.301 54.5392 321.735 54.4297 321.212 54.2108C320.689 53.9918 320.236 53.6876 319.853 53.2983C319.469 52.909 319.168 52.4497 318.949 51.9204C318.736 51.3851 318.63 50.8072 318.63 50.1867C318.63 49.5602 318.736 48.9823 318.949 48.453C319.168 47.9177 319.469 47.4554 319.853 47.0661C320.236 46.6767 320.689 46.3726 321.212 46.1536C321.735 45.9285 322.301 45.816 322.909 45.816C323.524 45.816 324.089 45.9285 324.607 46.1536C325.13 46.3726 325.58 46.6767 325.957 47.0661C326.334 47.4554 326.629 47.9177 326.842 48.453C327.061 48.9823 327.171 49.5602 327.171 50.1867ZM326.222 50.1867C326.222 49.6879 326.136 49.2256 325.966 48.7998C325.802 48.374 325.571 48.0059 325.273 47.6957C324.975 47.3794 324.625 47.133 324.223 46.9566C323.822 46.7802 323.384 46.692 322.909 46.692C322.435 46.692 321.994 46.7802 321.586 46.9566C321.179 47.133 320.826 47.3763 320.528 47.6866C320.23 47.9968 319.995 48.3648 319.825 48.7906C319.661 49.2165 319.579 49.6818 319.579 50.1867C319.579 50.6856 319.661 51.1479 319.825 51.5737C319.995 51.9995 320.23 52.3676 320.528 52.6778C320.826 52.988 321.179 53.2314 321.586 53.4078C321.994 53.5781 322.435 53.6633 322.909 53.6633C323.384 53.6633 323.822 53.5781 324.223 53.4078C324.625 53.2314 324.975 52.988 325.273 52.6778C325.571 52.3676 325.802 51.9995 325.966 51.5737C326.136 51.1479 326.222 50.6856 326.222 50.1867ZM335.583 54.1104C335.346 54.1895 335.127 54.2564 334.926 54.3111C334.725 54.3659 334.534 54.4085 334.351 54.4389C334.169 54.4754 333.986 54.4997 333.804 54.5119C333.627 54.5301 333.442 54.5392 333.247 54.5392C332.627 54.5392 332.064 54.4389 331.559 54.2381C331.054 54.0313 330.622 53.7424 330.263 53.3713C329.905 53.0002 329.625 52.5561 329.424 52.0391C329.229 51.5159 329.132 50.938 329.132 50.3054C329.132 49.6484 329.232 49.0461 329.433 48.4987C329.634 47.9451 329.914 47.4706 330.273 47.0752C330.632 46.6737 331.06 46.3635 331.559 46.1445C332.058 45.9255 332.606 45.816 333.202 45.816C333.384 45.816 333.558 45.8251 333.722 45.8434C333.892 45.8555 334.062 45.8799 334.233 45.9164C334.409 45.9468 334.592 45.9893 334.78 46.0441C334.975 46.0928 335.191 46.1536 335.428 46.2266V47.2212C335.185 47.1178 334.966 47.0326 334.771 46.9657C334.583 46.8988 334.403 46.844 334.233 46.8015C334.069 46.7589 333.907 46.7315 333.749 46.7193C333.591 46.7011 333.424 46.692 333.247 46.692C332.779 46.692 332.35 46.7771 331.961 46.9474C331.571 47.1178 331.237 47.3581 330.957 47.6683C330.683 47.9725 330.467 48.3405 330.309 48.7724C330.157 49.2043 330.081 49.6818 330.081 50.205C330.081 50.7342 330.157 51.2118 330.309 51.6376C330.461 52.0634 330.677 52.4284 330.957 52.7325C331.237 53.0306 331.577 53.2618 331.979 53.426C332.38 53.5842 332.828 53.6633 333.32 53.6633C333.515 53.6633 333.697 53.6572 333.868 53.645C334.038 53.6268 334.211 53.5994 334.388 53.5629C334.564 53.5203 334.747 53.4686 334.935 53.4078C335.13 53.3469 335.346 53.2709 335.583 53.1797V54.1104ZM345.036 45.9802V46.8106H341.295V54.375H340.401V46.8106H336.66V45.9802H345.036ZM352.828 47.5314L347.235 54.448H346.733V45.9802H347.627V52.842L353.221 45.9802H353.723V54.375H352.828V47.5314Z" fill="#333333"/>
<defs>
<clipPath id="big-logo">
<rect width="69" height="69" fill="white"/>
</clipPath>
</defs>
</svg>
