<svg width="135" height="101" viewBox="0 0 135 101" fill="none" xmlns="http://www.w3.org/2000/svg">
<path d="M106.701 100.286H76.0656V85.23L127.256 21.2095C130.529 21.2531 135.733 25.7917 134.588 29.5884C132.597 36.1869 130.981 40.2804 130.422 41.5023C128.839 48.8203 125.853 62.7552 124.114 71.3523C122.229 80.6739 111.72 85.5355 106.701 86.801V100.286Z" fill="#FFDFD0"/>
<path d="M92.2998 71.2216C94.5255 61.7953 107.181 56.9948 113.116 55.9038C98.3222 56.9512 90.0742 66.3775 89.8123 69.9124C89.6028 72.7403 91.5143 72.7927 92.2998 71.2216Z" fill="#D9CDBC"/>
<path d="M125.03 32.207C129.324 32.9402 130.572 37.8367 130.66 40.1932C131.009 40.7606 131.681 40.9526 131.576 37.182C131.471 33.4115 127.169 32.2943 125.03 32.207Z" fill="#EEDFC9"/>
<path d="M28.0478 100.548H58.6834V85.4918L7.49318 21.4712C4.22014 21.5148 -0.983463 26.0534 0.161579 29.8502C2.15158 36.4486 3.7678 40.5421 4.32716 41.764C5.91058 49.082 8.89655 63.017 10.6353 71.614C12.5206 80.9356 23.0292 85.7972 28.0478 87.0628V100.548Z" fill="#FFDFD0"/>
<path d="M42.4492 71.4833C40.2235 62.057 27.5678 57.2565 21.6327 56.1655C36.4268 57.2129 44.6749 66.6392 44.9367 70.1741C45.1462 73.002 43.2347 73.0544 42.4492 71.4833Z" fill="#D9CDBC"/>
<path d="M9.71912 32.4688C5.42489 33.2019 4.17678 38.0984 4.0895 40.455C3.74037 41.0223 3.06831 41.2143 3.17305 37.4438C3.27778 33.6732 7.58073 32.556 9.71912 32.4688Z" fill="#EEDFC9"/>
<path d="M23.3043 22.7311C23.3043 10.1772 33.4815 0 46.0355 0C55.622 0 63.8217 5.9257 67.163 14.3209C70.5043 5.9257 78.705 0 88.2905 0C100.844 0 111.022 10.1772 111.022 22.7311C111.022 53.8252 67.163 74.728 67.163 74.728C67.163 74.728 23.3043 52.3163 23.3043 22.7311Z" fill="#E48080"/>
</svg>
