<svg width="94" height="129" viewBox="0 0 94 129" fill="none" xmlns="http://www.w3.org/2000/svg">
<path d="M93.9052 109.426V124.459C93.9052 126.532 92.2223 128.215 90.1489 128.215C88.0754 128.215 86.3926 126.532 86.3926 124.459V109.426C86.3926 103.233 81.3541 98.1947 75.1587 98.1947H75.1161C68.9232 98.1947 63.8848 103.233 63.8848 109.426C63.8848 113.661 62.4774 117.57 60.1059 120.713C56.6752 125.268 51.2235 128.215 45.0958 128.215C38.9555 128.215 33.4938 125.255 30.0655 120.685C27.7066 117.545 26.3067 113.648 26.3067 109.426V94.4384C26.3067 92.3624 27.9896 90.6821 30.063 90.6821H30.0655C32.1415 90.6846 33.8193 92.3624 33.8193 94.4384V109.426C33.8193 115.644 38.8778 120.703 45.0958 120.703C51.3137 120.703 56.3722 115.644 56.3722 109.426C56.3722 105.224 57.762 101.34 60.1059 98.2123C63.5292 93.6446 68.9833 90.6821 75.1161 90.6821H75.1587C85.4961 90.6821 93.9052 99.0912 93.9052 109.426Z" fill="#6E6E6E"/>
<path d="M46.3229 81.0883V94.4382C46.3229 96.5117 44.6426 98.1945 42.5666 98.1945H17.5596C15.4861 98.1945 13.8033 96.5117 13.8033 94.4382V81.0883C13.8033 79.0149 15.4861 77.332 17.5596 77.332H42.5666C44.6426 77.332 46.3229 79.0149 46.3229 81.0883Z" fill="#9CC5DE"/>
<path d="M60.1284 3.7563V17.85L30.0655 30.371H30.0629L0 17.85V3.7563C0 1.68282 1.68282 0 3.7563 0H56.3721C58.4456 0 60.1284 1.68282 60.1284 3.7563Z" fill="#EFEFEF"/>
<path d="M60.1284 17.8501V71.8532C60.1284 79.0177 54.2986 84.845 47.1366 84.845H12.9918C5.82728 84.845 0 79.0177 0 71.8532V17.8501H60.1284Z" fill="#E48080"/>
<path d="M21.3158 33.6064C21.3158 35.6824 19.6354 37.3627 17.5595 37.3627H0V29.8501H17.5595C19.6354 29.8501 21.3158 31.5329 21.3158 33.6064Z" fill="#5A5A5A"/>
<path d="M21.3158 47.7876C21.3158 49.8635 19.6355 51.5439 17.5595 51.5439H6.10352e-05V44.0312H17.5595C19.6355 44.0312 21.3158 45.7141 21.3158 47.7876Z" fill="#5A5A5A"/>
<path d="M21.3158 62.7656C21.3158 64.8391 19.6355 66.5219 17.5595 66.5219H6.10352e-05V59.0093H17.5595C19.6355 59.0093 21.3158 60.6896 21.3158 62.7656Z" fill="#5A5A5A"/>
</svg>
