<svg width="93" height="123" viewBox="0 0 93 123" fill="none" xmlns="http://www.w3.org/2000/svg">
<path d="M29.5 0C23.701 0 19 4.70101 19 10.5H40C40 4.70101 35.299 0 29.5 0Z" fill="#C4C4C4"/>
<path d="M40 87V101.124C41.5 127.822 67.5771 121.822 67.5771 101.124C67.5771 80.4252 67.5771 73.9775 67.5771 73.9775C69.5 49.3222 89.3371 56.3109 89.3371 73.9775C89.3371 91.644 89.3371 95.9529 89.3371 95.9529" stroke="#6E6E6E" stroke-width="6.46337" stroke-linecap="round" stroke-linejoin="round"/>
<path d="M28 90.8808V101.119C28 102.709 27.3283 104 26.4984 104H16.5016C15.6727 104 15 102.709 15 101.119V90.8808C15 89.2906 15.6727 88 16.5016 88H26.4984C27.3283 88 28 89.2906 28 90.8808Z" fill="#9CC5DE"/>
<path d="M59.8712 13.7402V27.7736L29.9368 40.241H29.9343L0 27.7736V13.7402C0 11.6756 1.67563 10 3.74023 10H56.131C58.1956 10 59.8712 11.6756 59.8712 13.7402Z" fill="#EFEFEF"/>
<path d="M59.8712 27.7734V81.5455C59.8712 88.6794 54.0664 94.4818 46.935 94.4818H12.9362C5.80237 94.4818 1.90735e-05 88.6794 1.90735e-05 81.5455V27.7734H12.9362H25H34H46.9356H59.8712Z" fill="#E48080"/>
<path d="M12.0645 39.3008H26.4993M12.0645 49.8576H26.4993M12.0645 59.7681H26.4993M12.0645 69.6786H26.4993" stroke="#6E6E6E" stroke-width="4.30892" stroke-linecap="round" stroke-linejoin="round"/>
<path d="M21.8919 22.7902C12.8108 14.6587 3.51351 15.4927 0 16.9262V31H60V18.099C56.7568 16.9262 53.9189 18.099 49.4595 21.2265C47.3601 22.6989 33.2432 32.9547 21.8919 22.7902Z" fill="#E48080"/>
<path d="M29.7314 22.0649V31.1137" stroke="#6E6E6E" stroke-width="6.46337" stroke-linecap="round" stroke-linejoin="round"/>
</svg>
