<svg width="89" height="66" viewBox="0 0 89 66" fill="none" xmlns="http://www.w3.org/2000/svg">
<path d="M70.039 65.828H49.9297V55.9452L83.5312 13.9219C85.6796 13.9505 89.0953 16.9297 88.3437 19.4219C87.0374 23.7531 85.9765 26.4401 85.6094 27.2422C84.57 32.0457 82.61 41.1927 81.4687 46.8358C80.2312 52.9546 73.3333 56.1457 70.039 56.9764V65.828Z" fill="#FFDFD0"/>
<path d="M60.5859 46.75C62.0468 40.5625 70.3541 37.4115 74.2499 36.6953C64.539 37.3828 59.125 43.5703 58.9531 45.8906C58.8156 47.7468 60.0703 47.7812 60.5859 46.75Z" fill="#D9CDBC"/>
<path d="M82.0702 21.1406C84.8889 21.6219 85.7082 24.8359 85.7655 26.3828C85.9947 26.7552 86.4358 26.8812 86.3671 24.4062C86.2983 21.9312 83.4738 21.1979 82.0702 21.1406Z" fill="#EEDFC9"/>
<path d="M18.4107 65.9998H38.52V56.1171L4.91854 14.0938C2.7701 14.1224 -0.645565 17.1016 0.106049 19.5937C1.41229 23.925 2.47319 26.6119 2.84035 27.414C3.87971 32.2176 5.83972 41.3645 6.98103 47.0077C8.21853 53.1264 15.1164 56.3176 18.4107 57.1483V65.9998Z" fill="#FFDFD0"/>
<path d="M27.8638 46.9219C26.4029 40.7344 18.0956 37.5833 14.1998 36.8672C23.9107 37.5547 29.3247 43.7422 29.4966 46.0625C29.6341 47.9187 28.3794 47.9531 27.8638 46.9219Z" fill="#D9CDBC"/>
<path d="M6.37964 21.3125C3.5609 21.7937 2.74163 25.0078 2.68433 26.5547C2.45517 26.9271 2.01402 27.0531 2.08277 24.5781C2.15152 22.1031 4.976 21.3698 6.37964 21.3125Z" fill="#EEDFC9"/>
<path d="M15.297 14.9208C15.297 6.68036 21.9774 0 30.2178 0C36.5105 0 41.8927 3.88965 44.086 9.40027C46.2793 3.88965 51.6622 0 57.9542 0C66.1946 0 72.875 6.68036 72.875 14.9208C72.875 35.3311 44.086 49.0517 44.086 49.0517C44.086 49.0517 15.297 34.3406 15.297 14.9208Z" fill="#E48080"/>
</svg>
