<svg width="71" height="92" viewBox="0 0 71 92" fill="none" xmlns="http://www.w3.org/2000/svg">
<path d="M64.1561 10.7129C50.0009 12.4462 39.1597 4.37349 35.5085 0.120483V91.7205C80.478 74.6764 73.3442 30.6137 64.1561 10.7129Z" fill="white"/>
<path d="M6.84387 10.5924C20.9991 12.3257 31.8403 4.253 35.4915 0V91.6001C-9.47803 74.5559 -2.34422 30.4932 6.84387 10.5924Z" fill="white"/>
<path d="M58.1696 18.2221C47.032 19.5887 38.502 13.2239 35.6292 9.87073V82.0915C71.012 68.6533 65.399 33.9127 58.1696 18.2221Z" fill="#E48080"/>
<path d="M13.0887 18.2221C24.2263 19.5887 32.7563 13.2239 35.6292 9.87073V82.0915C0.246269 68.6533 5.85929 33.9127 13.0887 18.2221Z" fill="#E48080"/>
<path d="M30.1425 31.0549V40.8023H20.4626V50.9848H30.1425V60.9062H40.7731V50.9848H50.7954V40.8023H40.7731V31.0549H30.1425Z" fill="white"/>
</svg>
