<svg width="74" height="72" viewBox="0 0 74 72" fill="none" xmlns="http://www.w3.org/2000/svg">
<rect x="8.75684" y="15.0116" width="31.2742" height="10.9807" rx="4.1699" fill="#C4C4C4"/>
<rect y="21.2667" width="48.7878" height="48.9268" rx="4.1699" fill="#E48080"/>
<path d="M20.2959 32.5255V39.7874H13.0657V47.3734H20.2959V54.765H28.2361V47.3734H35.7221V39.7874H28.2361V32.5255H20.2959Z" fill="white"/>
<rect x="3.19678" width="42.255" height="18.0696" rx="4.1699" fill="#ABABAB"/>
<path d="M41.1832 65.4107C38.0904 61.9975 38.3502 56.7234 41.7633 53.6307L42.2251 53.2123L48.8669 47.194L55.5087 41.1757L55.9704 40.7573C59.3836 37.6645 64.6577 37.9243 67.7504 41.3374L68.1216 41.7471C71.2144 45.1603 70.9546 50.4343 67.5415 53.5271L67.0797 53.9455L60.4379 59.9638L53.7961 65.9821L53.3343 66.4005C49.9212 69.4932 44.6471 69.2335 41.5544 65.8203L41.1832 65.4107Z" fill="white"/>
<path d="M60.5336 59.8491L48.8987 47.2447L56.0438 40.6892C59.4475 37.5664 64.7412 37.805 67.8501 41.2214L68.2858 41.7002C71.4166 45.1407 71.1275 50.4775 67.6434 53.5597L60.5336 59.8491Z" fill="#E48080"/>
</svg>
