<svg width="100" height="100" viewBox="0 0 100 100" fill="none" xmlns="http://www.w3.org/2000/svg">
<path d="M3.9509 79.3097C3.54299 78.4167 3.33254 77.4462 3.33394 76.4644V74.4349C3.32973 57.0799 6.06845 39.8333 11.4488 23.3333H47.9452C46.4136 28.1425 45.0878 33.0566 43.9971 37.9723L47.2513 38.6943C48.3971 33.5301 49.8104 28.3693 51.4502 23.3333H55.0006C56.7681 23.3313 58.4626 22.6283 59.7124 21.3785C60.9622 20.1287 61.6653 18.4342 61.6672 16.6667V11.6667C61.6672 11.4478 61.6241 11.2311 61.5404 11.0288C61.4566 10.8266 61.3339 10.6429 61.1791 10.4881C61.0243 10.3334 60.8406 10.2106 60.6384 10.1269C60.4362 10.0431 60.2194 9.99999 60.0006 10H51.6672C51.6692 8.2325 52.3722 6.53796 53.6221 5.28814C54.8719 4.03833 56.5664 3.33532 58.3339 3.33333H58.6356C60.0975 3.33576 61.5182 3.81758 62.6799 4.70492C63.8417 5.59226 64.6803 6.83614 65.0673 8.24585L67.5199 17.2387C68.1016 19.3711 68.648 21.5472 69.1442 23.7066L72.3929 22.9601C71.8868 20.7572 71.3292 18.5372 70.7358 16.3616L68.2832 7.36877C67.7027 5.25422 66.4447 3.38842 64.7021 2.05741C62.9595 0.726408 60.8284 0.00366919 58.6356 0H13.3339C10.6827 0.00299744 8.14089 1.05753 6.26618 2.93224C4.39146 4.80696 3.33693 7.34875 3.33394 10V16.6667C3.33572 18.0918 3.79337 19.479 4.63996 20.6254C5.48655 21.7719 6.67768 22.6174 8.03921 23.0385C2.70778 39.6494 -0.00425565 56.9893 0.000605701 74.4349V76.4644C-0.00150402 77.9226 0.311092 79.3641 0.917049 80.6904L3.9509 79.3097ZM58.3339 13.3333V16.6667C58.3339 17.5507 57.9827 18.3986 57.3576 19.0237C56.7325 19.6488 55.8846 20 55.0006 20C54.1165 20 53.2687 19.6488 52.6436 19.0237C52.0184 18.3986 51.6672 17.5507 51.6672 16.6667V13.3333H58.3339ZM6.66727 16.6667V10C6.66925 8.2325 7.37227 6.53796 8.62208 5.28814C9.87189 4.03833 11.5664 3.33532 13.3339 3.33333H50.8864C49.2411 5.16384 48.3318 7.53873 48.3339 10V16.6667C48.3325 17.8373 48.6412 18.9874 49.2286 20H10.0006C9.11686 19.999 8.2696 19.6475 7.6447 19.0226C7.01979 18.3977 6.66828 17.5504 6.66727 16.6667Z" fill="#77A3BE"/>
<path d="M83.7129 44.2692L82.9541 47.5151C93.0755 49.8816 96.6668 53.0262 96.6668 55C96.6668 56.6969 94.2584 58.666 89.8052 60.406C89.0271 57.9271 85.8963 55.8775 80.4647 54.3015L79.5357 57.5028C84.1649 58.8459 86.4113 60.4671 86.6452 61.4929C80.0233 63.5078 70.3535 65 58.3335 65C46.3131 65 36.6429 63.5077 30.021 61.4926C30.3541 59.9196 35.1074 57.2471 45.228 55.851L44.7724 52.549C39.6946 53.2495 35.3792 54.336 32.293 55.6909C29.2517 57.0261 27.4325 58.608 26.8624 60.4062C22.4088 58.6662 20.0002 56.697 20.0002 55C20.0002 54.2974 20.5728 51.8012 27.9412 49.1793C33.5541 47.1821 41.4247 45.7868 50.1031 45.2504L49.8974 41.9233C40.9165 42.4785 32.7222 43.94 26.8237 46.0388C18.429 49.026 16.6669 52.5607 16.6669 55C16.6643 58.5114 17.3173 61.9924 18.5924 65.2641L21.9653 73.9374L25.072 72.7293L21.6991 64.056C21.3184 63.0762 20.9997 62.0735 20.7449 61.0537C22.8824 62.4822 25.8411 63.7583 29.5826 64.8496C37.2851 67.0962 47.4956 68.3333 58.3335 68.3333C69.1714 68.3333 79.382 67.0962 87.0844 64.8496C90.8259 63.7583 93.7846 62.4822 95.9221 61.0537C95.6673 62.0735 95.3487 63.0762 94.9679 64.056L89.2458 78.77C88.7039 80.1652 87.956 81.4712 87.027 82.6447L89.6401 84.7139C90.7757 83.2797 91.69 81.6834 92.3525 79.9781L98.0746 65.2641C99.3497 61.9924 100.003 58.5114 100 55C100 48.9769 89.7957 45.6915 83.7129 44.2692Z" fill="#77A3BE"/>
<path d="M70.4824 31.3694C62.2958 34.3467 55.5553 40.3381 51.6387 48.1192L46.8428 57.7089L49.8242 59.1997L54.6202 49.6097C57.948 42.9995 63.5427 37.807 70.3824 34.9807C70.4659 35.3053 70.5739 35.623 70.7056 35.9312C66.1083 39.8018 61.977 45.0777 58.9809 50.9373L54.0746 60.4686L57.0382 61.9942L61.9467 52.4589C64.7276 47.0202 68.5361 42.1376 72.7629 38.5573C72.9493 38.6982 73.143 38.8291 73.3433 38.9496C73.5652 39.0816 73.7948 39.2003 74.0308 39.3051C73.3637 40.5547 72.668 41.8548 71.9437 43.2052C70.126 46.598 68.2533 50.1153 66.3256 53.7569L62.5461 60.8861L65.4912 62.4474L69.2731 55.3136C71.1905 51.6696 73.0601 48.1582 74.8819 44.7794C75.7434 43.1714 76.5717 41.6252 77.3531 40.1592C77.6932 45.8692 76.4168 51.5594 73.6703 56.5771L71.3297 60.8687L74.2562 62.4648L76.5966 58.1735C79.8678 52.1995 81.2555 45.3758 80.5775 38.5987C81.2558 38.1006 81.8303 37.4749 82.2688 36.7567L95.5345 15.0491C96.4364 13.5723 96.7148 11.7978 96.3085 10.1158C95.9023 8.43382 94.8446 6.98205 93.3681 6.07975C91.8916 5.17746 90.1172 4.89852 88.4351 5.3043C86.753 5.71007 85.3009 6.76732 84.3982 8.24354L71.1325 29.9512C70.8603 30.3965 70.642 30.8726 70.4824 31.3694ZM73.9767 31.6893L87.2424 9.98172C87.4608 9.62366 87.7477 9.31216 88.0866 9.06501C88.4254 8.81786 88.8097 8.63992 89.2174 8.54134C89.6251 8.44277 90.0482 8.4255 90.4625 8.49053C90.8769 8.55555 91.2744 8.70159 91.6322 8.9203C91.9901 9.13901 92.3014 9.42611 92.5483 9.76517C92.7952 10.1042 92.9728 10.4886 93.0711 10.8964C93.1694 11.3042 93.1863 11.7273 93.121 12.1416C93.0556 12.5559 92.9093 12.9533 92.6903 13.311L79.4246 35.0185C79.2062 35.3766 78.9193 35.6881 78.5804 35.9352C78.2416 36.1824 77.8573 36.3603 77.4496 36.4589C77.0419 36.5575 76.6188 36.5748 76.2045 36.5097C75.7901 36.4447 75.3926 36.2987 75.0347 36.08C74.6768 35.8612 74.3656 35.5742 74.1187 35.2351C73.8718 34.896 73.6941 34.5116 73.5959 34.1039C73.4976 33.6961 73.4807 33.273 73.546 32.8587C73.6114 32.4444 73.7577 32.047 73.9767 31.6893Z" fill="#77A3BE"/>
<path d="M82.9715 83.7322C82.3313 83.1487 81.5769 82.7047 80.7561 82.4281C79.9353 82.1516 79.066 82.0485 78.2033 82.1255L76.6294 82.2686C75.5886 80.5589 74.1255 79.1456 72.3808 78.1645C70.6361 77.1835 68.6684 76.6677 66.6668 76.6666H18.3335C16.3311 76.6672 14.3626 77.1828 12.6171 78.1639C10.8716 79.145 9.40783 80.5586 8.36645 82.2688L6.79721 82.1261C5.95825 82.0498 5.11252 82.1444 4.31114 82.4041C3.50975 82.6638 2.76933 83.0833 2.13461 83.6372C1.49989 84.1911 0.984047 84.868 0.618247 85.6268C0.252447 86.3857 0.0442824 87.2108 0.00632891 88.0524C-0.0316246 88.894 0.101421 89.7345 0.397428 90.5232C0.693434 91.3119 1.14626 92.0324 1.72854 92.6412C2.31082 93.25 3.01048 93.7344 3.78524 94.0652C4.55999 94.3961 5.39377 94.5664 6.2362 94.5659C6.42266 94.5659 6.61004 94.5574 6.79711 94.5405L8.3663 94.3978C9.41269 96.1035 10.8776 97.5134 12.622 98.4939C14.3664 99.4744 16.3324 99.9928 18.3335 99.9999H66.6668C68.1994 100.005 69.7176 99.7049 71.1336 99.1184C72.5495 98.5319 73.835 97.6702 74.9155 96.5833C75.5738 95.9259 76.1515 95.1925 76.6365 94.3986L78.2055 94.5413C78.3932 94.5581 78.5842 94.5666 78.773 94.5666C80.0292 94.5654 81.2557 94.1847 82.2918 93.4743C83.3278 92.764 84.1251 91.7571 84.579 90.5858C85.0329 89.4145 85.1223 88.1333 84.8354 86.9103C84.5486 85.6873 83.8989 84.5795 82.9715 83.7322ZM6.49529 91.2208C6.10548 91.2561 5.71254 91.2122 5.34016 91.0916C4.96778 90.971 4.62367 90.7763 4.32856 90.5191C4.03346 90.262 3.79347 89.9478 3.62306 89.5954C3.45264 89.243 3.35534 88.8598 3.337 88.4688C3.31867 88.0778 3.37968 87.6872 3.51637 87.3204C3.65305 86.9536 3.86258 86.6183 4.13233 86.3347C4.40207 86.0511 4.72645 85.825 5.08591 85.6701C5.44537 85.5152 5.83247 85.4347 6.22388 85.4334C6.31381 85.4334 6.40431 85.4375 6.49539 85.4458L16.5296 86.358C17.0225 86.4028 17.4809 86.6303 17.8146 86.9958C18.1484 87.3613 18.3335 87.8383 18.3335 88.3333C18.3335 88.8282 18.1484 89.3053 17.8146 89.6708C17.4809 90.0363 17.0225 90.2638 16.5296 90.3086H16.5297L6.49529 91.2208ZM12.2747 94.0425L16.8314 93.6283H16.8315C18.1528 93.5081 19.3814 92.8983 20.2761 91.9185C21.1707 90.9388 21.6667 89.66 21.6667 88.3332C21.6667 87.0065 21.1707 85.7277 20.276 84.748C19.3813 83.7683 18.1527 83.1584 16.8314 83.0383L12.266 82.6232C12.324 82.5618 12.3818 82.5002 12.4418 82.4403C13.4109 81.4715 14.604 80.7565 15.9154 80.3589C17.2268 79.9612 18.6161 79.8931 19.9601 80.1605C21.3041 80.428 22.5614 81.0228 23.6206 81.8922C24.6799 82.7617 25.5083 83.8789 26.0327 85.145C26.557 86.4111 26.761 87.7869 26.6266 89.1507C26.4922 90.5144 26.0236 91.824 25.2622 92.9634C24.5008 94.1028 23.4702 95.0368 22.2616 95.6828C21.053 96.3287 19.7038 96.6666 18.3335 96.6666C17.1985 96.6624 16.0762 96.4276 15.0347 95.9765C13.9932 95.5254 13.0542 94.8675 12.2747 94.0425ZM72.5584 94.2262C71.7867 95.0026 70.8686 95.6181 69.8572 96.037C68.8459 96.456 67.7614 96.6699 66.6668 96.6666H26.4873C27.5991 95.5822 28.4827 94.2862 29.086 92.855C29.6893 91.4239 30.0001 89.8864 30.0001 88.3333C30.0001 86.7802 29.6893 85.2427 29.086 83.8116C28.4827 82.3804 27.5991 81.0844 26.4873 80H66.6668C68.315 79.9999 69.9263 80.4886 71.2968 81.4044C72.6672 82.3201 73.7353 83.6217 74.366 85.1445C74.9967 86.6674 75.1615 88.343 74.8398 89.9596C74.518 91.5761 73.7241 93.0609 72.5584 94.2262ZM78.773 91.2333C78.6832 91.2333 78.5923 91.2292 78.5052 91.2214L77.9871 91.1743C78.4506 89.3086 78.4489 87.3576 77.9821 85.4927L78.5043 85.4452C78.8943 85.4098 79.2875 85.4537 79.6601 85.5743C80.0327 85.695 80.377 85.8898 80.6722 86.1471C80.9674 86.4045 81.2075 86.7189 81.3779 87.0715C81.5483 87.4241 81.6455 87.8076 81.6636 88.1988C81.6818 88.59 81.6205 88.9809 81.4835 89.3478C81.3465 89.7146 81.1366 90.05 80.8665 90.3335C80.5964 90.6171 80.2716 90.843 79.9118 90.9976C79.552 91.1523 79.1646 91.2324 78.773 91.2333L78.773 91.2333Z" fill="#77A3BE"/>
</svg>
