<svg width="96" height="96" viewBox="0 0 96 96" fill="none" xmlns="http://www.w3.org/2000/svg">
<path d="M77.7243 10.7321H81.4141V7.65723H73.7269C73.3192 7.65723 72.9281 7.81921 72.6398 8.10753C72.3515 8.39585 72.1895 8.78691 72.1895 9.19466V16.8818H75.2644V12.7C83.9625 19.6044 89.7708 29.5063 91.5525 40.4677C93.3343 51.4291 90.9612 62.6609 84.8977 71.9647C78.8343 81.2686 69.517 87.9747 58.7694 90.7705C48.0218 93.5664 36.6177 92.2507 26.7891 87.0809L25.344 89.7868C35.7948 95.2807 47.9128 96.6999 59.3502 93.7695C70.7876 90.8391 80.7302 83.7676 87.2516 73.9252C93.773 64.0828 96.409 52.1701 94.6488 40.4952C92.8886 28.8203 86.8576 18.2143 77.7243 10.7321Z" fill="#77A3BE"/>
<path d="M19.9172 82.5763C11.1982 75.6789 5.37068 65.7729 3.57738 54.8012C1.78409 43.8295 4.15445 32.5837 10.2236 23.2692C16.2927 13.9547 25.6228 7.24366 36.3839 4.45218C47.145 1.66069 58.5608 2.9902 68.3924 8.17996L69.8376 5.47408C59.3868 -0.0198173 47.2688 -1.43904 35.8314 1.49139C24.3939 4.42181 14.4514 11.4933 7.92995 21.3357C1.40854 31.1781 -1.22743 43.0908 0.532736 54.7657C2.29291 66.4406 8.32391 77.0466 17.4573 84.5288H13.7674V87.6037H21.4546C21.8623 87.6037 22.2534 87.4417 22.5417 87.1534C22.83 86.8651 22.992 86.474 22.992 86.0663V78.3791H19.9172V82.5763Z" fill="#77A3BE"/>
<path d="M12.2295 47.631C12.2295 54.6247 14.3034 61.4614 18.1889 67.2764C22.0744 73.0915 27.597 77.6238 34.0584 80.3002C40.5198 82.9766 47.6297 83.6768 54.489 82.3124C61.3484 80.948 67.6491 77.5802 72.5944 72.6349C77.5397 67.6896 80.9075 61.3889 82.2719 54.5295C83.6363 47.6702 82.9361 40.5603 80.2597 34.0989C77.5833 27.6375 73.051 22.1149 67.2359 18.2294C61.4209 14.3439 54.5842 12.27 47.5905 12.27C38.2122 12.27 29.218 15.9955 22.5865 22.627C15.955 29.2585 12.2295 38.2526 12.2295 47.631ZM79.8765 47.631C79.8765 54.0165 77.983 60.2587 74.4353 65.5681C70.8877 70.8775 65.8453 75.0157 59.9458 77.4594C54.0463 79.903 47.5546 80.5424 41.2918 79.2967C35.0289 78.0509 29.276 74.9759 24.7608 70.4607C20.2455 65.9454 17.1705 60.1925 15.9248 53.9297C14.679 47.6668 15.3184 41.1751 17.762 35.2756C20.2057 29.3761 24.3439 24.3337 29.6533 20.7861C34.9627 17.2384 41.2049 15.3449 47.5905 15.3449C56.1533 15.3449 64.3653 18.7464 70.4202 24.8013C76.475 30.8561 79.8765 39.0682 79.8765 47.631Z" fill="#77A3BE"/>
<path d="M18.3801 47.6309C18.3801 53.4083 20.0933 59.056 23.303 63.8598C26.5128 68.6635 31.075 72.4076 36.4126 74.6185C41.7503 76.8294 47.6237 77.4079 53.2901 76.2808C58.9565 75.1537 64.1614 72.3716 68.2467 68.2863C72.332 64.2011 75.1141 58.9961 76.2412 53.3297C77.3683 47.6633 76.7898 41.7899 74.5789 36.4522C72.368 31.1146 68.6239 26.5524 63.8201 23.3427C59.0164 20.1329 53.3687 18.4197 47.5913 18.4197C39.844 18.4197 32.414 21.4973 26.9358 26.9754C21.4577 32.4536 18.3801 39.8836 18.3801 47.6309ZM64.0572 33.3481L67.132 30.2733C71.0546 34.6501 73.3794 40.2264 73.7276 46.0934H69.1153V49.1683H73.7276C73.3854 55.019 71.0776 60.5826 67.1782 64.9577L64.1033 61.8829L61.9201 64.066L64.995 67.1409C60.6102 71.0842 55.0157 73.4207 49.1287 73.7672V69.1549H46.0538V73.7672C40.2032 73.425 34.6395 71.1172 30.2644 67.2178L33.3393 64.1429L31.1561 61.9597L28.0813 65.0346C24.1658 60.6392 21.8569 55.0458 21.5318 49.1683H26.0672V46.0934H21.5318C21.874 40.2428 24.1818 34.6791 28.0813 30.304L31.1561 33.3789L33.3393 31.1957L30.2644 28.1209C34.6395 24.2214 40.2032 21.9136 46.0538 21.5714V26.1068H49.1287V21.5714C54.9794 21.9136 60.543 24.2214 64.9181 28.1209L61.8433 31.1957L64.0572 33.3481Z" fill="#77A3BE"/>
<path d="M49.1292 29.1809H46.0543V47.6301C46.0532 47.8324 46.092 48.033 46.1685 48.2203C46.245 48.4076 46.3577 48.578 46.5002 48.7217L55.7248 57.9463L57.9079 55.7631L49.1292 46.9997V29.1809Z" fill="#77A3BE"/>
</svg>
