<svg width="100" height="100" viewBox="0 0 100 100" fill="none" xmlns="http://www.w3.org/2000/svg">
<path d="M99.4278 0.57202C98.6649 -0.190673 97.4286 -0.190673 96.6655 0.57202L74.2187 23.019L72.8382 21.6386C72.0759 20.8761 70.8388 20.8761 70.076 21.6386L63.6445 28.07L62.2639 26.6893C59.974 24.3995 56.2686 24.3993 53.9783 26.6893C51.257 29.4104 18.8565 61.8109 17.1056 63.5619L11.1468 57.6031C10.3841 56.8404 9.14739 56.8404 8.3845 57.6031C7.62181 58.3658 7.62181 59.6025 8.3845 60.3654L19.8667 71.8476L8.95716 82.7572L3.33432 77.1343C2.57162 76.3716 1.33491 76.3716 0.57202 77.1343C-0.190673 77.897 -0.190673 79.1337 0.57202 79.8966L20.1032 99.4278C20.8659 100.191 22.1026 100.191 22.8655 99.4278C23.6282 98.6651 23.6282 97.4284 22.8655 96.6655L17.2429 91.0427L28.1524 80.1332L39.6346 91.6153C40.3973 92.378 41.634 92.378 42.3969 91.6153C43.1596 90.8527 43.1596 89.6159 42.3969 88.8531L36.4381 82.8943C42.7491 76.5834 64.1555 55.1772 73.3109 46.0215C75.5951 43.7371 75.5951 40.0204 73.3109 37.736L71.9302 36.3553L78.3615 29.9241C79.1242 29.1614 79.1242 27.9247 78.3615 27.162L76.9808 25.7813L99.4278 3.33432C100.191 2.57143 100.191 1.33471 99.4278 0.57202ZM14.4806 88.2806L11.7193 85.5193L22.6288 74.6097L25.3901 77.371L14.4806 88.2806ZM19.8677 66.324L24.2481 61.9437L38.0563 75.7519L33.676 80.1322L19.8677 66.324ZM70.5486 43.2594L65.2324 48.5756L58.3283 41.6715C57.5654 40.9088 56.3291 40.9088 55.566 41.6715C54.8033 42.4342 54.8033 43.6709 55.566 44.4338L62.4701 51.3379L57.4199 56.3881L50.5158 49.484C49.753 48.7213 48.5166 48.7213 47.7535 49.484C46.9908 50.2467 46.9908 51.4834 47.7535 52.2463L54.6576 59.1504L49.6074 64.2006L42.7032 57.2965C41.9405 56.5338 40.7038 56.5338 39.9411 57.2965C39.1784 58.0592 39.1784 59.2959 39.9411 60.0586L46.8451 66.9627L40.8184 72.9894L27.0102 59.1813L56.7404 29.4511C57.5037 28.688 58.7381 28.6878 59.5016 29.4511C60.4576 30.4071 69.0576 39.0069 70.5486 40.4977C71.3097 41.2594 71.3097 42.4983 70.5486 43.2594ZM69.1679 33.5932L66.4068 30.8321L71.4572 25.7817C72.3992 26.7237 73.1804 27.505 74.2185 28.543L69.1679 33.5932Z" fill="#77A3BE"/>
<path d="M72.0703 98.0467C72.0703 99.1254 72.9449 99.9998 74.0235 99.9998H93.5547C94.6332 99.9998 95.5078 99.1254 95.5078 98.0467V72.6561H98.0468C99.1253 72.6561 100 71.7817 100 70.703V62.8905C100 61.8118 99.1253 60.9374 98.0468 60.9374H92.5781C91.4996 60.9374 90.625 61.8118 90.625 62.8905C90.625 63.9692 91.4996 64.8436 92.5781 64.8436H96.0937V68.7499H71.4844V64.8436H75C76.0785 64.8436 76.9531 63.9692 76.9531 62.8905C76.9531 61.8118 76.0785 60.9374 75 60.9374H69.5313C68.4528 60.9374 67.5782 61.8118 67.5782 62.8905V70.703C67.5782 71.7817 68.4528 72.6561 69.5313 72.6561H72.0703V98.0467ZM75.9766 96.0935V82.4285C78.3793 82.4965 80.7687 83.0944 82.915 84.1684C85.6012 85.5125 88.5949 86.2524 91.6015 86.3211V96.0935H75.9766ZM91.6015 72.6561V82.4149C89.1988 82.3469 86.8094 81.749 84.6631 80.675C81.9769 79.3309 78.9832 78.591 75.9766 78.5223V72.6561H91.6015Z" fill="#77A3BE"/>
<path d="M83.789 64.8436C84.8677 64.8436 85.7422 63.9692 85.7422 62.8905C85.7422 61.8118 84.8677 60.9374 83.789 60.9374C82.7104 60.9374 81.8359 61.8118 81.8359 62.8905C81.8359 63.9692 82.7104 64.8436 83.789 64.8436Z" fill="#77A3BE"/>
</svg>
