<svg width="72" height="96" viewBox="0 0 72 96" fill="none" xmlns="http://www.w3.org/2000/svg">
<path d="M71.0144 35.3213C71.0144 31.0673 67.5534 27.6064 63.2995 27.6064C59.0455 27.6064 55.5845 31.0673 55.5845 35.3213C55.5845 38.0341 56.9935 40.4228 59.1167 41.7987V71.0144C59.1167 79.7274 52.0281 86.816 43.3151 86.816C34.602 86.816 27.5134 79.7274 27.5134 71.0144V47.1898C28.6774 46.4356 29.6262 45.3773 30.2462 44.1273C32.9529 43.287 35.4613 41.9701 37.7101 40.2055C38.316 39.7299 38.4216 38.8538 37.9464 38.2479C37.4709 37.6419 36.5943 37.5367 35.9889 38.0117C34.4661 39.2064 32.8086 40.1672 31.0415 40.884C31.0424 40.8268 31.0456 40.7701 31.0456 40.7124V38.2957C31.0456 38.1427 31.0368 37.9918 31.0206 37.8429C33.7937 36.5085 36.1683 34.4816 37.938 31.9247C39.9962 28.9508 41.0842 25.4646 41.0842 21.8434V7.52901C41.0842 6.76012 41.7096 6.13475 42.4785 6.13475C43.2474 6.13475 43.8728 6.76012 43.8728 7.52901V21.8434C43.8728 26.2114 42.5142 30.3847 39.9443 33.9123C39.4909 34.5347 39.6277 35.4068 40.2503 35.8602C40.8729 36.3138 41.7446 36.177 42.1982 35.5542C45.1179 31.5466 46.6613 26.8053 46.6613 21.8434V7.52901C46.6613 5.65345 45.4204 4.06232 43.7164 3.53324C43.1812 1.50227 41.3291 0 39.1323 0C36.5183 0 34.3918 2.12653 34.3918 4.74049C34.3918 7.06872 36.0796 9.00916 38.2957 9.4055V21.8434C38.2957 27.6586 34.998 32.8434 29.8102 35.331C29.0534 34.5786 28.0116 34.1129 26.8628 34.1129H19.7985C18.6496 34.1129 17.6078 34.5786 16.851 35.331C11.6633 32.8434 8.36557 27.6586 8.36557 21.8434V9.4055C10.5817 9.00916 12.2695 7.06872 12.2695 4.74049C12.2695 2.12653 10.143 0 7.52901 0C5.33221 0 3.48008 1.50227 2.94487 3.53324C1.24089 4.06232 0 5.65345 0 7.52901V11.8382C0 12.6084 0.624071 13.2325 1.39426 13.2325C2.16445 13.2325 2.78852 12.6084 2.78852 11.8382V7.52901C2.78852 6.76012 3.4139 6.13475 4.18278 6.13475C4.95167 6.13475 5.57705 6.76012 5.57705 7.52901V21.8434C5.57705 25.4646 6.66513 28.9508 8.72324 31.9247C10.493 34.4816 12.8677 36.5083 15.6406 37.8429C15.6245 37.9918 15.6157 38.1427 15.6157 38.2957V40.7124C15.6157 40.7689 15.6187 40.8247 15.62 40.8809C7.96383 37.7704 2.78852 30.2445 2.78852 21.8434V17.8042C2.78852 17.034 2.16445 16.4099 1.39426 16.4099C0.624071 16.4099 0 17.034 0 17.8042V21.8434C0 32.0435 6.71681 41.1075 16.4129 44.1228C17.0327 45.3748 17.9824 46.4347 19.1479 47.19V71.0144C19.1479 84.3404 29.9891 95.1816 43.3151 95.1816C56.641 95.1816 67.4822 84.3404 67.4822 71.0144V65.3778C67.4822 64.6077 66.8582 63.9836 66.088 63.9836C65.3178 63.9836 64.6937 64.6077 64.6937 65.3778V71.0144C64.6937 82.8026 55.1033 92.3931 43.3151 92.3931C31.5269 92.3931 21.9364 82.8026 21.9364 71.0144V48.2987C22.389 48.3818 22.8544 48.4273 23.3306 48.4273C23.8069 48.4273 24.2722 48.3818 24.7249 48.2987V71.0144C24.7249 81.2652 33.0643 89.6045 43.3151 89.6045C53.5658 89.6045 61.9052 81.2652 61.9052 71.0144V54.6625H64.6937V59.3857C64.6937 60.1559 65.3178 60.7799 66.088 60.7799C66.8582 60.7799 67.4822 60.1559 67.4822 59.3857V41.7987C69.6054 40.4228 71.0144 38.0341 71.0144 35.3213ZM37.1803 4.74049C37.1803 3.66412 38.0559 2.78852 39.1323 2.78852C39.8285 2.78852 40.439 3.15605 40.7846 3.70595C39.6089 4.22889 38.7179 5.27812 38.4119 6.55303C37.6913 6.26562 37.1803 5.56236 37.1803 4.74049ZM7.52901 2.78852C8.60538 2.78852 9.48098 3.66412 9.48098 4.74049C9.48098 5.56236 8.96993 6.26562 8.24938 6.55303C7.94339 5.27812 7.05236 4.22889 5.87672 3.70595C6.22231 3.15605 6.83281 2.78852 7.52901 2.78852ZM18.4042 40.7124V38.2957C18.4042 37.5268 19.0296 36.9015 19.7985 36.9015H26.8628C27.6317 36.9015 28.257 37.5268 28.257 38.2957V40.7124C28.257 43.4288 26.047 45.6388 23.3306 45.6388C20.6142 45.6388 18.4042 43.4288 18.4042 40.7124ZM64.6937 51.874H61.9052V42.9076C62.3579 42.9907 62.8232 43.0362 63.2995 43.0362C63.7757 43.0362 64.2411 42.9907 64.6937 42.9076V51.874ZM63.2995 40.2477C60.5831 40.2477 58.3731 38.0377 58.3731 35.3213C58.3731 32.6049 60.5831 30.3949 63.2995 30.3949C66.0159 30.3949 68.2259 32.6049 68.2259 35.3213C68.2259 38.0377 66.0159 40.2477 63.2995 40.2477Z" fill="#77A3BE"/>
</svg>
