<svg width="73" height="100" viewBox="0 0 73 100" fill="none" xmlns="http://www.w3.org/2000/svg">
<path d="M70.9961 20.1887C71.8051 20.1887 72.4609 19.533 72.4609 18.7238V13.1836C72.4609 9.14492 69.1754 5.85938 65.1367 5.85938H58.2031V2.63672C58.2031 1.18281 57.0203 0 55.5664 0H16.8945C15.4406 0 14.2578 1.18281 14.2578 2.63672V5.85938H7.32422C3.28555 5.85938 0 9.14492 0 13.1836V92.6758C0 96.7145 3.28555 100 7.32422 100H65.1367C69.1754 100 72.4609 96.7145 72.4609 92.6758V25.0102C72.4609 24.201 71.8051 23.5453 70.9961 23.5453C70.1871 23.5453 69.5312 24.201 69.5312 25.0102V92.6758C69.5312 95.0988 67.56 97.0703 65.1367 97.0703H7.32422C4.90098 97.0703 2.92969 95.0988 2.92969 92.6758V13.1836C2.92969 10.7605 4.90098 8.78906 7.32422 8.78906H19.7266V11.7188H17.4639C16.6549 11.7188 15.999 12.3744 15.999 13.1836C15.999 13.9928 16.6549 14.6484 17.4639 14.6484H19.7266V14.9928C19.7266 17.3875 21.675 19.3359 24.0697 19.3359H48.391C50.7859 19.3359 52.7342 17.3875 52.7342 14.9928V14.6484H63.6717V91.2109H8.78887V87.51C8.78887 86.7008 8.13301 86.0451 7.32402 86.0451C6.51504 86.0451 5.85918 86.7008 5.85918 87.51V92.6758C5.85918 93.485 6.51504 94.1406 7.32402 94.1406H65.1365C65.9455 94.1406 66.6014 93.485 66.6014 92.6758V13.1836C66.6014 12.3744 65.9455 11.7188 65.1365 11.7188H52.7342V8.78906H65.1367C67.56 8.78906 69.5312 10.7605 69.5312 13.1836V18.7238C69.5312 19.533 70.1871 20.1887 70.9961 20.1887ZM49.8047 14.9928C49.8047 15.7721 49.1705 16.4062 48.3912 16.4062H24.0697C23.2902 16.4062 22.6562 15.7721 22.6562 14.9928V14.6484H49.8047V14.9928ZM49.8047 11.7188H22.6562V8.78906H49.8047V11.7188ZM17.1875 5.85938V2.92969H55.2734V5.85938H17.1875Z" fill="#77A3BE"/>
<path d="M7.32422 82.6158C8.1332 82.6158 8.78906 81.9602 8.78906 81.151V14.6484H11.1412C11.9502 14.6484 12.6061 13.9928 12.6061 13.1836C12.6061 12.3744 11.9502 11.7188 11.1412 11.7188H7.32422C6.51523 11.7188 5.85938 12.3744 5.85938 13.1836V81.151C5.85938 81.9602 6.51523 82.6158 7.32422 82.6158Z" fill="#77A3BE"/>
<path d="M30.0959 46.8083C35.3613 52.206 35.4771 52.206 36.2304 52.206C36.9838 52.206 37.0996 52.206 42.365 46.8083C44.6802 44.4353 46.9779 42.032 47.1496 41.8523C50.4267 38.5488 50.4232 33.1835 47.1384 29.8853C45.5433 28.2835 43.4222 27.4011 41.1654 27.4011C39.3689 27.4011 37.6582 27.9603 36.2304 28.9966C34.8027 27.9603 33.092 27.4011 31.2955 27.4011C29.0388 27.4011 26.9175 28.2835 25.3224 29.8853C22.0377 33.1837 22.0341 38.5488 25.3113 41.8523C25.483 42.032 27.7808 44.4353 30.0959 46.8083ZM27.3984 31.9525C28.4396 30.9068 29.8236 30.3308 31.2955 30.3308C32.7674 30.3308 34.1513 30.9068 35.1925 31.9525C35.4674 32.2285 35.841 32.3837 36.2304 32.3837C36.6199 32.3837 36.9935 32.2285 37.2683 31.9525C38.3095 30.9068 39.6935 30.3308 41.1654 30.3308C42.6373 30.3308 44.0213 30.9068 45.0625 31.9525C47.216 34.115 47.216 37.6337 45.0625 39.7964C45.0552 39.8037 45.0482 39.8109 45.0412 39.8181C42.1193 42.8771 37.9824 47.1373 36.2304 48.8169C34.4785 47.1371 30.3418 42.8771 27.4197 39.8181C27.4127 39.8109 27.4056 39.8037 27.3984 39.7964C25.2449 37.6337 25.2449 34.115 27.3984 31.9525Z" fill="#77A3BE"/>
<path d="M18.6508 64.9902C18.6508 67.4133 20.6221 69.3848 23.0453 69.3848H49.4157C51.8389 69.3848 53.8102 67.4133 53.8102 64.9902C53.8102 62.5672 51.8389 60.5957 49.4157 60.5957H23.0453C20.6221 60.5957 18.6508 62.5672 18.6508 64.9902ZM23.0453 63.5254H49.4157C50.2233 63.5254 50.8805 64.1824 50.8805 64.9902C50.8805 65.798 50.2233 66.4551 49.4157 66.4551H23.0453C22.2377 66.4551 21.5805 65.798 21.5805 64.9902C21.5805 64.1824 22.2377 63.5254 23.0453 63.5254Z" fill="#77A3BE"/>
<path d="M23.0453 82.0377H49.4157C51.8389 82.0377 53.8102 80.0662 53.8102 77.6432C53.8102 75.2201 51.8389 73.2487 49.4157 73.2487H23.0453C20.6221 73.2487 18.6508 75.2201 18.6508 77.6432C18.6508 80.0662 20.6221 82.0377 23.0453 82.0377ZM23.0453 76.1783H49.4157C50.2233 76.1783 50.8805 76.8354 50.8805 77.6432C50.8805 78.451 50.2233 79.108 49.4157 79.108H23.0453C22.2377 79.108 21.5805 78.451 21.5805 77.6432C21.5805 76.8354 22.2377 76.1783 23.0453 76.1783Z" fill="#77A3BE"/>
</svg>
