<svg width="62" height="100" viewBox="0 0 62 100" fill="none" xmlns="http://www.w3.org/2000/svg">
<path d="M27.4389 58.5074C28.4637 58.7936 29.6127 58.9367 30.7617 58.9367C31.9107 58.9367 33.0598 58.7936 34.0846 58.5074C34.8637 58.2899 35.3189 57.4818 35.1014 56.7025C34.8838 55.9238 34.077 55.4684 33.2965 55.6857C31.7805 56.109 29.7432 56.1092 28.227 55.6857C27.4475 55.468 26.6399 55.9236 26.4221 56.7025C26.2045 57.4818 26.6598 58.2899 27.4389 58.5074Z" fill="#77A3BE"/>
<path d="M49.4695 76.3655H42.965V72.741C42.965 71.5086 41.9933 70.5061 40.799 70.5061H38.0859V69.5172H48.8586C53.9697 69.5172 58.1279 65.359 58.1279 60.2477C58.1279 57.7606 57.7851 55.3082 57.1123 52.9407C59.7605 51.4862 61.1328 47.7147 61.1328 43.9786C61.1328 39.7727 59.4496 36.7301 56.6697 35.7448C56.7742 34.3151 56.8378 32.7044 56.8378 30.9007C56.8378 29.2954 56.5837 27.6971 56.0826 26.1505C55.8332 25.3807 55.0062 24.9591 54.2376 25.2085C53.4681 25.4577 53.0462 26.2839 53.2957 27.0534C53.7021 28.3081 53.9083 29.6026 53.9083 30.9007C53.9083 40.3581 52.0898 44.7342 51.3673 45.3737C50.3294 45.5583 47.9689 43.8489 44.5974 38.3921C42.1759 34.4727 40.2783 30.3243 40.0599 29.8421C37.8074 23.6348 35.6595 22.5278 30.7621 22.5278C25.8646 22.5278 23.7166 23.635 21.4642 29.8421C21.2465 30.3235 19.359 34.4514 16.9398 38.3708C13.5615 43.844 11.1986 45.5581 10.1566 45.3737C9.43417 44.7348 7.61562 40.3585 7.61562 30.9007C7.61562 25.4413 11.1799 21.6179 13.3045 19.8245C16.5273 17.1042 20.6012 15.4143 23.9357 15.4143C27.5662 15.4143 30.0718 16.6581 30.0922 16.6682C30.509 16.8823 31.0082 16.8821 31.4271 16.6708C31.4519 16.6583 33.9576 15.4143 37.5882 15.4143C40.7035 15.4143 44.3414 16.8538 47.3636 19.1407C47.3763 19.1513 47.3898 19.1608 47.4029 19.171C48.5482 20.0421 49.6046 21.0343 50.5087 22.1167C51.0273 22.7378 51.9511 22.8204 52.572 22.302C53.1931 21.7835 53.2759 20.8596 52.7574 20.2388C51.8757 19.1831 50.8632 18.2022 49.766 17.3161V5.14033C49.766 3.56982 48.5908 2.23642 47.0324 2.03877L31.1547 0.0249023C30.8937 -0.00830077 30.6295 -0.00830077 30.3685 0.0249023L22.5279 1.01943C21.7254 1.12119 21.1572 1.85439 21.259 2.65693C21.3607 3.45947 22.0937 4.02841 22.8965 3.92588L30.7367 2.93134C30.7535 2.92939 30.7705 2.92939 30.7865 2.93134L46.6636 4.94521C46.7619 4.95751 46.8361 5.0415 46.8361 5.14033V15.2942C43.8312 13.5362 40.5255 12.4845 37.5881 12.4845C35.3886 12.4845 33.5392 12.8669 32.2267 13.2554V5.73857C32.2267 4.92939 31.5711 4.27373 30.7619 4.27373C29.9529 4.27373 29.297 4.92939 29.297 5.73857V13.2554C27.9845 12.8667 26.1351 12.4845 23.9357 12.4845C21.0371 12.4845 17.7162 13.514 14.6877 15.2806V5.14033C14.6877 5.0415 14.7619 4.95751 14.8603 4.94521L16.6576 4.71709C17.4601 4.61533 18.0283 3.88213 17.9264 3.07939C17.8246 2.27685 17.0922 1.70771 16.2887 1.81064L14.4916 2.03877C12.9332 2.23642 11.7578 3.56963 11.7578 5.14033V17.3018C11.6424 17.3954 11.5279 17.4897 11.4146 17.5856C7.07538 21.2479 4.68554 25.9766 4.68554 30.9005C4.68554 32.7042 4.74921 34.3149 4.85371 35.7446C2.07363 36.7299 0.390625 39.7725 0.390625 43.9784C0.390625 47.7147 1.76289 51.4862 4.41132 52.9405C3.73828 55.3079 3.39551 57.76 3.39551 60.2477C3.39551 65.3588 7.5537 69.517 12.6648 69.517H23.4375V70.5059H20.7244C19.5301 70.5059 18.5584 71.5086 18.5584 72.7409V76.3653H12.0537C5.40722 76.3653 0 81.7727 0 88.4192V98.5352C0 99.3443 0.655859 100 1.46484 100H11.9494C12.7584 100 13.4142 99.3443 13.4142 98.5352C13.4142 97.726 12.7584 97.0703 11.9494 97.0703H2.92968V88.4193C2.92968 83.3883 7.02284 79.2951 12.0537 79.2951H49.4695C54.5005 79.2951 58.5937 83.3883 58.5937 88.4193V97.0703H18.381C17.5721 97.0703 16.9162 97.726 16.9162 98.5352C16.9162 99.3443 17.5721 100 18.381 100H60.0585C60.8677 100 61.5234 99.3443 61.5234 98.5352V88.4193C61.5234 81.7729 56.116 76.3655 49.4695 76.3655ZM48.8586 66.5875H41.8785C46.9644 63.6975 50.823 58.8875 52.4599 53.1499C53.0339 53.3752 53.6314 53.5106 54.2398 53.5518C54.8751 55.7174 55.1984 57.9657 55.1984 60.2479C55.1982 63.7434 52.3544 66.5875 48.8586 66.5875ZM55.6085 42.7495C55.8566 41.786 56.1257 40.4999 56.3488 38.8598C57.6935 39.8325 58.2033 41.9977 58.2033 43.9784C58.2033 47.2514 56.8697 50.637 54.6378 50.637C54.1005 50.637 53.581 50.4938 53.0869 50.2118C53.2124 49.3426 53.2898 48.4581 53.3128 47.5602C54.2365 46.7247 54.9939 45.1366 55.6085 42.7495ZM19.4326 39.9092C22.0949 35.5962 24.0767 31.1762 24.1599 30.9901C24.1746 30.9575 24.1881 30.9243 24.2002 30.8905C26.0795 25.6887 27.1922 25.4573 30.7619 25.4573C34.3316 25.4573 35.4445 25.6889 37.3238 30.8907C37.3361 30.9243 37.3494 30.9575 37.3638 30.9901C37.447 31.1762 39.4289 35.5962 42.0912 39.9092C45.198 44.9428 47.9195 47.6866 50.35 48.2194C49.7044 58.4563 41.1724 66.5875 30.7756 66.5875H30.748C20.3512 66.5875 11.8191 58.4563 11.1736 48.2194C13.6039 47.6862 16.3258 44.9426 19.4326 39.9092ZM5.1748 38.8596C5.39785 40.4999 5.66699 41.786 5.91503 42.7495C6.52968 45.1362 7.28691 46.7245 8.21074 47.5598C8.23378 48.4579 8.31112 49.3426 8.43671 50.212C7.94238 50.4942 7.42285 50.6368 6.88574 50.6368C4.6539 50.6368 3.32031 47.2512 3.32031 43.9782C3.32031 41.9977 3.83008 39.8323 5.1748 38.8596ZM6.32519 60.2477C6.32519 57.9651 6.64843 55.7172 7.28378 53.5518C7.89198 53.5106 8.48945 53.3752 9.06366 53.1499C10.7006 58.8877 14.5592 63.6975 19.6451 66.5875H12.6648C9.16913 66.5875 6.32519 63.7434 6.32519 60.2477ZM35.1562 69.5172V70.6317C32.9607 71.0221 31.5963 72.27 30.7617 73.5143C29.9271 72.2698 28.5627 71.0221 26.3672 70.6317V69.5172H35.1562ZM21.4881 76.3655V73.4358H24.9023C27.4078 73.4358 28.4906 75.0602 28.956 76.3655H21.4881ZM32.5674 76.3655C33.033 75.0602 34.116 73.4358 36.6211 73.4358H40.0353V76.3655H32.5674Z" fill="#77A3BE"/>
<path d="M35.1562 87.8888C35.1562 85.4657 33.1847 83.4943 30.7617 83.4943C28.3384 83.4943 26.3672 85.4657 26.3672 87.8888C26.3672 90.312 28.3384 92.2835 30.7617 92.2835C33.1847 92.2835 35.1562 90.312 35.1562 87.8888ZM29.2968 87.8888C29.2968 87.081 29.9539 86.4239 30.7617 86.4239C31.5695 86.4239 32.2265 87.081 32.2265 87.8888C32.2265 88.6966 31.5695 89.3538 30.7617 89.3538C29.9539 89.3538 29.2968 88.6966 29.2968 87.8888Z" fill="#77A3BE"/>
</svg>
