<svg width="101" height="96" viewBox="0 0 101 96" fill="none" xmlns="http://www.w3.org/2000/svg">
<path d="M99.8584 52.1708C98.9681 43.216 94.9675 34.7739 88.5932 28.3993C83.1457 22.9521 76.4781 19.4515 69.4624 17.895V12.9743C72.3279 12.2615 74.4578 9.66767 74.4578 6.58468C74.4578 2.95381 71.504 0 67.8731 0H53.9291C50.2982 0 47.3444 2.95381 47.3444 6.58468C47.3444 9.66747 49.4744 12.2613 52.3397 12.9743V17.9088C45.3454 19.4719 38.6999 22.9676 33.2679 28.3995C32.0792 29.5883 30.983 30.8353 29.9796 32.1313C29.931 32.1276 29.8824 32.124 29.8328 32.124H16.0319C14.9625 32.124 14.0953 32.991 14.0953 34.0606C14.0953 35.1302 14.9625 35.9973 16.0319 35.9973H27.3444C25.9244 38.3746 24.7795 40.8711 23.908 43.4411H2.83023C1.7608 43.4411 0.893555 44.3081 0.893555 45.3778C0.893555 46.4474 1.7608 47.3144 2.83023 47.3144H22.8136C22.2554 49.7645 21.9351 52.258 21.8524 54.7584H13.2882C12.2188 54.7584 11.3516 55.6255 11.3516 56.6951C11.3516 57.7647 12.2188 58.6317 13.2882 58.6317H21.9142C22.0776 61.1386 22.4807 63.6322 23.1234 66.0757H10.5769C9.50748 66.0757 8.64024 66.9428 8.64024 68.0124C8.64024 69.082 9.50748 69.9491 10.5769 69.9491H24.3594C26.2593 74.9749 29.2284 79.6855 33.2679 83.725C39.6485 90.1056 48.0993 94.1071 57.0634 94.9927C58.3428 95.119 59.6231 95.1816 60.9017 95.1816C68.459 95.1816 75.9202 92.9945 82.2512 88.8717C83.1475 88.288 83.401 87.0882 82.8173 86.1919C82.2335 85.2956 81.0338 85.0421 80.1375 85.6258C66.2792 94.6501 47.7196 92.699 36.0068 80.9862C22.2638 67.2432 22.2638 44.8818 36.0068 31.1386C49.7496 17.3958 72.111 17.3958 85.8541 31.1386C97.5514 42.8361 99.5133 61.3799 90.5188 75.2313C89.9363 76.1284 90.1913 77.328 91.0882 77.9103C91.9856 78.4929 93.1848 78.2378 93.7672 77.3408C98.5729 69.9398 100.736 61.0011 99.8584 52.1708ZM51.2178 6.58488C51.2178 5.08977 52.434 3.87354 53.9291 3.87354H67.8731C69.3682 3.87354 70.5845 5.08977 70.5845 6.58488C70.5845 8.07998 69.3682 9.29621 67.8731 9.29621H67.5257H54.2763H53.9291C52.434 9.29621 51.2178 8.07979 51.2178 6.58488ZM56.213 17.243V13.1696H65.589V17.236C62.4756 16.8657 59.3258 16.868 56.213 17.243Z" fill="#77A3BE"/>
<path d="M87.2239 80.4185C86.7126 80.4185 86.2149 80.6257 85.8549 80.9859C85.4927 81.3461 85.2873 81.8458 85.2873 82.3551C85.2873 82.8644 85.4927 83.3641 85.8549 83.7243C86.2149 84.0865 86.7128 84.2917 87.2239 84.2917C87.7332 84.2917 88.231 84.0865 88.5931 83.7243C88.9533 83.3641 89.1605 82.8644 89.1605 82.3551C89.1605 81.8458 88.9535 81.3461 88.5931 80.9859C88.231 80.6257 87.733 80.4185 87.2239 80.4185Z" fill="#77A3BE"/>
<path d="M60.9303 26.019C44.3644 26.019 30.8869 39.4963 30.8869 56.0624C30.8869 72.6285 44.3644 86.1058 60.9303 86.1058C77.4962 86.1058 90.9737 72.6285 90.9737 56.0624C90.9737 39.4963 77.4962 26.019 60.9303 26.019ZM60.9303 82.2325C46.5 82.2325 34.7602 70.4926 34.7602 56.0624C34.7602 41.6323 46.5 29.8924 60.9303 29.8924C75.3606 29.8924 87.1003 41.6323 87.1003 56.0624C87.1003 70.4926 75.3606 82.2325 60.9303 82.2325Z" fill="#77A3BE"/>
<path d="M73.1815 41.0726L63.5891 50.6647C62.787 50.2681 61.8847 50.044 60.9309 50.044C59.9769 50.044 59.0748 50.2681 58.2726 50.6647L53.9796 46.3717C53.2231 45.6154 51.9972 45.6154 51.2405 46.3717C50.4843 47.128 50.4843 48.3543 51.2405 49.1105L55.5336 53.4035C55.1367 54.2057 54.9129 55.108 54.9129 56.0618C54.9129 59.3801 57.6124 62.0798 60.9309 62.0798C64.2493 62.0798 66.9489 59.3801 66.9489 56.0618C66.9489 55.108 66.7248 54.2057 66.3282 53.4035L75.6389 44.0928L75.9203 43.8114C76.6766 43.0551 76.6766 41.8288 75.9203 41.0726C75.164 40.3163 73.9381 40.3163 73.1815 41.0726ZM60.9309 58.2067C59.7483 58.2067 58.7862 57.2446 58.7862 56.062C58.7862 54.8795 59.7483 53.9174 60.9309 53.9174C62.1134 53.9174 63.0755 54.8795 63.0755 56.062C63.0755 57.2446 62.1134 58.2067 60.9309 58.2067Z" fill="#77A3BE"/>
<path d="M81.637 54.1492H79.8427C78.7733 54.1492 77.906 55.0162 77.906 56.0858C77.906 57.1554 78.7733 58.0225 79.8427 58.0225H81.637C82.7064 58.0225 83.5736 57.1554 83.5736 56.0858C83.5736 55.0162 82.7064 54.1492 81.637 54.1492Z" fill="#77A3BE"/>
<path d="M42.0184 54.1018H40.2243C39.1549 54.1018 38.2876 54.9688 38.2876 56.0384C38.2876 57.1081 39.1549 57.9751 40.2243 57.9751H42.0184C43.0878 57.9751 43.955 57.1081 43.955 56.0384C43.955 54.9688 43.0878 54.1018 42.0184 54.1018Z" fill="#77A3BE"/>
<path d="M60.9551 39.0861C62.0245 39.0861 62.8917 38.2191 62.8917 37.1494V35.3553C62.8917 34.2857 62.0245 33.4187 60.9551 33.4187C59.8857 33.4187 59.0184 34.2857 59.0184 35.3553V37.1494C59.0184 38.2191 59.8857 39.0861 60.9551 39.0861Z" fill="#77A3BE"/>
<path d="M60.9077 73.0381C59.8383 73.0381 58.971 73.9051 58.971 74.9747V76.7688C58.971 77.8384 59.8383 78.7055 60.9077 78.7055C61.9771 78.7055 62.8443 77.8384 62.8443 76.7688V74.9747C62.8443 73.9051 61.9771 73.0381 60.9077 73.0381Z" fill="#77A3BE"/>
<path d="M2.8302 66.0747C2.32086 66.0747 1.82121 66.2819 1.46099 66.6421C1.10078 67.0024 0.893555 67.502 0.893555 68.0113C0.893555 68.5226 1.10058 69.0203 1.46099 69.3806C1.8214 69.7408 2.32086 69.948 2.8302 69.948C3.33953 69.948 3.83919 69.7408 4.19921 69.3806C4.55942 69.0203 4.76684 68.5207 4.76684 68.0113C4.76684 67.502 4.55962 67.0024 4.19921 66.6421C3.83919 66.2819 3.33953 66.0747 2.8302 66.0747Z" fill="#77A3BE"/>
</svg>
