<svg width="101" height="100" viewBox="0 0 101 100" fill="none" xmlns="http://www.w3.org/2000/svg">
<path d="M42.1887 40.2345C36.5133 40.2345 32.4231 44.9837 32.4231 50.7501C32.4231 57.088 37.301 61.2441 44.6848 67.5351C45.9715 68.6314 47.3022 69.7652 48.7153 71.0014C49.0835 71.3234 49.5423 71.4846 50.0012 71.4846C50.4602 71.4846 50.919 71.3236 51.2872 71.0014C52.7003 69.7652 54.0309 68.6314 55.3177 67.5351C62.7015 61.2441 67.5794 57.088 67.5794 50.7501C67.5794 44.9831 63.4882 40.2345 57.8138 40.2345C53.9341 40.2345 51.4733 42.4497 50.0012 44.589C48.5294 42.4497 46.0684 40.2345 42.1887 40.2345ZM51.8848 49.5404C51.8997 49.4865 53.4167 44.1408 57.8138 44.1408C61.1542 44.1408 63.6731 46.9822 63.6731 50.7501C63.6731 55.2843 59.5745 58.7765 52.7843 64.5619C51.8833 65.3297 50.961 66.1154 50.0012 66.9441C49.0415 66.1154 48.1192 65.3295 47.2182 64.5619C40.428 58.7765 36.3293 55.2843 36.3293 50.7501C36.3293 46.9822 38.8483 44.1408 42.1887 44.1408C46.5297 44.1408 48.0503 49.3029 48.1192 49.546C48.3538 50.3913 49.1235 50.9767 50.0012 50.9767C50.8809 50.9767 51.652 50.3886 51.8848 49.5404Z" fill="#77A3BE"/>
<path d="M24.6105 21.8751C25.6892 21.8751 26.5636 21.0006 26.5636 19.9219C26.5636 18.8432 25.6892 17.9688 24.6105 17.9688C23.5318 17.9688 22.6573 18.8432 22.6573 19.9219C22.6573 21.0006 23.5318 21.8751 24.6105 21.8751Z" fill="#77A3BE"/>
<path d="M87.4583 46.452C88.8278 47.4956 90.4636 48.047 92.1888 48.047C96.4966 48.047 100.001 44.5423 100.001 40.2345C100.001 37.7737 98.8776 35.5073 96.9259 34.0217L87.1106 26.4786V1.95313C87.1106 0.874611 86.2362 0 85.1575 0H73.4387C72.36 0 71.4856 0.874611 71.4856 1.95313V14.4705L54.7317 1.59492C53.3621 0.551368 51.7264 0 50.0012 0C48.276 0 46.6402 0.551368 45.2641 1.59981L30.3931 13.0285C29.5379 13.6858 29.3773 14.9121 30.0347 15.7672C30.692 16.6223 31.9183 16.783 32.7736 16.1256L47.6379 4.70196C48.3213 4.18145 49.1385 3.90626 50.0012 3.90626C50.8639 3.90626 51.6811 4.18145 52.358 4.69708L94.5528 37.1245C95.5329 37.8704 96.095 39.004 96.095 40.2345C96.095 42.3884 94.3427 44.1407 92.1888 44.1407C91.3261 44.1407 90.5089 43.8655 89.8325 43.3503C87.6446 41.6677 52.9568 14.9889 51.192 13.6315C50.5149 13.1106 49.5777 13.0903 48.8785 13.5815C48.79 13.6434 10.1802 43.3423 10.1761 43.3456C9.3931 43.9429 8.41419 44.2177 7.41575 44.1206C5.48176 43.9333 4.43254 43.0237 4.0134 41.1706C3.66223 39.618 4.21282 38.0673 5.45676 37.119L18.8414 26.8329C19.6966 26.1756 19.8572 24.9493 19.1998 24.0942C18.5423 23.2391 17.316 23.0784 16.4609 23.7358L3.08274 34.0171C0.613982 35.8991 -0.489145 38.9704 0.20363 42.0325C0.996014 45.536 3.42375 47.6585 7.03782 48.0083C9.01927 48.2022 10.9747 47.6491 12.5451 46.4515L12.5421 46.4477C12.6251 46.3866 12.7384 46.3013 12.8919 46.1841V72.9808C8.42298 74.0527 4.96711 77.6888 4.14192 82.2929C1.56535 84.1148 0.00128545 87.0746 0.00128545 90.2344C0.00128545 95.6191 4.38215 100 9.76693 100H90.2358C95.6206 100 100.001 95.6191 100.001 90.2344C100.001 87.0746 98.4374 84.1148 95.8608 82.2929C95.0354 77.6869 91.5772 74.0496 87.1108 72.98V46.1847L87.4583 46.452ZM75.3919 3.90626H83.2044V23.4766L75.3919 17.4725V3.90626ZM31.2511 96.0939H9.76673C6.53587 96.0939 3.90735 93.4654 3.90735 90.2346C3.90735 88.1476 5.05872 86.2019 6.91204 85.1564C7.46849 84.8425 7.83606 84.2763 7.89681 83.6402C8.27864 79.6298 11.5988 76.5626 15.6263 76.5626C18.1414 76.5626 20.5212 77.8013 21.992 79.8757C22.4529 80.5257 23.2625 80.8308 24.0379 80.6461C24.5384 80.5269 24.9814 80.4689 25.392 80.4689C28.5461 80.4689 31.2127 83.0021 31.251 86.2593C31.0845 87.4336 31.7123 88.2365 32.5267 88.5203C34.0385 89.0469 35.1576 90.4762 35.1576 92.1875C35.1574 94.3416 33.4051 96.0939 31.2511 96.0939ZM64.8871 85.4213C63.6799 86.1043 62.6834 87.0892 61.9914 88.2816H38.0103C37.318 87.0888 36.3219 86.1041 35.1152 85.4213C35.0824 85.0695 35.0305 84.7205 34.9601 84.3734H65.0424C64.9721 84.7203 64.9202 85.0695 64.8871 85.4213ZM38.0152 96.0939C38.6818 94.9441 39.0637 93.6096 39.0637 92.1877H60.9387C60.9387 93.6096 61.3207 94.9441 61.9871 96.0939H38.0152ZM92.1058 83.6402C92.1663 84.2763 92.5341 84.8423 93.0905 85.1564C94.9438 86.2019 96.0952 88.1476 96.0952 90.2346C96.0952 93.4654 93.4667 96.0939 90.2358 96.0939H68.7514C66.5975 96.0939 64.8452 94.3416 64.8452 92.1877C64.8452 90.4744 65.9662 89.0463 67.476 88.5205C68.2975 88.2343 68.9172 87.4269 68.7518 86.2595C68.7901 83.0105 71.4491 80.4691 74.6108 80.4691C75.0213 80.4691 75.4643 80.5271 75.9649 80.6462C76.7397 80.8306 77.5499 80.5261 78.0108 79.8759C79.4817 77.8015 81.8614 76.5628 84.3764 76.5628C88.4024 76.5626 91.7235 79.6263 92.1058 83.6402ZM83.2044 72.7179C80.2854 73.0154 77.5684 74.4121 75.6133 76.6212C75.2721 76.5822 74.9393 76.5626 74.6106 76.5626C71.5292 76.5626 68.6344 78.0353 66.8022 80.4689H33.2004C31.3689 78.0359 28.4736 76.5626 25.3918 76.5626C25.0629 76.5626 24.73 76.5822 24.389 76.6212C22.4339 74.4119 19.7171 73.0154 16.798 72.7179V43.1809C19.6332 41.0003 46.7387 20.1522 50.001 17.6436L83.2044 43.1805V72.7179Z" fill="#77A3BE"/>
</svg>
