<svg width="100" height="100" viewBox="0 0 100 100" fill="none" xmlns="http://www.w3.org/2000/svg">
<path d="M91.0333 80.85C90.3203 80.3098 89.4899 79.9452 88.6096 79.786C87.7293 79.6267 86.8238 79.6772 85.9667 79.9333L63.1 86.6667H50.4333L41.4333 81.6667H58.3333C58.7754 81.6667 59.1993 81.4911 59.5118 81.1785C59.8244 80.8659 60 80.442 60 80V75C59.9967 74.5581 59.8237 74.1345 59.5167 73.8167L56.1833 70.4833C55.9496 70.2542 55.6543 70.0978 55.3333 70.0333L30.3333 65.0333C30.2232 65.014 30.1118 65.0028 30 65H20C19.7887 64.9968 19.5789 65.0364 19.3833 65.1167L13.3333 67.5333V65C13.3345 64.6034 13.1941 64.2193 12.9375 63.9169C12.6809 63.6145 12.3249 63.4135 11.9333 63.35L1.93333 61.6833C1.69402 61.6495 1.45027 61.6661 1.21776 61.7321C0.985255 61.7981 0.769144 61.9121 0.583333 62.0667C0.401325 62.2239 0.255096 62.4183 0.154479 62.6368C0.0538617 62.8553 0.00118825 63.0928 0 63.3333V96.6667C0 97.1087 0.175595 97.5326 0.488155 97.8452C0.800716 98.1577 1.22464 98.3333 1.66667 98.3333C1.75588 98.3361 1.84516 98.3305 1.93333 98.3167L11.9333 96.65C12.3249 96.5865 12.6809 96.3855 12.9375 96.0831C13.1941 95.7807 13.3345 95.3966 13.3333 95V93.3333H18.0667L37.8 99.9167C37.9731 99.9687 38.1526 99.9968 38.3333 100H63.3333C63.5212 100.001 63.7077 99.9668 63.8833 99.9L89.5 90.8667C90.6205 90.4708 91.5907 89.7373 92.2772 88.7673C92.9637 87.7973 93.3326 86.6384 93.3333 85.45C93.3384 84.5564 93.1329 83.6743 92.7332 82.875C92.3336 82.0758 91.7512 81.382 91.0333 80.85ZM10 93.5833L3.33333 94.7V65.3L10 66.4167V93.5833ZM88.4 87.7167L63.05 96.6667H38.6L18.8667 90.0833C18.6935 90.0313 18.5141 90.0032 18.3333 90H13.3333V71.1333L20.3167 68.3333H29.8333L54.1833 73.2L56.6667 75.6833V78.3333H35C34.6324 78.3345 34.2755 78.4571 33.9848 78.6821C33.6941 78.9071 33.486 79.2219 33.3928 79.5775C33.2997 79.9331 33.3267 80.3096 33.4696 80.6482C33.6126 80.9869 33.8635 81.2688 34.1833 81.45L49.1833 89.7833C49.4308 89.9284 49.7131 90.0033 50 90H63.3333C63.4915 90.0036 63.6492 89.9811 63.8 89.9333L86.9167 83.1333C87.2746 83.0245 87.6532 83.0025 88.0213 83.0692C88.3894 83.1359 88.7363 83.2893 89.0333 83.5167C89.3824 83.7776 89.6541 84.1284 89.8196 84.5315C89.9851 84.9347 90.0382 85.3752 89.9732 85.8061C89.9082 86.2371 89.7276 86.6423 89.4506 86.9788C89.1735 87.3152 88.8105 87.5702 88.4 87.7167Z" fill="#77A3BE"/>
<path d="M50 63.3333C64.7033 63.3333 76.6667 47.6317 76.6667 28.3333V8.33333C76.6666 7.96624 76.5454 7.60944 76.3218 7.31832C76.0981 7.0272 75.7847 6.81804 75.43 6.72334L50.43 0.0566693C50.1483 -0.0185642 49.8517 -0.0185642 49.57 0.0566693L24.57 6.72334C24.2153 6.81804 23.9019 7.0272 23.6783 7.31832C23.4546 7.60944 23.3334 7.96624 23.3333 8.33333V28.3333C23.3333 47.6317 35.2967 63.3333 50 63.3333ZM26.6667 9.615L50 3.39167L73.3333 9.615V28.3333C73.3333 45.795 62.8667 60 50 60C37.1333 60 26.6667 45.795 26.6667 28.3333V9.615Z" fill="#77A3BE"/>
<path d="M43.3333 38.3333V43.3333C43.3333 44.2173 43.6845 45.0652 44.3096 45.6903C44.9348 46.3154 45.7826 46.6666 46.6667 46.6666H53.3333C54.2174 46.6666 55.0652 46.3154 55.6904 45.6903C56.3155 45.0652 56.6667 44.2173 56.6667 43.3333V38.3333H61.6667C62.5507 38.3333 63.3986 37.9821 64.0237 37.357C64.6488 36.7319 65 35.884 65 35V28.3333C65 27.4492 64.6488 26.6014 64.0237 25.9763C63.3986 25.3511 62.5507 25 61.6667 25H56.6667V20C56.6667 19.1159 56.3155 18.2681 55.6904 17.6429C55.0652 17.0178 54.2174 16.6666 53.3333 16.6666H46.6667C45.7826 16.6666 44.9348 17.0178 44.3096 17.6429C43.6845 18.2681 43.3333 19.1159 43.3333 20V25H38.3333C37.4493 25 36.6014 25.3511 35.9763 25.9763C35.3512 26.6014 35 27.4492 35 28.3333V35C35 35.884 35.3512 36.7319 35.9763 37.357C36.6014 37.9821 37.4493 38.3333 38.3333 38.3333H43.3333ZM38.3333 28.3333H43.3333C44.2174 28.3333 45.0652 27.9821 45.6904 27.357C46.3155 26.7319 46.6667 25.884 46.6667 25V20H53.3333V25C53.3333 25.884 53.6845 26.7319 54.3096 27.357C54.9348 27.9821 55.7826 28.3333 56.6667 28.3333H61.6667V35H56.6667C55.7826 35 54.9348 35.3511 54.3096 35.9763C53.6845 36.6014 53.3333 37.4492 53.3333 38.3333V43.3333H46.6667V38.3333C46.6667 37.4492 46.3155 36.6014 45.6904 35.9763C45.0652 35.3511 44.2174 35 43.3333 35H38.3333V28.3333Z" fill="#77A3BE"/>
<path d="M83.3333 10H86.6667V6.66667H90V3.33333H86.6667V0H83.3333V3.33333H80V6.66667H83.3333V10Z" fill="#77A3BE"/>
<path d="M100 13.3333H96.6667V10H93.3333V13.3333H90V16.6667H93.3333V20H96.6667V16.6667H100V13.3333Z" fill="#77A3BE"/>
<path d="M76.6666 51.6666V55H73.3333V58.3333H76.6666V61.6666H80V58.3333H83.3333V55H80V51.6666H76.6666Z" fill="#77A3BE"/>
<path d="M90 41.6666H86.6666V45H83.3333V48.3333H86.6666V51.6666H90V48.3333H93.3333V45H90V41.6666Z" fill="#77A3BE"/>
<path d="M13.3333 10H16.6667V6.66667H20V3.33333H16.6667V0H13.3333V3.33333H10V6.66667H13.3333V10Z" fill="#77A3BE"/>
<path d="M3.33333 20H6.66667V16.6667H10V13.3333H6.66667V10H3.33333V13.3333H0V16.6667H3.33333V20Z" fill="#77A3BE"/>
<path d="M20 51.6666V55H16.6667V58.3333H20V61.6666H23.3333V58.3333H26.6667V55H23.3333V51.6666H20Z" fill="#77A3BE"/>
<path d="M13.3333 51.6666V48.3333H16.6667V45H13.3333V41.6666H9.99999V45H6.66666V48.3333H9.99999V51.6666H13.3333Z" fill="#77A3BE"/>
</svg>
