<svg width="141" height="141" viewBox="0 0 141 141" fill="none" xmlns="http://www.w3.org/2000/svg">
<circle cx="70.3166" cy="70.3166" r="70.3166" fill="white"/>
<path d="M98.9035 59.2743C104.635 59.2743 109.282 54.6278 109.282 48.896C109.282 43.1641 104.635 38.5176 98.9035 38.5176C93.1717 38.5176 88.5251 43.1641 88.5251 48.896C88.5251 54.6278 93.1717 59.2743 98.9035 59.2743Z" fill="#E48080"/>
<path d="M96.3086 48.897V87.8159C96.3086 93.3209 94.1218 98.6005 90.2291 102.493C86.3365 106.386 81.0569 108.573 75.5519 108.573V113.762C82.4332 113.762 89.0326 111.028 93.8984 106.162C98.7642 101.297 101.498 94.6972 101.498 87.8159V48.897H96.3086Z" fill="#77A3BE"/>
<path d="M98.9034 54.0849C101.769 54.0849 104.093 51.7616 104.093 48.8957C104.093 46.0298 101.769 43.7065 98.9034 43.7065C96.0375 43.7065 93.7142 46.0298 93.7142 48.8957C93.7142 51.7616 96.0375 54.0849 98.9034 54.0849Z" fill="#DFDFDD"/>
<path d="M75.5522 85.2207C72.7298 85.2207 69.9708 86.0576 67.6241 87.6257C65.2773 89.1937 63.4483 91.4224 62.3682 94.03C61.2881 96.6375 61.0055 99.5068 61.5561 102.275C62.1067 105.043 63.4659 107.586 65.4616 109.582C67.4573 111.577 70 112.936 72.7682 113.487C75.5364 114.038 78.4056 113.755 81.0132 112.675C83.6207 111.595 85.8495 109.766 87.4175 107.419C88.9855 105.072 89.8225 102.313 89.8225 99.491C89.8225 95.7063 88.319 92.0766 85.6428 89.4004C82.9666 86.7242 79.3369 85.2207 75.5522 85.2207ZM75.5522 108.572C73.7561 108.572 72.0004 108.039 70.507 107.042C69.0136 106.044 67.8497 104.625 67.1624 102.966C66.475 101.307 66.2952 99.4809 66.6456 97.7193C66.996 95.9578 67.8609 94.3397 69.1309 93.0697C70.4009 91.7997 72.019 90.9348 73.7806 90.5844C75.5421 90.234 77.368 90.4138 79.0274 91.1011C80.6867 91.7885 82.105 92.9524 83.1028 94.4458C84.1007 95.9392 84.6333 97.6949 84.6333 99.491C84.6333 101.899 83.6765 104.209 81.9735 105.912C80.2705 107.615 77.9606 108.572 75.5522 108.572Z" fill="#77A3BE"/>
<path d="M67.4645 103.619C64.7209 102.242 62.4305 100.1 61.2939 98.9287C61.2868 99.1154 61.2819 99.3027 61.2819 99.4911C61.2822 102.982 62.5618 106.351 64.8787 108.963C67.1956 111.574 70.3891 113.245 73.855 113.66C73.9037 111.989 73.9489 110.062 73.9547 108.429C72.5753 108.182 71.2718 107.619 70.1459 106.785C69.02 105.951 68.1023 104.867 67.4645 103.619Z" fill="#77A3BE"/>
<path d="M44.4171 38.5176H47.0116C47.6998 38.5176 48.3597 38.7909 48.8463 39.2775C49.3329 39.7641 49.6062 40.424 49.6062 41.1122C49.6062 41.8003 49.3329 42.4602 48.8463 42.9468C48.3597 43.4334 47.6998 43.7068 47.0116 43.7068H44.4171V38.5176Z" fill="#77A3BE"/>
<path d="M57.39 38.5176H59.9846V43.7068H57.39C56.7019 43.7068 56.0419 43.4334 55.5553 42.9468C55.0688 42.4602 54.7954 41.8003 54.7954 41.1122C54.7954 40.424 55.0688 39.7641 55.5553 39.2775C56.0419 38.7909 56.7019 38.5176 57.39 38.5176Z" fill="#77A3BE"/>
<path d="M40.5254 38.5181C38.805 38.5181 37.1552 39.2015 35.9387 40.4179C34.7223 41.6344 34.0389 43.2842 34.0389 45.0046V59.2748H39.2281V45.0046C39.2281 44.6605 39.3647 44.3305 39.608 44.0872C39.8513 43.8439 40.1813 43.7073 40.5254 43.7073H44.4173V38.5181H40.5254Z" fill="#E48080"/>
<path d="M63.8766 38.5176H59.9847V43.7068H63.8766C64.2207 43.7068 64.5507 43.8434 64.794 44.0867C65.0373 44.33 65.1739 44.66 65.1739 45.0041V59.2743H70.3631V45.0041C70.3631 43.2837 69.6797 41.6339 68.4633 40.4174C67.2468 39.201 65.597 38.5176 63.8766 38.5176Z" fill="#E48080"/>
<path d="M75.5522 108.571C70.0472 108.571 64.7676 106.384 60.875 102.492C56.9823 98.5991 54.7955 93.3195 54.7955 87.8145V79.8453C59.1179 79.2208 63.0707 77.0599 65.9298 73.7584C68.7888 70.4569 70.3626 66.2359 70.363 61.8685V59.2739H65.1738V61.8685C65.1738 65.3092 63.807 68.6089 61.3741 71.0418C58.9412 73.4747 55.6415 74.8415 52.2009 74.8415C48.7602 74.8415 45.4605 73.4747 43.0276 71.0418C40.5947 68.6089 39.2279 65.3092 39.2279 61.8685V59.2739H34.0387V61.8685C34.0391 66.2359 35.6129 70.4569 38.472 73.7584C41.331 77.0599 45.2838 79.2208 49.6063 79.8453V87.8145C49.6063 94.6958 52.3398 101.295 57.2057 106.161C62.0715 111.027 68.6709 113.76 75.5522 113.76" fill="#77A3BE"/>
</svg>
