<svg width="141" height="141" viewBox="0 0 141 141" fill="none" xmlns="http://www.w3.org/2000/svg">
<circle cx="70.3166" cy="70.3166" r="70.3166" fill="white"/>
<path d="M64.6726 80.7705L65.7594 87.0519C65.7333 87.3872 65.6765 87.7243 65.5535 87.7312C65.3076 87.7451 65.1272 87.3102 65.0169 86.7601L64.6726 80.7705Z" fill="#D9CDBC"/>
<path d="M70.8668 76.2933L74.9042 81.2253C75.1554 81.4395 75.4208 81.637 75.478 81.57C75.5922 81.436 75.3573 81.0332 75.0101 80.5924L70.8668 76.2933Z" fill="#D9CDBC"/>
<path d="M92.9913 83.2481L85.5038 80.6534C84.9559 80.4641 84.3475 80.6167 83.9551 81.0419C80.6352 84.8701 75.8425 87.1191 70.7645 87.2316C65.688 87.1191 60.8965 84.8714 57.5768 81.0449C57.1843 80.6197 56.5759 80.4671 56.0281 80.6564L48.5406 83.2511C40.9314 85.8847 35.8309 93.0268 35.8301 101.049V103.177C35.8301 103.977 36.4818 104.626 37.2857 104.626H104.243C105.047 104.626 105.699 103.977 105.699 103.177V101.049C105.699 93.0265 100.6 85.8831 92.9913 83.2481Z" fill="#77A3BE"/>
<path d="M88.4414 55.3941C88.4414 55.2694 88.4414 55.1447 88.4414 55.0172C88.4414 45.4099 80.6553 37.6216 71.0508 37.6216C61.4463 37.6216 53.6603 45.4099 53.6603 55.0172C53.6603 55.1418 53.6603 55.2694 53.6603 55.3941C51.5812 57.0366 50.4875 59.6295 50.7619 62.2653C50.7619 66.2982 52.5416 69.3627 54.9328 69.5134C57.5616 78.246 63.9178 84.0098 71.0508 84.0098C78.1838 84.0098 84.5372 78.2403 87.169 69.5134C89.5602 69.3627 91.3399 66.2981 91.3399 62.2653C91.6142 59.6295 90.5205 57.0366 88.4414 55.3941Z" fill="#9CC5DE"/>
<path d="M69.3585 68.9465C69.3585 67.7067 69.5123 66.7187 69.8199 65.9823C70.1275 65.2459 70.7334 64.4397 71.6376 63.5635C72.551 62.6779 73.129 62.0488 73.3713 61.6759C73.7442 61.1073 73.9306 60.4921 73.9306 59.8303C73.9306 58.9541 73.7115 58.2877 73.2734 57.8309C72.8447 57.3649 72.2108 57.1318 71.3719 57.1318C70.5703 57.1318 69.9225 57.3602 69.4284 57.8169C68.9437 58.2644 68.7014 58.8749 68.7014 59.6486H65.3038C65.3225 57.9987 65.8817 56.6937 66.9816 55.7337C68.0909 54.7736 69.5543 54.2935 71.3719 54.2935C73.2455 54.2935 74.7042 54.7689 75.7482 55.7197C76.8015 56.6704 77.3282 57.9987 77.3282 59.7045C77.3282 61.2238 76.6197 62.7199 75.2029 64.1926L73.4832 65.8844C72.868 66.5835 72.551 67.6042 72.5324 68.9465H69.3585ZM69.1208 73.2948C69.1208 72.7448 69.2933 72.3021 69.6382 71.9665C69.9831 71.6216 70.4491 71.4492 71.0363 71.4492C71.6329 71.4492 72.1036 71.6263 72.4485 71.9805C72.7934 72.3254 72.9658 72.7635 72.9658 73.2948C72.9658 73.8075 72.7981 74.2362 72.4625 74.5811C72.1269 74.926 71.6515 75.0984 71.0363 75.0984C70.4211 75.0984 69.9458 74.926 69.6102 74.5811C69.284 74.2362 69.1208 73.8075 69.1208 73.2948Z" fill="#E48080"/>
</svg>
