<svg width="38" height="38" viewBox="0 0 38 38" fill="none" xmlns="http://www.w3.org/2000/svg">
<circle cx="19" cy="19" r="18.5" stroke="#333333"/>
<path fill-rule="evenodd" clip-rule="evenodd" d="M9.07383 14.2234C8.98371 15.7821 8.96741 20.9544 9.07381 22.6902C9.21035 24.9179 9.94552 28.6279 14.5647 28.8898C18.8513 29.1329 22.6419 28.955 24.059 28.7835C25.6886 28.5863 28.3032 27.7916 28.7708 23.5759C29.0969 20.6355 29.0201 17.0575 28.8769 14.5068C28.7715 12.6292 27.6773 9.17944 23.1024 9.05117C19.3118 8.94489 15.8047 9.01575 14.2815 9.15746C13.0971 9.26765 9.32164 9.93683 9.07383 14.2234ZM10.2575 15.1503C10.2305 16.5583 10.1301 21.8008 10.2637 23.1731C10.2676 23.2137 10.2716 23.2549 10.2756 23.2969C10.4267 24.8785 10.6733 27.4588 14.6116 27.6822C18.6544 27.9114 23.7651 27.835 24.8712 27.4529C25.9772 27.0708 27.3121 26.4976 27.6553 23.4024C27.93 20.9263 27.7698 16.2313 27.6553 14.1933C27.5706 12.6838 26.8697 10.3492 23.4218 10.2575C19.1121 10.1428 14.6582 10.2109 13.6284 10.3638C12.5987 10.5166 10.3205 11.1746 10.2637 14.8047C10.2637 14.8284 10.2613 14.9509 10.2575 15.1503Z" fill="#333333"/>
<path fill-rule="evenodd" clip-rule="evenodd" d="M18.7937 23.8575C21.6112 23.8575 23.8951 21.5736 23.8951 18.7562C23.8951 15.9387 21.6112 13.6548 18.7937 13.6548C15.9763 13.6548 13.6924 15.9387 13.6924 18.7562C13.6924 21.5736 15.9763 23.8575 18.7937 23.8575ZM18.7955 22.511C20.87 22.511 22.5518 20.8293 22.5518 18.7548C22.5518 16.6802 20.87 14.9985 18.7955 14.9985C16.721 14.9985 15.0392 16.6802 15.0392 18.7548C15.0392 20.8293 16.721 22.511 18.7955 22.511Z" fill="#333333"/>
<circle cx="24.1432" cy="13.4777" r="1.16906" fill="#333333"/>
</svg>
