<?xml version="1.0" encoding="utf-8"?>
<!-- Generator: Adobe Illustrator 22.0.1, SVG Export Plug-In . SVG Version: 6.00 Build 0)  -->
<svg version="1.1" id="Слой_1" xmlns="http://www.w3.org/2000/svg" xmlns:xlink="http://www.w3.org/1999/xlink" x="0px" y="0px"
	 width="69px" height="69px" viewBox="0 0 69 69" style="enable-background:new 0 0 69 69;" xml:space="preserve">
<style type="text/css">
	.st0{clip-path:url(#SVGID_2_);}
	.st1{fill:#8CAFF7;}
	.st2{fill:#5F86D6;}
	.st3{fill:#4875C5;}
	.st4{fill:#333333;}
</style>
<g>
	<defs>
		<rect id="SVGID_1_" width="69" height="69"/>
	</defs>
	<clipPath id="SVGID_2_">
		<use xlink:href="#SVGID_1_"  style="overflow:visible;"/>
	</clipPath>
	<g class="st0">
		<path class="st1" d="M21.2,8.8C21.2,4,25.2,0,30,0h17.6v9c0,9.8-7.9,17.7-17.6,17.7h-8.8V8.8z"/>
		<path class="st2" d="M60.2,21.1c4.9,0,8.8,4,8.8,8.8v17.7h-9c-9.7,0-17.6-7.9-17.6-17.7v-8.8H60.2z"/>
		<path class="st2" d="M47.7,60.2c0,4.9-3.9,8.8-8.8,8.8H21.2v-9c0-9.8,7.9-17.7,17.6-17.7h8.8V60.2z"/>
		<path class="st2" d="M8.8,47.5c-4.9,0-8.8-4-8.8-8.8V21h9c9.7,0,17.6,7.9,17.6,17.7v8.8H8.8z"/>
	</g>
</g>
<path class="st3" d="M88.5,11.4h2.4v16.4h9.1V11.4h2.4v16.4h1.9l-0.2,6.5h-2.2v-4.4H88.5V11.4z M112.9,30c-1.9,0-3.4-0.6-4.5-1.8
	c-1.2-1.2-1.7-2.9-1.7-4.9v-0.4c0-1.4,0.3-2.6,0.8-3.6c0.5-1.1,1.2-1.9,2.2-2.5c0.9-0.6,1.9-0.9,3-0.9c1.8,0,3.2,0.6,4.1,1.8
	c1,1.2,1.5,2.8,1.5,5v1h-9.3c0,1.3,0.4,2.4,1.2,3.3c0.8,0.8,1.7,1.2,2.9,1.2c0.8,0,1.5-0.2,2.1-0.5c0.6-0.3,1.1-0.8,1.5-1.3l1.4,1.1
	C116.9,29.1,115.2,30,112.9,30z M112.6,17.7c-0.9,0-1.7,0.3-2.4,1c-0.6,0.7-1,1.6-1.2,2.9h6.8v-0.2c-0.1-1.2-0.4-2.1-1-2.8
	C114.3,18.1,113.6,17.7,112.6,17.7z M132.4,29.8H130v-5.8h-6.3v5.8h-2.3V16.1h2.3V22h6.3v-5.9h2.3V29.8z M146.5,18h-4.6v11.8h-2.3
	V18h-4.5v-1.9h11.4V18z M160.6,23.1c0,2.1-0.5,3.8-1.4,5c-1,1.3-2.2,1.9-3.9,1.9c-1.7,0-3-0.5-3.9-1.6V35h-2.3V16.1h2.1l0.1,1.5
	c1-1.2,2.3-1.8,4-1.8c1.6,0,2.9,0.6,3.9,1.9c1,1.2,1.4,3,1.4,5.2V23.1z M158.3,22.8c0-1.5-0.3-2.8-1-3.7c-0.7-0.9-1.6-1.3-2.7-1.3
	c-1.4,0-2.5,0.6-3.2,1.9v6.5c0.7,1.2,1.8,1.9,3.2,1.9c1.1,0,2-0.4,2.7-1.3C157.9,25.9,158.3,24.6,158.3,22.8z M166.4,20.8h3.6
	c1.6,0,2.8,0.4,3.7,1.2c0.9,0.8,1.4,1.9,1.4,3.2c0,1.4-0.5,2.5-1.4,3.3c-0.9,0.8-2.2,1.2-3.7,1.2h-5.8V16.1h2.3V20.8z M179.9,29.8
	h-2.4V16.1h2.4V29.8z M166.4,22.7v5.1h3.5c0.9,0,1.6-0.2,2-0.7c0.5-0.5,0.7-1.1,0.7-1.9c0-0.8-0.2-1.4-0.7-1.9
	c-0.5-0.5-1.1-0.7-2-0.8H166.4z M191.2,29.8V11.4h6c2,0,3.5,0.4,4.5,1.2c1,0.8,1.5,2,1.5,3.7c0,0.9-0.2,1.6-0.7,2.3
	c-0.5,0.7-1.2,1.2-2,1.5c1,0.3,1.8,0.8,2.3,1.6c0.6,0.8,0.9,1.7,0.9,2.8c0,1.7-0.5,2.9-1.6,3.9c-1.1,0.9-2.6,1.4-4.5,1.4H191.2z
	 M193.7,21.1v6.6h4c1.1,0,2-0.3,2.7-0.9c0.7-0.6,1-1.4,1-2.4c0-2.2-1.2-3.3-3.6-3.3H193.7z M193.7,19.2h3.7c1.1,0,1.9-0.3,2.5-0.8
	c0.6-0.5,1-1.3,1-2.2c0-1-0.3-1.7-0.9-2.2c-0.6-0.5-1.5-0.7-2.7-0.7h-3.6V19.2z M206.6,22.8c0-1.3,0.3-2.5,0.8-3.6
	c0.5-1.1,1.3-1.9,2.2-2.5c0.9-0.6,2-0.9,3.2-0.9c1.9,0,3.4,0.6,4.5,1.9c1.2,1.3,1.7,3,1.7,5.1v0.2c0,1.3-0.3,2.5-0.8,3.6
	c-0.5,1.1-1.2,1.9-2.2,2.5c-0.9,0.6-2,0.9-3.3,0.9c-1.9,0-3.4-0.6-4.5-1.9c-1.1-1.3-1.7-3-1.7-5.1V22.8z M209,23.1
	c0,1.5,0.3,2.7,1,3.7c0.7,0.9,1.7,1.4,2.8,1.4c1.2,0,2.1-0.5,2.8-1.4c0.7-0.9,1-2.2,1-3.9c0-1.5-0.4-2.7-1.1-3.6
	c-0.7-0.9-1.7-1.4-2.8-1.4c-1.2,0-2.1,0.5-2.8,1.4C209.3,20,209,21.4,209,23.1z M227.8,28.1c0.8,0,1.6-0.3,2.2-0.8
	c0.6-0.5,1-1.1,1-1.9h2.2c0,0.8-0.3,1.5-0.8,2.2c-0.5,0.7-1.2,1.3-2,1.7c-0.8,0.4-1.7,0.6-2.6,0.6c-1.9,0-3.3-0.6-4.4-1.9
	c-1.1-1.2-1.6-2.9-1.6-5.1v-0.4c0-1.3,0.2-2.5,0.7-3.6c0.5-1,1.2-1.8,2.1-2.4c0.9-0.6,2-0.9,3.2-0.9c1.5,0,2.8,0.5,3.8,1.4
	c1,0.9,1.6,2.1,1.6,3.6H231c-0.1-0.9-0.4-1.6-1-2.2c-0.6-0.6-1.3-0.9-2.2-0.9c-1.2,0-2.1,0.4-2.8,1.3c-0.6,0.9-1,2.1-1,3.7v0.4
	c0,1.6,0.3,2.8,1,3.6C225.6,27.7,226.6,28.1,227.8,28.1z M241.6,28.1c0.8,0,1.6-0.3,2.2-0.8c0.6-0.5,1-1.1,1-1.9h2.2
	c0,0.8-0.3,1.5-0.8,2.2c-0.5,0.7-1.2,1.3-2,1.7c-0.8,0.4-1.7,0.6-2.6,0.6c-1.9,0-3.3-0.6-4.4-1.9c-1.1-1.2-1.6-2.9-1.6-5.1v-0.4
	c0-1.3,0.2-2.5,0.7-3.6c0.5-1,1.2-1.8,2.1-2.4c0.9-0.6,2-0.9,3.2-0.9c1.5,0,2.8,0.5,3.8,1.4c1,0.9,1.6,2.1,1.6,3.6h-2.2
	c-0.1-0.9-0.4-1.6-1-2.2c-0.6-0.6-1.3-0.9-2.2-0.9c-1.2,0-2.1,0.4-2.8,1.3c-0.6,0.9-1,2.1-1,3.7v0.4c0,1.6,0.3,2.8,1,3.6
	C239.4,27.7,240.4,28.1,241.6,28.1z M260,18h-4.6v11.8h-2.3V18h-4.5v-1.9H260V18z M270.8,29.8c-0.1-0.3-0.2-0.7-0.3-1.4
	c-1.1,1.1-2.4,1.7-3.9,1.7c-1.3,0-2.5-0.4-3.3-1.1c-0.9-0.8-1.3-1.7-1.3-2.9c0-1.4,0.5-2.5,1.6-3.3c1.1-0.8,2.6-1.2,4.6-1.2h2.3
	v-1.1c0-0.8-0.2-1.5-0.7-1.9c-0.5-0.5-1.2-0.7-2.2-0.7c-0.8,0-1.5,0.2-2.1,0.6c-0.6,0.4-0.8,0.9-0.8,1.5h-2.4c0-0.7,0.2-1.3,0.7-2
	c0.5-0.6,1.1-1.1,2-1.5c0.8-0.4,1.7-0.6,2.7-0.6c1.6,0,2.8,0.4,3.7,1.2c0.9,0.8,1.4,1.9,1.4,3.2v6.3c0,1.3,0.2,2.3,0.5,3v0.2H270.8z
	 M266.9,28c0.7,0,1.4-0.2,2.1-0.6c0.7-0.4,1.1-0.9,1.4-1.5v-2.8h-1.8c-2.9,0-4.3,0.8-4.3,2.5c0,0.7,0.2,1.3,0.7,1.7
	C265.5,27.8,266.2,28,266.9,28z M287.9,29.8h-2.3v-5.8h-6.3v5.8h-2.4V16.1h2.4V22h6.3v-5.9h2.3V29.8z M291.3,22.8
	c0-1.3,0.3-2.5,0.8-3.6c0.5-1.1,1.3-1.9,2.2-2.5c0.9-0.6,2-0.9,3.2-0.9c1.9,0,3.4,0.6,4.5,1.9c1.2,1.3,1.7,3,1.7,5.1v0.2
	c0,1.3-0.3,2.5-0.8,3.6c-0.5,1.1-1.2,1.9-2.2,2.5c-0.9,0.6-2,0.9-3.3,0.9c-1.9,0-3.4-0.6-4.5-1.9c-1.1-1.3-1.7-3-1.7-5.1V22.8z
	 M293.6,23.1c0,1.5,0.4,2.7,1,3.7c0.7,0.9,1.7,1.4,2.8,1.4c1.2,0,2.1-0.5,2.8-1.4c0.7-0.9,1-2.2,1-3.9c0-1.5-0.4-2.7-1.1-3.6
	c-0.7-0.9-1.7-1.4-2.8-1.4c-1.2,0-2.1,0.5-2.8,1.4C294,20,293.6,21.4,293.6,23.1z M307.1,29.8V16.1h5.3c1.8,0,3.2,0.3,4.2,1
	c1,0.6,1.5,1.6,1.5,2.8c0,0.6-0.2,1.2-0.6,1.7c-0.4,0.5-0.9,0.9-1.7,1.2c0.8,0.2,1.5,0.6,2,1.1c0.5,0.6,0.8,1.2,0.8,2
	c0,1.3-0.5,2.2-1.4,2.9c-0.9,0.7-2.2,1-3.9,1H307.1z M309.5,23.7v4.1h3.9c1,0,1.7-0.2,2.2-0.5c0.5-0.4,0.7-0.9,0.7-1.5
	c0-1.4-1-2-3-2H309.5z M309.5,21.9h3c2.2,0,3.3-0.6,3.3-1.9c0-1.3-1-1.9-3.1-2h-3.2V21.9z M333.2,16.1v13.7h-2.3V18h-4.7l-0.3,5.1
	c-0.2,2.4-0.5,4-1.2,5c-0.6,1-1.6,1.5-3,1.6h-0.9v-2.1l0.7-0.1c0.8-0.1,1.3-0.5,1.6-1.3c0.3-0.8,0.5-2.3,0.6-4.4l0.3-5.8H333.2z
	 M342.8,30c-1.9,0-3.4-0.6-4.5-1.8c-1.2-1.2-1.7-2.9-1.7-4.9v-0.4c0-1.4,0.3-2.6,0.8-3.6c0.5-1.1,1.2-1.9,2.2-2.5
	c0.9-0.6,1.9-0.9,3-0.9c1.8,0,3.2,0.6,4.1,1.8c1,1.2,1.5,2.8,1.5,5v1h-9.3c0,1.3,0.4,2.4,1.2,3.3c0.8,0.8,1.7,1.2,2.9,1.2
	c0.8,0,1.5-0.2,2.1-0.5c0.6-0.3,1.1-0.8,1.5-1.3l1.4,1.1C346.9,29.1,345.1,30,342.8,30z M342.6,17.7c-0.9,0-1.7,0.3-2.4,1
	c-0.6,0.7-1,1.6-1.2,2.9h6.8v-0.2c-0.1-1.2-0.4-2.1-1-2.8C344.3,18.1,343.5,17.7,342.6,17.7z M362.3,29.8H360v-5.8h-6.3v5.8h-2.4
	V16.1h2.4V22h6.3v-5.9h2.3V29.8z M375.2,16.1h2.3v13.7h-2.3v-10l-6.3,10h-2.3V16.1h2.3v10L375.2,16.1z M392,16.1v13.7h-2.4v-5.3
	h-3.5l-3.2,5.3h-2.5l3.4-5.7c-0.9-0.3-1.6-0.8-2-1.5c-0.5-0.7-0.7-1.5-0.7-2.4c0-1.2,0.5-2.2,1.4-3c0.9-0.8,2.2-1.2,3.8-1.2H392z
	 M383.4,20.3c0,0.7,0.2,1.2,0.7,1.6c0.5,0.4,1.1,0.6,1.8,0.6h3.7V18h-3.4c-0.9,0-1.6,0.2-2.1,0.6C383.7,19,383.4,19.6,383.4,20.3z"
	/>
<path class="st4" d="M92.8,41.6l5.9,12.8h-1l-5.2-11.2l-5.1,11.2h-1l5.9-12.8H92.8z M107.3,53.4c-0.5,0.4-1,0.7-1.5,0.8
	c-0.5,0.2-1.1,0.3-1.7,0.3c-0.6,0-1.2-0.1-1.7-0.3c-0.5-0.2-1-0.5-1.3-0.9c-0.4-0.4-0.7-0.9-0.9-1.4c-0.2-0.5-0.3-1.1-0.3-1.8
	c0-0.6,0.1-1.2,0.3-1.7c0.2-0.5,0.5-1,0.8-1.4c0.3-0.4,0.8-0.7,1.2-0.9c0.5-0.2,1-0.3,1.5-0.3c0.5,0,0.9,0.1,1.3,0.2
	c0.4,0.2,0.8,0.4,1.2,0.7c0.4,0.3,0.6,0.7,0.9,1.3c0.2,0.5,0.3,1.1,0.3,1.8h-6.6c0,0.1,0,0.2,0,0.2v0.2c0,0.5,0.1,0.9,0.3,1.3
	c0.2,0.4,0.4,0.8,0.7,1.1c0.3,0.3,0.7,0.5,1.1,0.7c0.4,0.2,0.8,0.3,1.3,0.3c0.6,0,1.1-0.1,1.6-0.3c0.5-0.2,1-0.5,1.6-1V53.4z
	 M106.3,49.1c-0.3-1.6-1.2-2.5-2.7-2.5c-0.3,0-0.7,0.1-1,0.2c-0.3,0.1-0.6,0.3-0.8,0.5c-0.2,0.2-0.4,0.5-0.6,0.8
	c-0.2,0.3-0.3,0.6-0.4,1H106.3z M115.6,46v8.4h-0.9v-4.2c-0.3,0.4-0.7,0.7-1.1,0.9c-0.4,0.2-0.9,0.3-1.5,0.3c-0.4,0-0.7-0.1-1.1-0.2
	c-0.4-0.1-0.7-0.3-1-0.5c-0.3-0.3-0.5-0.6-0.7-1c-0.2-0.4-0.3-1-0.3-1.7V46h0.9v2c0,0.4,0,0.8,0.1,1.1c0.1,0.3,0.2,0.6,0.4,0.8
	c0.2,0.2,0.4,0.4,0.7,0.5c0.3,0.1,0.7,0.2,1.1,0.2c0.3,0,0.5,0,0.8-0.1c0.3-0.1,0.5-0.2,0.7-0.3s0.4-0.3,0.6-0.5
	c0.2-0.2,0.3-0.5,0.3-0.8v-3H115.6z M125.3,53.4c-0.5,0.4-1,0.7-1.5,0.8c-0.5,0.2-1.1,0.3-1.7,0.3c-0.6,0-1.2-0.1-1.7-0.3
	c-0.5-0.2-1-0.5-1.3-0.9c-0.4-0.4-0.7-0.9-0.9-1.4c-0.2-0.5-0.3-1.1-0.3-1.8c0-0.6,0.1-1.2,0.3-1.7c0.2-0.5,0.5-1,0.8-1.4
	c0.3-0.4,0.8-0.7,1.2-0.9c0.5-0.2,1-0.3,1.5-0.3c0.4,0,0.9,0.1,1.3,0.2c0.4,0.2,0.8,0.4,1.2,0.7c0.4,0.3,0.6,0.7,0.9,1.3
	c0.2,0.5,0.3,1.1,0.3,1.8h-6.6c0,0.1,0,0.2,0,0.2v0.2c0,0.5,0.1,0.9,0.3,1.3c0.2,0.4,0.4,0.8,0.7,1.1c0.3,0.3,0.7,0.5,1.1,0.7
	c0.4,0.2,0.8,0.3,1.3,0.3c0.6,0,1.1-0.1,1.6-0.3c0.5-0.2,1-0.5,1.6-1V53.4z M124.4,49.1c-0.3-1.6-1.2-2.5-2.7-2.5
	c-0.3,0-0.7,0.1-1,0.2c-0.3,0.1-0.6,0.3-0.8,0.5c-0.2,0.2-0.4,0.5-0.6,0.8c-0.2,0.3-0.3,0.6-0.4,1H124.4z M134.6,46v8.4h-0.9v-4
	h-5.2v4h-0.9V46h0.9v3.7h5.2V46H134.6z M143.4,47.5l-5.6,6.9h-0.5V46h0.9v6.9l5.6-6.9h0.5v8.4h-0.9V47.5z M154,53.4
	c-0.5,0.4-1,0.7-1.5,0.8c-0.5,0.2-1.1,0.3-1.7,0.3c-0.6,0-1.2-0.1-1.7-0.3c-0.5-0.2-1-0.5-1.3-0.9c-0.4-0.4-0.7-0.9-0.9-1.4
	s-0.3-1.1-0.3-1.8c0-0.6,0.1-1.2,0.3-1.7c0.2-0.5,0.5-1,0.8-1.4c0.3-0.4,0.8-0.7,1.2-0.9c0.5-0.2,1-0.3,1.5-0.3
	c0.5,0,0.9,0.1,1.3,0.2c0.4,0.2,0.8,0.4,1.2,0.7c0.4,0.3,0.6,0.7,0.9,1.3c0.2,0.5,0.3,1.1,0.3,1.8h-6.6c0,0.1,0,0.2,0,0.2v0.2
	c0,0.5,0.1,0.9,0.3,1.3c0.2,0.4,0.4,0.8,0.7,1.1c0.3,0.3,0.7,0.5,1.1,0.7c0.4,0.2,0.8,0.3,1.3,0.3c0.6,0,1.1-0.1,1.6-0.3
	c0.5-0.2,1-0.5,1.6-1V53.4z M153.1,49.1c-0.3-1.6-1.2-2.5-2.7-2.5c-0.3,0-0.7,0.1-1,0.2c-0.3,0.1-0.6,0.3-0.8,0.5
	c-0.2,0.2-0.4,0.5-0.6,0.8c-0.2,0.3-0.3,0.6-0.4,1H153.1z M161.9,54.4V46h2.8c0.5,0,0.9,0.1,1.3,0.2c0.4,0.1,0.7,0.3,0.9,0.5
	c0.2,0.2,0.4,0.4,0.5,0.7c0.1,0.2,0.2,0.5,0.2,0.7c0,0.2,0,0.4-0.1,0.6c-0.1,0.2-0.2,0.4-0.3,0.6c-0.1,0.2-0.3,0.3-0.5,0.5
	c-0.2,0.1-0.4,0.2-0.6,0.3c0.6,0.1,1.1,0.3,1.4,0.7c0.3,0.4,0.5,0.8,0.5,1.4c0,0.4-0.1,0.7-0.2,0.9c-0.1,0.3-0.4,0.5-0.6,0.7
	c-0.3,0.2-0.6,0.3-0.9,0.4c-0.4,0.1-0.8,0.1-1.2,0.1H161.9z M162.8,46.7v3h1.7c0.4,0,0.7,0,0.9-0.1c0.3-0.1,0.5-0.2,0.7-0.4
	c0.2-0.1,0.3-0.3,0.4-0.5c0.1-0.2,0.1-0.4,0.1-0.6c0-0.2-0.1-0.5-0.2-0.6c-0.1-0.2-0.3-0.3-0.5-0.5c-0.2-0.1-0.4-0.2-0.7-0.3
	c-0.3-0.1-0.6-0.1-0.9-0.1H162.8z M162.8,50.5v3.2h2.3c0.4,0,0.7,0,1-0.1c0.3-0.1,0.5-0.2,0.6-0.4c0.2-0.2,0.3-0.3,0.3-0.5
	c0.1-0.2,0.1-0.4,0.1-0.6c0-0.3-0.1-0.5-0.2-0.7c-0.1-0.2-0.3-0.3-0.5-0.5c-0.2-0.1-0.4-0.2-0.7-0.3c-0.3-0.1-0.6-0.1-0.9-0.1H162.8
	z M176.3,54.1c-0.2,0.1-0.5,0.1-0.7,0.2c-0.2,0.1-0.4,0.1-0.6,0.1c-0.2,0-0.4,0.1-0.5,0.1c-0.2,0-0.4,0-0.6,0
	c-0.6,0-1.2-0.1-1.7-0.3c-0.5-0.2-0.9-0.5-1.3-0.9c-0.4-0.4-0.6-0.8-0.8-1.3c-0.2-0.5-0.3-1.1-0.3-1.7c0-0.7,0.1-1.3,0.3-1.8
	c0.2-0.6,0.5-1,0.8-1.4c0.4-0.4,0.8-0.7,1.3-0.9c0.5-0.2,1-0.3,1.6-0.3c0.2,0,0.4,0,0.5,0c0.2,0,0.3,0,0.5,0.1
	c0.2,0,0.4,0.1,0.5,0.1c0.2,0,0.4,0.1,0.6,0.2v1c-0.2-0.1-0.5-0.2-0.7-0.3c-0.2-0.1-0.4-0.1-0.5-0.2c-0.2,0-0.3-0.1-0.5-0.1
	c-0.2,0-0.3,0-0.5,0c-0.5,0-0.9,0.1-1.3,0.3c-0.4,0.2-0.7,0.4-1,0.7c-0.3,0.3-0.5,0.7-0.6,1.1c-0.2,0.4-0.2,0.9-0.2,1.4
	c0,0.5,0.1,1,0.2,1.4c0.2,0.4,0.4,0.8,0.6,1.1c0.3,0.3,0.6,0.5,1,0.7c0.4,0.2,0.8,0.2,1.3,0.2c0.2,0,0.4,0,0.5,0
	c0.2,0,0.3,0,0.5-0.1c0.2,0,0.4-0.1,0.5-0.2c0.2-0.1,0.4-0.1,0.6-0.2V54.1z M185.4,53.4c-0.5,0.4-1,0.7-1.5,0.8
	c-0.5,0.2-1.1,0.3-1.7,0.3s-1.2-0.1-1.7-0.3c-0.5-0.2-1-0.5-1.3-0.9c-0.4-0.4-0.7-0.9-0.9-1.4s-0.3-1.1-0.3-1.8
	c0-0.6,0.1-1.2,0.3-1.7c0.2-0.5,0.5-1,0.8-1.4c0.3-0.4,0.8-0.7,1.2-0.9c0.5-0.2,1-0.3,1.5-0.3c0.4,0,0.9,0.1,1.3,0.2
	c0.4,0.2,0.8,0.4,1.2,0.7c0.4,0.3,0.6,0.7,0.9,1.3c0.2,0.5,0.3,1.1,0.3,1.8h-6.6c0,0.1,0,0.2,0,0.2v0.2c0,0.5,0.1,0.9,0.3,1.3
	c0.2,0.4,0.4,0.8,0.7,1.1c0.3,0.3,0.7,0.5,1.1,0.7c0.4,0.2,0.8,0.3,1.3,0.3c0.6,0,1.1-0.1,1.6-0.3c0.5-0.2,1-0.5,1.6-1V53.4z
	 M184.4,49.1c-0.3-1.6-1.2-2.5-2.7-2.5c-0.3,0-0.7,0.1-1,0.2c-0.3,0.1-0.6,0.3-0.8,0.5c-0.2,0.2-0.4,0.5-0.6,0.8
	c-0.2,0.3-0.3,0.6-0.4,1H184.4z M191.1,50.7l-3.3,3.7h-1.2l3.8-4.3l-3.8-4.1h1.2l3.3,3.5l3.3-3.5h1.2l-3.9,4.1l3.9,4.3h-1.2
	L191.1,50.7z M209.9,46v0.8h-3.7v7.6h-0.9v-7.6h-3.7V46H209.9z M217.7,47.5l-5.6,6.9h-0.5V46h0.9v6.9l5.6-6.9h0.5v8.4h-0.9V47.5z
	 M228.3,46v8.4h-0.9v-7.7h-5.2v7.7h-0.9V46H228.3z M239.2,50.2c0,0.6-0.1,1.2-0.3,1.7c-0.2,0.5-0.5,1-0.9,1.4
	c-0.4,0.4-0.8,0.7-1.4,0.9c-0.5,0.2-1.1,0.3-1.7,0.3c-0.6,0-1.2-0.1-1.7-0.3c-0.5-0.2-1-0.5-1.4-0.9c-0.4-0.4-0.7-0.8-0.9-1.4
	c-0.2-0.5-0.3-1.1-0.3-1.7c0-0.6,0.1-1.2,0.3-1.7c0.2-0.5,0.5-1,0.9-1.4c0.4-0.4,0.8-0.7,1.4-0.9c0.5-0.2,1.1-0.3,1.7-0.3
	c0.6,0,1.2,0.1,1.7,0.3c0.5,0.2,1,0.5,1.4,0.9c0.4,0.4,0.7,0.9,0.9,1.4C239.1,49,239.2,49.6,239.2,50.2z M238.2,50.2
	c0-0.5-0.1-1-0.3-1.4c-0.2-0.4-0.4-0.8-0.7-1.1c-0.3-0.3-0.6-0.6-1-0.7c-0.4-0.2-0.8-0.3-1.3-0.3c-0.5,0-0.9,0.1-1.3,0.3
	c-0.4,0.2-0.8,0.4-1.1,0.7c-0.3,0.3-0.5,0.7-0.7,1.1c-0.2,0.4-0.2,0.9-0.2,1.4c0,0.5,0.1,1,0.2,1.4c0.2,0.4,0.4,0.8,0.7,1.1
	s0.7,0.6,1.1,0.7c0.4,0.2,0.8,0.3,1.3,0.3c0.5,0,0.9-0.1,1.3-0.3c0.4-0.2,0.8-0.4,1-0.7c0.3-0.3,0.5-0.7,0.7-1.1
	C238.1,51.1,238.2,50.7,238.2,50.2z M241.5,54.4V46h2.8c0.5,0,0.9,0.1,1.3,0.2c0.4,0.1,0.7,0.3,0.9,0.5c0.2,0.2,0.4,0.4,0.5,0.7
	c0.1,0.2,0.2,0.5,0.2,0.7c0,0.2,0,0.4-0.1,0.6c-0.1,0.2-0.2,0.4-0.3,0.6c-0.1,0.2-0.3,0.3-0.5,0.5c-0.2,0.1-0.4,0.2-0.6,0.3
	c0.6,0.1,1.1,0.3,1.4,0.7c0.3,0.4,0.5,0.8,0.5,1.4c0,0.4-0.1,0.7-0.2,0.9c-0.1,0.3-0.4,0.5-0.6,0.7c-0.3,0.2-0.6,0.3-0.9,0.4
	c-0.4,0.1-0.8,0.1-1.2,0.1H241.5z M242.4,46.7v3h1.7c0.4,0,0.7,0,0.9-0.1c0.3-0.1,0.5-0.2,0.7-0.4c0.2-0.1,0.3-0.3,0.4-0.5
	c0.1-0.2,0.1-0.4,0.1-0.6c0-0.2-0.1-0.5-0.2-0.6c-0.1-0.2-0.3-0.3-0.5-0.5c-0.2-0.1-0.4-0.2-0.7-0.3c-0.3-0.1-0.6-0.1-0.9-0.1H242.4
	z M242.4,50.5v3.2h2.3c0.4,0,0.7,0,1-0.1c0.3-0.1,0.5-0.2,0.6-0.4c0.2-0.2,0.3-0.3,0.3-0.5c0.1-0.2,0.1-0.4,0.1-0.6
	c0-0.3-0.1-0.5-0.2-0.7c-0.1-0.2-0.3-0.3-0.5-0.5c-0.2-0.1-0.4-0.2-0.7-0.3c-0.3-0.1-0.6-0.1-0.9-0.1H242.4z M256.2,50.3v-0.7h1.4
	c0.4,0,0.7,0,1-0.1c0.3-0.1,0.5-0.2,0.7-0.4c0.2-0.2,0.3-0.3,0.4-0.5c0.1-0.2,0.1-0.4,0.1-0.6c0-0.3-0.1-0.5-0.2-0.7
	c-0.1-0.2-0.3-0.3-0.5-0.5c-0.2-0.1-0.4-0.2-0.7-0.3c-0.3-0.1-0.6-0.1-1-0.1c-0.5,0-0.9,0.1-1.4,0.2c-0.5,0.1-0.9,0.3-1.3,0.5v-0.8
	c0.2-0.1,0.4-0.2,0.6-0.3c0.2-0.1,0.5-0.2,0.7-0.2c0.3-0.1,0.5-0.1,0.8-0.1c0.3,0,0.5-0.1,0.8-0.1c0.4,0,0.8,0,1.1,0.1
	c0.4,0.1,0.7,0.2,1,0.4c0.3,0.2,0.5,0.4,0.7,0.6c0.2,0.2,0.3,0.5,0.3,0.9c0,0.2,0,0.5-0.1,0.7c-0.1,0.2-0.2,0.4-0.3,0.6
	c-0.1,0.2-0.3,0.3-0.5,0.5c-0.2,0.1-0.4,0.2-0.6,0.3c0.1,0,0.3,0.1,0.5,0.2c0.2,0.1,0.4,0.2,0.6,0.4c0.2,0.2,0.3,0.4,0.5,0.7
	c0.1,0.3,0.2,0.6,0.2,0.9c0,0.5-0.1,0.8-0.3,1.1c-0.2,0.3-0.5,0.6-0.8,0.7c-0.3,0.2-0.7,0.3-1.1,0.4c-0.4,0.1-0.8,0.1-1.1,0.1
	c-0.5,0-1,0-1.5-0.1c-0.5-0.1-0.9-0.2-1.4-0.4v-0.8c0.4,0.2,0.9,0.4,1.3,0.4c0.5,0.1,0.9,0.1,1.4,0.1c0.3,0,0.6,0,0.9-0.1
	c0.3-0.1,0.6-0.2,0.8-0.3s0.4-0.3,0.6-0.6c0.2-0.2,0.2-0.5,0.2-0.8c0-0.3-0.1-0.6-0.2-0.8c-0.1-0.2-0.3-0.4-0.6-0.5
	c-0.2-0.1-0.5-0.2-0.9-0.3c-0.3-0.1-0.7-0.1-1.1-0.1H256.2z M267.6,48.3c0-1.1-0.6-1.7-1.9-1.7c-0.2,0-0.4,0-0.6,0.1
	c-0.2,0-0.4,0.1-0.6,0.2c-0.2,0.1-0.4,0.2-0.6,0.3c-0.2,0.1-0.4,0.3-0.7,0.5v-0.9c0.3-0.2,0.5-0.3,0.7-0.4c0.2-0.1,0.5-0.2,0.7-0.3
	c0.2-0.1,0.4-0.1,0.6-0.2c0.2,0,0.4-0.1,0.7-0.1c0.3,0,0.6,0,0.9,0.1c0.3,0.1,0.6,0.2,0.8,0.3c0.3,0.2,0.5,0.4,0.6,0.7
	c0.2,0.3,0.3,0.6,0.3,1.1v5.2c0,0.2,0,0.3,0,0.3c0,0.1,0.1,0.1,0.2,0.1c0,0,0.1,0,0.2-0.1c0.1,0,0.2-0.1,0.3-0.2
	c0.1-0.1,0.2-0.2,0.3-0.2c0.1-0.1,0.2-0.2,0.3-0.3v0.7l-0.1,0.1c-0.2,0.2-0.4,0.3-0.5,0.4c-0.2,0.1-0.3,0.2-0.4,0.2
	c-0.1,0.1-0.2,0.1-0.3,0.1c-0.1,0-0.2,0-0.3,0c-0.1,0-0.2,0-0.3,0c-0.1,0-0.1-0.1-0.2-0.2c0-0.1-0.1-0.2-0.1-0.3
	c0-0.1,0-0.3-0.1-0.5c-0.5,0.4-0.9,0.6-1.3,0.8c-0.4,0.2-0.8,0.2-1.3,0.2c-0.3,0-0.6-0.1-0.9-0.2c-0.3-0.1-0.5-0.3-0.7-0.5
	c-0.2-0.2-0.4-0.4-0.5-0.7c-0.1-0.3-0.2-0.5-0.2-0.8c0-0.4,0.1-0.7,0.2-1c0.1-0.3,0.3-0.5,0.5-0.8c0.2-0.2,0.5-0.4,0.8-0.6
	c0.3-0.2,0.6-0.3,1-0.4c0.4-0.1,0.7-0.2,1.1-0.2c0.4-0.1,0.8-0.1,1.2-0.1V48.3z M267.6,50.1c-0.5,0-1.1,0-1.6,0.1
	c-0.5,0.1-0.9,0.2-1.3,0.5c-0.4,0.2-0.6,0.5-0.9,0.8c-0.2,0.3-0.3,0.6-0.3,1c0,0.2,0,0.4,0.1,0.5c0.1,0.2,0.2,0.3,0.3,0.4
	c0.1,0.1,0.3,0.2,0.5,0.3c0.2,0.1,0.4,0.1,0.7,0.1c0.2,0,0.4,0,0.6-0.1c0.2,0,0.4-0.1,0.6-0.2c0.2-0.1,0.4-0.2,0.6-0.3
	c0.2-0.1,0.4-0.3,0.6-0.5V50.1z M271.5,54.4V46h2.8c0.5,0,0.9,0.1,1.3,0.2c0.4,0.1,0.7,0.3,0.9,0.5c0.2,0.2,0.4,0.4,0.5,0.7
	c0.1,0.2,0.2,0.5,0.2,0.7c0,0.2,0,0.4-0.1,0.6c-0.1,0.2-0.2,0.4-0.3,0.6c-0.1,0.2-0.3,0.3-0.5,0.5c-0.2,0.1-0.4,0.2-0.6,0.3
	c0.6,0.1,1.1,0.3,1.4,0.7c0.3,0.4,0.5,0.8,0.5,1.4c0,0.4-0.1,0.7-0.2,0.9c-0.1,0.3-0.3,0.5-0.6,0.7c-0.3,0.2-0.6,0.3-0.9,0.4
	c-0.4,0.1-0.8,0.1-1.2,0.1H271.5z M272.4,46.7v3h1.7c0.4,0,0.7,0,0.9-0.1c0.3-0.1,0.5-0.2,0.7-0.4c0.2-0.1,0.3-0.3,0.4-0.5
	c0.1-0.2,0.1-0.4,0.1-0.6c0-0.2-0.1-0.5-0.2-0.6c-0.1-0.2-0.3-0.3-0.5-0.5c-0.2-0.1-0.4-0.2-0.7-0.3c-0.3-0.1-0.6-0.1-0.9-0.1H272.4
	z M272.4,50.5v3.2h2.3c0.4,0,0.7,0,1-0.1c0.3-0.1,0.5-0.2,0.6-0.4c0.2-0.2,0.3-0.3,0.3-0.5c0.1-0.2,0.1-0.4,0.1-0.6
	c0-0.3-0.1-0.5-0.2-0.7c-0.1-0.2-0.3-0.3-0.5-0.5c-0.2-0.1-0.4-0.2-0.7-0.3c-0.3-0.1-0.6-0.1-0.9-0.1H272.4z M285.9,47.5l-5.6,6.9
	h-0.5V46h0.9v6.9l5.6-6.9h0.5v8.4h-0.9V47.5z M295.6,54.1c-0.2,0.1-0.5,0.1-0.7,0.2c-0.2,0.1-0.4,0.1-0.6,0.1
	c-0.2,0-0.4,0.1-0.5,0.1c-0.2,0-0.4,0-0.6,0c-0.6,0-1.2-0.1-1.7-0.3c-0.5-0.2-0.9-0.5-1.3-0.9c-0.4-0.4-0.6-0.8-0.8-1.3
	c-0.2-0.5-0.3-1.1-0.3-1.7c0-0.7,0.1-1.3,0.3-1.8c0.2-0.6,0.5-1,0.8-1.4c0.4-0.4,0.8-0.7,1.3-0.9c0.5-0.2,1-0.3,1.6-0.3
	c0.2,0,0.4,0,0.5,0c0.2,0,0.3,0,0.5,0.1c0.2,0,0.4,0.1,0.5,0.1c0.2,0,0.4,0.1,0.6,0.2v1c-0.2-0.1-0.5-0.2-0.7-0.3
	c-0.2-0.1-0.4-0.1-0.5-0.2c-0.2,0-0.3-0.1-0.5-0.1c-0.2,0-0.3,0-0.5,0c-0.5,0-0.9,0.1-1.3,0.3c-0.4,0.2-0.7,0.4-1,0.7
	c-0.3,0.3-0.5,0.7-0.6,1.1c-0.2,0.4-0.2,0.9-0.2,1.4c0,0.5,0.1,1,0.2,1.4s0.4,0.8,0.6,1.1c0.3,0.3,0.6,0.5,1,0.7
	c0.4,0.2,0.8,0.2,1.3,0.2c0.2,0,0.4,0,0.5,0c0.2,0,0.3,0,0.5-0.1c0.2,0,0.4-0.1,0.5-0.2c0.2-0.1,0.4-0.1,0.6-0.2V54.1z M303.7,47.5
	l-5.6,6.9h-0.5V46h0.9v6.9l5.6-6.9h0.5v8.4h-0.9V47.5z M311.8,52.8l3.5-6.8h0.5l0.6,8.4h-0.9l-0.4-6.3l-3.3,6.3l-3.4-6.3l-0.4,6.3
	h-0.9l0.6-8.4h0.5L311.8,52.8z M327.2,50.2c0,0.6-0.1,1.2-0.3,1.7c-0.2,0.5-0.5,1-0.9,1.4c-0.4,0.4-0.8,0.7-1.4,0.9
	c-0.5,0.2-1.1,0.3-1.7,0.3c-0.6,0-1.2-0.1-1.7-0.3c-0.5-0.2-1-0.5-1.4-0.9c-0.4-0.4-0.7-0.8-0.9-1.4c-0.2-0.5-0.3-1.1-0.3-1.7
	c0-0.6,0.1-1.2,0.3-1.7c0.2-0.5,0.5-1,0.9-1.4c0.4-0.4,0.8-0.7,1.4-0.9c0.5-0.2,1.1-0.3,1.7-0.3c0.6,0,1.2,0.1,1.7,0.3
	c0.5,0.2,1,0.5,1.4,0.9c0.4,0.4,0.7,0.9,0.9,1.4C327.1,49,327.2,49.6,327.2,50.2z M326.2,50.2c0-0.5-0.1-1-0.3-1.4
	c-0.2-0.4-0.4-0.8-0.7-1.1c-0.3-0.3-0.6-0.6-1.1-0.7c-0.4-0.2-0.8-0.3-1.3-0.3c-0.5,0-0.9,0.1-1.3,0.3c-0.4,0.2-0.8,0.4-1.1,0.7
	c-0.3,0.3-0.5,0.7-0.7,1.1c-0.2,0.4-0.2,0.9-0.2,1.4c0,0.5,0.1,1,0.2,1.4c0.2,0.4,0.4,0.8,0.7,1.1c0.3,0.3,0.7,0.6,1.1,0.7
	c0.4,0.2,0.8,0.3,1.3,0.3c0.5,0,0.9-0.1,1.3-0.3c0.4-0.2,0.8-0.4,1.1-0.7s0.5-0.7,0.7-1.1C326.1,51.1,326.2,50.7,326.2,50.2z
	 M335.6,54.1c-0.2,0.1-0.5,0.1-0.7,0.2c-0.2,0.1-0.4,0.1-0.6,0.1c-0.2,0-0.4,0.1-0.5,0.1c-0.2,0-0.4,0-0.6,0c-0.6,0-1.2-0.1-1.7-0.3
	c-0.5-0.2-0.9-0.5-1.3-0.9c-0.4-0.4-0.6-0.8-0.8-1.3c-0.2-0.5-0.3-1.1-0.3-1.7c0-0.7,0.1-1.3,0.3-1.8c0.2-0.6,0.5-1,0.8-1.4
	c0.4-0.4,0.8-0.7,1.3-0.9c0.5-0.2,1-0.3,1.6-0.3c0.2,0,0.4,0,0.5,0c0.2,0,0.3,0,0.5,0.1c0.2,0,0.4,0.1,0.5,0.1
	c0.2,0,0.4,0.1,0.6,0.2v1c-0.2-0.1-0.5-0.2-0.7-0.3c-0.2-0.1-0.4-0.1-0.5-0.2c-0.2,0-0.3-0.1-0.5-0.1c-0.2,0-0.3,0-0.5,0
	c-0.5,0-0.9,0.1-1.3,0.3c-0.4,0.2-0.7,0.4-1,0.7c-0.3,0.3-0.5,0.7-0.6,1.1c-0.2,0.4-0.2,0.9-0.2,1.4c0,0.5,0.1,1,0.2,1.4
	c0.2,0.4,0.4,0.8,0.6,1.1c0.3,0.3,0.6,0.5,1,0.7c0.4,0.2,0.8,0.2,1.3,0.2c0.2,0,0.4,0,0.5,0c0.2,0,0.3,0,0.5-0.1
	c0.2,0,0.4-0.1,0.5-0.2c0.2-0.1,0.4-0.1,0.6-0.2V54.1z M345,46v0.8h-3.7v7.6h-0.9v-7.6h-3.7V46H345z M352.8,47.5l-5.6,6.9h-0.5V46
	h0.9v6.9l5.6-6.9h0.5v8.4h-0.9V47.5z"/>
</svg>
