<svg width="19" height="28" viewBox="0 0 19 28" fill="none" xmlns="http://www.w3.org/2000/svg">
<path d="M9.5 5.7002C6.88085 5.7002 4.75 7.83105 4.75 10.4502C4.75 13.0526 6.84617 15.2002 9.5 15.2002C12.1865 15.2002 14.25 13.024 14.25 10.4502C14.25 7.83105 12.1192 5.7002 9.5 5.7002ZM9.5 13.6274C7.74477 13.6274 6.32278 12.2007 6.32278 10.4502C6.32278 8.7041 7.7539 7.27297 9.5 7.27297C11.2461 7.27297 12.6719 8.7041 12.6719 10.4502C12.6719 12.1751 11.283 13.6274 9.5 13.6274Z" fill="#77A3BE"/>
<path d="M9.5 0C4.2617 0 0 4.2617 0 9.5C0 11.2698 0.490253 12.9971 1.41809 14.4955L8.95924 26.648C9.10369 26.8808 9.35819 27.0222 9.63189 27.0222C9.634 27.0222 9.63606 27.0222 9.63817 27.0222C9.91425 27.0201 10.1693 26.8742 10.3111 26.6374L17.66 14.3672C18.5367 12.9004 19 11.2173 19 9.5C19 4.2617 14.7383 0 9.5 0ZM16.3013 13.5543L9.61991 24.7098L2.76381 13.6613C1.99152 12.4141 1.57278 10.9751 1.57278 9.5C1.57278 5.13475 5.13475 1.57278 9.5 1.57278C13.8652 1.57278 17.4219 5.13475 17.4219 9.5C17.4219 10.9314 17.0308 12.3335 16.3013 13.5543Z" fill="#77A3BE"/>
</svg>
