<svg width="76" height="81" viewBox="0 0 76 81" fill="none" xmlns="http://www.w3.org/2000/svg">
<rect x="34.3599" y="0.216064" width="7.09984" height="69.0936" rx="3.54992" fill="#9CC5DE"/>
<path d="M10.1166 58.227C15.2811 58.227 19.4676 54.0404 19.4676 48.876H0.765625C0.765625 54.0404 4.95221 58.227 10.1166 58.227Z" fill="#E48080"/>
<path d="M65.53 57.8808C70.6944 57.8808 74.881 53.6942 74.881 48.5298H56.179C56.179 53.6942 60.3655 57.8808 65.53 57.8808Z" fill="#E48080"/>
<path d="M58.6904 49.0493L65.6171 31.2131L72.7169 49.0493" stroke="#77A3BE" stroke-width="1.33039"/>
<path d="M44.9233 69.4828L40.8539 63.7683H37.8235V69.4828H44.9233Z" fill="#9CC5DE"/>
<path d="M37.9102 74.851V69.3962L48.2136 69.4828L53.322 74.851H37.9102Z" fill="#9CC5DE"/>
<path d="M37.9102 80.3923V74.7644L60.1621 74.851V80.3923H37.9102Z" fill="#77A3BE"/>
<path d="M30.8103 69.3962L34.8797 63.7683H37.9102V69.3962H30.8103Z" fill="#9CC5DE"/>
<path d="M37.9102 74.7644V69.3962H27.6067L22.4983 74.7644H37.9102Z" fill="#9CC5DE"/>
<path d="M37.9102 80.3922V74.7643L15.6582 74.6777V80.2191L37.9102 80.3922Z" fill="#77A3BE"/>
<path d="M16.5889 49.0561L9.66219 31.22L2.56236 49.0561" stroke="#77A3BE" stroke-width="1.33039"/>
<path d="M10.054 33.2161C23.1281 33.2161 25.1195 26.4626 32.739 22.0468C39.146 16.9384 41.1894 12.2456 33.4316 12.5227C23.7342 12.869 18.6258 24.9041 13.4308 27.5016C8.97102 29.7315 4.15005 29.4214 1.13594 28.8869L0.616375 32.3503C3.99313 33.4758 10.054 33.2161 10.054 33.2161Z" fill="#9CC5DE"/>
<path d="M66.2155 33.2161C53.1415 33.2161 51.1501 26.4626 43.5306 22.0468C37.1235 16.9384 35.0801 12.2456 42.838 12.5227C52.5353 12.869 57.6437 24.9041 62.8388 27.5016C67.2985 29.7315 72.1195 29.4214 75.1336 28.8869L75.6532 32.3503C72.2764 33.4758 66.2155 33.2161 66.2155 33.2161Z" fill="#9CC5DE"/>
</svg>
