<svg width="71" height="66" viewBox="0 0 71 66" fill="none" xmlns="http://www.w3.org/2000/svg">
<path d="M48.9565 8.21631C48.9565 5.97847 50.7707 4.16431 53.0086 4.16431C54.7174 4.16431 56.1791 5.22061 56.7747 6.71712C57.3703 5.22061 58.8321 4.16431 60.5408 4.16431C62.7787 4.16431 64.5929 5.97847 64.5929 8.21631C64.5929 13.7591 56.7747 17.4852 56.7747 17.4852C56.7747 17.4852 48.9565 13.4901 48.9565 8.21631Z" fill="#E48080"/>
<path d="M6.8584 8.31714C6.8584 6.0793 8.67257 4.26514 10.9104 4.26514C12.6193 4.26514 14.0809 5.32144 14.6766 6.81795C15.2722 5.32144 16.734 4.26514 18.4427 4.26514C20.6805 4.26514 22.4947 6.0793 22.4947 8.31714C22.4947 13.8599 14.6766 17.586 14.6766 17.586C14.6766 17.586 6.8584 13.5909 6.8584 8.31714Z" fill="#E48080"/>
<ellipse cx="9.28377" cy="27.5328" rx="5.48006" ry="5.30038" fill="#E5E5E5"/>
<path d="M9.37358 33.5518C4.31279 33.5518 0.210205 37.6277 0.210205 42.6556C0.210205 44.222 0.433427 45.6928 0.839963 47.0273H18.1291C18.3942 45.7701 18.537 44.3203 18.537 42.6556C18.537 37.6277 14.4344 33.5518 9.37358 33.5518Z" fill="#E5E5E5"/>
<ellipse cx="61.5689" cy="28.6107" rx="5.48006" ry="5.30038" fill="#E5E5E5"/>
<path d="M61.6585 34.6299C56.5977 34.6299 52.4951 38.7058 52.4951 43.7338C52.4951 45.3002 52.7183 46.7709 53.1249 48.1054H70.414C70.6791 46.8483 70.8219 45.3984 70.8219 43.7338C70.8219 38.7058 66.7193 34.6299 61.6585 34.6299Z" fill="#E5E5E5"/>
<circle cx="36.4147" cy="10.8229" r="10.6906" fill="#77A3BE"/>
<path d="M36.6844 22.5916C26.6621 22.5916 18.5374 30.7163 18.5374 40.7386C18.5374 43.861 18.9794 46.7927 19.7845 49.4528H54.0237C54.5488 46.9468 54.8315 44.0569 54.8315 40.7386C54.8315 30.7163 46.7068 22.5916 36.6844 22.5916Z" fill="#77A3BE"/>
<ellipse cx="14.5844" cy="37.0552" rx="6.82761" ry="6.73778" fill="#9CC5DE"/>
<path d="M14.764 44.5117C8.41323 44.5117 3.26489 49.6746 3.26489 56.0433C3.26489 58.0274 3.54501 59.8904 4.05518 61.5808H25.7513C26.084 59.9883 26.2632 58.1519 26.2632 56.0433C26.2632 49.6746 21.1148 44.5117 14.764 44.5117Z" fill="#9CC5DE"/>
<ellipse cx="57.7058" cy="37.0552" rx="6.82761" ry="6.73778" fill="#9CC5DE"/>
<path d="M57.8859 44.5117C51.5351 44.5117 46.3867 49.6746 46.3867 56.0433C46.3867 58.0274 46.6668 59.8904 47.177 61.5808H68.8731C69.2058 59.9883 69.385 58.1519 69.385 56.0433C69.385 49.6746 64.2367 44.5117 57.8859 44.5117Z" fill="#9CC5DE"/>
<ellipse cx="36.5039" cy="40.6489" rx="6.82761" ry="6.73778" fill="#E5E5E5"/>
<path d="M36.6837 48.1055C30.3329 48.1055 25.1846 53.2683 25.1846 59.6371C25.1846 61.6212 25.4647 63.4841 25.9749 65.1745H47.671C48.0037 63.5821 48.1828 61.7457 48.1828 59.6371C48.1828 53.2683 43.0345 48.1055 36.6837 48.1055Z" fill="#E5E5E5"/>
</svg>
