<svg width="157" height="157" viewBox="0 0 157 157" fill="none" xmlns="http://www.w3.org/2000/svg">
<circle cx="78.5" cy="78.5" r="78.5" fill="#9CC5DE" fill-opacity="0.6"/>
<path d="M98.0941 23.5869H59.7041C54.2763 23.5869 49.8762 27.987 49.8762 33.4148V58.4144V75.2906V123.831C49.8762 129.259 54.2763 133.659 59.7041 133.659H98.0941C103.522 133.659 107.922 129.259 107.922 123.831V97.649V60.8867V33.4148C107.922 27.987 103.522 23.5869 98.0941 23.5869Z" fill="#ABABAB"/>
<rect x="49.8762" y="35.3804" width="57.9844" height="86.4851" fill="#77A3BE"/>
<rect x="68.7949" y="28.9921" width="15.9703" height="1.71987" rx="0.859937" stroke="black" stroke-opacity="0.25" stroke-width="0.982786"/>
<rect x="86.9765" y="28.9921" width="1.96557" height="1.71987" rx="0.859937" stroke="black" stroke-opacity="0.25" stroke-width="0.982786"/>
<path d="M103.883 98.5858C114.629 98.5858 123.339 89.875 123.339 79.1297C123.339 68.3844 114.629 59.6736 103.883 59.6736C93.138 59.6736 84.4272 68.3844 84.4272 79.1297C84.4272 84.7793 86.8353 89.8665 90.681 93.421L84.8181 100.41L103.883 98.5858Z" fill="#F5F5F5"/>
<path d="M100.988 71.3125V76.1907H96.3269V81.2867H100.988V86.252H106.106V81.2867H110.932V76.1907H106.106V71.3125H100.988Z" fill="#E48080"/>
<path d="M58.8749 57.7385H38.8199C36.106 57.7385 33.906 59.9386 33.906 62.6525V70.5172C33.906 73.2311 36.106 75.4311 38.8199 75.4311H48.8474H54.6482C55.7311 75.4311 56.7836 75.7888 57.6423 76.4487L63.7888 81.1718V75.4311V75.3841V69.5963V62.6525C63.7888 59.9386 61.5888 57.7385 58.8749 57.7385Z" fill="#F5F5F5"/>
<rect x="72.4804" y="126.288" width="12.7762" height="1.71987" rx="0.859937" stroke="black" stroke-opacity="0.25" stroke-width="0.982786"/>
</svg>
