<svg width="157" height="157" viewBox="0 0 157 157" fill="none" xmlns="http://www.w3.org/2000/svg">
<circle cx="78.5" cy="78.5" r="78.5" fill="#9CC5DE" fill-opacity="0.6"/>
<path d="M80.7176 75.438V85.1412L74.9833 94.4807C75.2913 95.3479 75.5042 96.7106 75.0603 97.5415C74.4695 98.6471 73.4249 97.6475 73.4058 97.0501V100.075C73.4056 102.759 71.2617 104.998 68.6266 105.065C67.5692 105.094 66.5615 104.79 65.7127 104.202C64.9836 105.961 63.2866 107.228 61.3146 107.279C61.2711 107.28 61.2275 107.28 61.1841 107.28C59.8965 107.28 58.6854 106.789 57.7609 105.887C56.8047 104.955 56.2781 103.706 56.2781 102.37V102.272C55.5149 102.702 54.6485 102.921 53.7451 102.897C51.1099 102.829 48.9659 100.59 48.9659 97.9064V75.9729C46.4055 78.3513 42.4787 78.5608 39.6733 76.4158C38.4652 75.4921 38.2172 73.8028 39.1087 72.5698L39.5621 71.9424L39.5675 71.9349C41.5736 69.1576 43.6476 66.2861 46.0263 63.6911C47.9806 61.5592 50.302 59.8627 52.1059 58.6226C52.706 58.21 53.3817 57.7203 53.8053 57.1268C54.2595 56.4904 54.5199 55.6833 54.5199 54.9126C54.5199 54.9032 54.5411 50.9636 54.5665 47.3271L54.6132 41.5981L54.6464 36.8694C54.6513 36.1814 55.2101 35.626 55.8982 35.626H72.281C72.6145 35.626 72.934 35.7591 73.1692 35.9959C73.4043 36.2325 73.5351 36.5531 73.5328 36.8868L73.4063 55.5308C73.4063 56.0418 73.659 56.5173 74.0825 56.7942C78.3611 59.5917 80.7176 63.636 80.7176 68.1822V72.6719V75.438Z" fill="#EEDFC9"/>
<path d="M56.2644 82.1856C57.0178 74.3056 56.2644 102.456 56.2644 102.456C55.0968 103.044 55.22 101.838 55.3011 101.249L55.7828 91.7174C55.7828 91.7174 55.9097 85.8958 56.2644 82.1856Z" fill="#D9CDBC"/>
<path d="M72.199 90.1708L73.4122 97.1833C73.3831 97.5576 73.3197 97.9339 73.1824 97.9417C72.9079 97.9572 72.7064 97.4716 72.5833 96.8575L72.199 90.1708Z" fill="#D9CDBC"/>
<path d="M64.8887 86.0046C65.2166 78.5355 65.6457 104.284 65.6457 104.284C65.6471 104.634 65.2408 105.161 65.062 105.16C64.7939 105.159 64.5043 104.279 64.4993 103C64.4993 103 64.5607 93.4737 64.8887 86.0046Z" fill="#D9CDBC"/>
<path d="M95.9557 120.882H117.93C118.698 120.712 118.784 120.031 118.57 119.605C114.232 113.038 105.151 99.5003 103.53 97.8817C101.908 96.2632 101.929 94.9356 102.143 94.4742C102.889 87.3397 101.503 86.2749 98.5159 82.7609C91.6888 76.4783 80.4242 71.8143 80.5949 73.6032C80.7656 75.3922 80.3353 82.7964 80.0988 86.2749C77.906 83.7042 74.8344 80.7064 72.2744 79.4599C67.9008 77.3302 66.7274 79.6729 66.4074 79.7793C66.0874 79.8858 64.594 82.6544 66.7274 84.7841C68.4342 86.4879 70.7603 89.5759 72.0611 91.4926C76.5413 98.0947 77.3995 104.325 79.2081 106.507C81.7683 109.595 85.1818 110.05 87.1019 109.702C88.0406 109.531 89.1998 111.05 89.6621 111.831L95.9557 120.882Z" fill="#F5EDE1"/>
<path d="M79.1142 85.1721L83.6215 90.6781C83.9019 90.9173 84.1982 91.1377 84.262 91.0629C84.3896 90.9134 84.1273 90.4637 83.7397 89.9716L79.1142 85.1721Z" fill="#D9CDBC"/>
</svg>
