<svg width="157" height="157" viewBox="0 0 157 157" fill="none" xmlns="http://www.w3.org/2000/svg">
<circle cx="78.5" cy="78.5" r="78.5" fill="#9CC5DE" fill-opacity="0.6"/>
<rect x="42" y="31.0002" width="74.1655" height="95.5555" rx="3.99814" fill="#AEAEAE"/>
<rect x="47.3975" y="35.9976" width="63.3705" height="85.5601" rx="3.99814" fill="white"/>
<path d="M89.178 58.3872H104.071M89.178 64.7842H104.071M89.178 70.9813H104.071M89.178 76.9785H98.6736" stroke="#333333" stroke-width="2.39888" stroke-linecap="round" stroke-linejoin="round"/>
<path d="M63.3901 31H94.7755V37.9967C94.7755 41.3089 92.0905 43.9939 88.7783 43.9939H69.3873C66.0752 43.9939 63.3901 41.3089 63.3901 37.9967V31Z" fill="#707070"/>
<path d="M61.2841 57.1877V64.107H54.3943V71.3351H61.2841V78.3779H68.8506V71.3351H75.9842V64.107H68.8506V57.1877H61.2841Z" fill="#E48080"/>
<path d="M54.3943 91.3718H104.071M54.3943 97.1691H104.071M54.3943 102.966H104.071M54.3943 108.764H74.8847" stroke="#333333" stroke-width="2.39888" stroke-linecap="round" stroke-linejoin="round"/>
</svg>
