<svg width="73" height="14" viewBox="0 0 73 14" fill="none" xmlns="http://www.w3.org/2000/svg">
<path d="M36.4105 2.15693C36.5682 1.67167 37.2547 1.67167 37.4124 2.15693L38.2577 4.7586C38.3282 4.97562 38.5305 5.12255 38.7587 5.12255H41.4942C42.0045 5.12255 42.2166 5.77546 41.8038 6.07537L39.5907 7.68329C39.4061 7.81741 39.3288 8.05515 39.3994 8.27216L40.2447 10.8738C40.4024 11.3591 39.847 11.7626 39.4342 11.4627L37.2211 9.85479C37.0365 9.72066 36.7865 9.72067 36.6019 9.85479L34.3888 11.4627C33.976 11.7626 33.4206 11.3591 33.5782 10.8738L34.4236 8.27216C34.4941 8.05515 34.4169 7.81741 34.2322 7.68329L32.0191 6.07536C31.6063 5.77546 31.8185 5.12255 32.3287 5.12255H35.0643C35.2925 5.12255 35.4947 4.97562 35.5652 4.7586L36.4105 2.15693Z" fill="#E48080"/>
<path d="M21.5009 2.15693C21.6585 1.67167 22.3451 1.67167 22.5027 2.15693L23.3481 4.7586C23.4186 4.97562 23.6208 5.12255 23.849 5.12255H26.5846C27.0948 5.12255 27.3069 5.77546 26.8941 6.07537L24.681 7.68329C24.4964 7.81741 24.4192 8.05515 24.4897 8.27216L25.335 10.8738C25.4927 11.3591 24.9373 11.7626 24.5245 11.4627L22.3114 9.85479C22.1268 9.72066 21.8768 9.72067 21.6922 9.85479L19.4791 11.4627C19.0663 11.7626 18.5109 11.3591 18.6686 10.8738L19.5139 8.27216C19.5844 8.05515 19.5072 7.81741 19.3226 7.68329L17.1095 6.07536C16.6967 5.77546 16.9088 5.12255 17.4191 5.12255H20.1546C20.3828 5.12255 20.585 4.97562 20.6555 4.7586L21.5009 2.15693Z" fill="#E48080"/>
<path d="M6.59096 2.15693C6.74863 1.67167 7.43515 1.67167 7.59282 2.15693L8.43815 4.7586C8.50866 4.97562 8.7109 5.12255 8.93908 5.12255H11.6746C12.1849 5.12255 12.397 5.77546 11.9842 6.07537L9.77111 7.68329C9.58651 7.81741 9.50926 8.05515 9.57978 8.27216L10.4251 10.8738C10.5828 11.3591 10.0274 11.7626 9.6146 11.4627L7.40148 9.85479C7.21688 9.72066 6.9669 9.72067 6.7823 9.85479L4.56918 11.4627C4.1564 11.7626 3.601 11.3591 3.75867 10.8738L4.604 8.27216C4.67452 8.05515 4.59727 7.81741 4.41267 7.68329L2.19955 6.07536C1.78676 5.77546 1.99891 5.12255 2.50914 5.12255H5.2447C5.47289 5.12255 5.67512 4.97562 5.74563 4.7586L6.59096 2.15693Z" fill="#E48080"/>
<path d="M65.2982 2.15693C65.4559 1.67167 66.1424 1.67167 66.3001 2.15693L67.1454 4.7586C67.2159 4.97562 67.4182 5.12255 67.6464 5.12255H70.3819C70.8921 5.12255 71.1043 5.77546 70.6915 6.07537L68.4784 7.68329C68.2938 7.81741 68.2165 8.05515 68.2871 8.27216L69.1324 10.8738C69.2901 11.3591 68.7347 11.7626 68.3219 11.4627L66.1088 9.85479C65.9242 9.72066 65.6742 9.72067 65.4896 9.85479L63.2765 11.4627C62.8637 11.7626 62.3083 11.3591 62.4659 10.8738L63.3113 8.27216C63.3818 8.05515 63.3045 7.81741 63.1199 7.68329L60.9068 6.07536C60.494 5.77546 60.7062 5.12255 61.2164 5.12255H63.952C64.1802 5.12255 64.3824 4.97562 64.4529 4.7586L65.2982 2.15693Z" fill="#E48080"/>
<path d="M50.3886 2.15693C50.5462 1.67167 51.2328 1.67167 51.3904 2.15693L52.2358 4.7586C52.3063 4.97562 52.5085 5.12255 52.7367 5.12255H55.4722C55.9825 5.12255 56.1946 5.77546 55.7818 6.07537L53.5687 7.68329C53.3841 7.81741 53.3069 8.05515 53.3774 8.27216L54.2227 10.8738C54.3804 11.3591 53.825 11.7626 53.4122 11.4627L51.1991 9.85479C51.0145 9.72066 50.7645 9.72067 50.5799 9.85479L48.3668 11.4627C47.954 11.7626 47.3986 11.3591 47.5563 10.8738L48.4016 8.27216C48.4721 8.05515 48.3949 7.81741 48.2103 7.68329L45.9972 6.07536C45.5844 5.77546 45.7965 5.12255 46.3067 5.12255H49.0423C49.2705 5.12255 49.4727 4.97562 49.5432 4.7586L50.3886 2.15693Z" fill="#E48080"/>
</svg>
