<svg width="12" height="11" viewBox="0 0 12 11" fill="none" xmlns="http://www.w3.org/2000/svg">
<path d="M5.6851 0.654419C5.8543 0.133678 6.59101 0.133679 6.76021 0.65442L7.66736 3.44633C7.74302 3.67921 7.96004 3.83688 8.20491 3.83688H11.1405C11.688 3.83688 11.9157 4.53753 11.4727 4.85937L9.09778 6.58486C8.89968 6.72879 8.81679 6.98391 8.89245 7.21679L9.7996 10.0087C9.9688 10.5294 9.37279 10.9625 8.92982 10.6406L6.55488 8.91514C6.35678 8.77121 6.08853 8.77121 5.89043 8.91514L3.51549 10.6406C3.07252 10.9625 2.47651 10.5294 2.64571 10.0087L3.55286 7.21679C3.62853 6.98391 3.54563 6.72879 3.34753 6.58486L0.972593 4.85937C0.529625 4.53753 0.757281 3.83688 1.30482 3.83688H4.2404C4.48527 3.83688 4.70229 3.67921 4.77796 3.44633L5.6851 0.654419Z" fill="#E48080"/>
</svg>
