<svg width="22" height="22" viewBox="0 0 22 22" fill="none" xmlns="http://www.w3.org/2000/svg">
<path d="M10.8177 5.20321e-06C4.84356 0.00127283 0.00161408 4.84529 0.0028817 10.8194C0.00330424 12.888 0.596933 14.9131 1.71329 16.6547L0.0303469 21.0212C-0.0592742 21.2534 0.0563332 21.5143 0.288562 21.604C0.340492 21.624 0.395634 21.6343 0.451283 21.6342C0.502917 21.6344 0.554172 21.6256 0.602722 21.608L5.10985 19.999C10.1809 23.1573 16.852 21.6067 20.0103 16.5356C23.1685 11.4646 21.618 4.79344 16.5469 1.6352C14.8279 0.564563 12.8429 -0.00198074 10.8177 5.20321e-06Z" fill="#49ACE0"/>
<path d="M4.64638 9.94399L15.0758 5.92275C15.5599 5.74788 15.9827 6.04084 15.8258 6.77279L15.8267 6.77189L14.0509 15.138C13.9193 15.7311 13.5668 15.8754 13.0738 15.5959L10.3695 13.6029L9.06515 14.8595C8.92092 15.0037 8.79923 15.1254 8.51979 15.1254L8.71179 12.3733L13.7237 7.84548C13.9418 7.65348 13.675 7.54531 13.3875 7.73641L7.19379 11.636L4.52378 10.8031C3.94417 10.6192 3.93155 10.2234 4.64638 9.94399Z" fill="#ffffff"/>
</svg>
