<svg width="157" height="157" viewBox="0 0 157 157" fill="none" xmlns="http://www.w3.org/2000/svg">
<circle cx="78.5" cy="78.5" r="78.5" fill="#9CC5DE" fill-opacity="0.6"/>
<path d="M107.156 43.7129C93.0009 45.4462 82.1597 37.3735 78.5085 33.1205V124.721C123.478 107.676 116.344 63.6137 107.156 43.7129Z" fill="white"/>
<path d="M49.8439 43.5924C63.9991 45.3257 74.8403 37.253 78.4915 33V124.6C33.522 107.556 40.6558 63.4932 49.8439 43.5924Z" fill="white"/>
<path d="M101.17 51.2221C90.0319 52.5887 81.5019 46.2239 78.6291 42.8707V115.091C114.012 101.653 108.399 66.9126 101.17 51.2221Z" fill="#E48080"/>
<path d="M56.0886 51.2221C67.2262 52.5887 75.7563 46.2239 78.6291 42.8707V115.091C43.2462 101.653 48.8592 66.9126 56.0886 51.2221Z" fill="#E48080"/>
<path d="M73.1426 64.055V73.8023H63.4627V83.9848H73.1426V93.9063H83.7731V83.9848H93.7954V73.8023H83.7731V64.055H73.1426Z" fill="white"/>
</svg>
