<svg width="157" height="157" viewBox="0 0 157 157" fill="none" xmlns="http://www.w3.org/2000/svg">
<circle cx="78.5" cy="78.5" r="78.5" fill="#9CC5DE" fill-opacity="0.6"/>
<path d="M98.8117 95.4352L100.41 110.784C92.5751 115.311 72.2387 113.009 63.0499 111.292C63.7753 107.761 64.4282 101.013 63.5577 101.353C61.8892 102.006 53.329 101.895 51.2978 101.353C50.2096 101.063 52.386 84.4508 51.2978 84.0156C50.2096 83.5803 46.1472 80.4609 46.0021 79.9531C45.857 79.4453 53.184 70.7401 52.386 68.2011C51.588 65.6621 52.386 55.5363 57.3915 49.1946C62.6583 42.5219 89.1074 28.7264 105.486 51.9091C117.889 69.4646 106.574 89.2206 98.8117 95.4352Z" fill="#77A3BE"/>
<path d="M71.5353 59.7379C71.5353 57.0568 73.7089 54.8832 76.39 54.8832C78.4374 54.8832 80.1886 56.1488 80.9022 57.9417C81.6158 56.1488 83.3672 54.8832 85.4144 54.8832C88.0955 54.8832 90.2691 57.0568 90.2691 59.7379C90.2691 66.3786 80.9022 70.8428 80.9022 70.8428C80.9022 70.8428 71.5353 66.0564 71.5353 59.7379Z" fill="#E48080"/>
</svg>
