<svg width="157" height="157" viewBox="0 0 157 157" fill="none" xmlns="http://www.w3.org/2000/svg">
<circle cx="78.5" cy="78.5" r="78.5" fill="#9CC5DE" fill-opacity="0.6"/>
<path d="M105.039 111.828H84.9297V101.945L118.531 59.9219C120.68 59.9505 124.095 62.9297 123.344 65.4219C122.037 69.7531 120.977 72.4401 120.609 73.2422C119.57 78.0457 117.61 87.1927 116.469 92.8358C115.231 98.9546 108.333 102.146 105.039 102.976V111.828Z" fill="#FFDFD0"/>
<path d="M95.586 92.75C97.0469 86.5625 105.354 83.4115 109.25 82.6953C99.5391 83.3828 94.1251 89.5703 93.9532 91.8906C93.8157 93.7468 95.0704 93.7812 95.586 92.75Z" fill="#D9CDBC"/>
<path d="M117.07 67.1406C119.889 67.6219 120.708 70.8359 120.765 72.3828C120.995 72.7552 121.436 72.8812 121.367 70.4062C121.298 67.9312 118.474 67.1979 117.07 67.1406Z" fill="#EEDFC9"/>
<path d="M53.4107 112H73.52V102.117L39.9185 60.0938C37.7701 60.1224 34.3544 63.1016 35.106 65.5937C36.4123 69.925 37.4732 72.6119 37.8404 73.414C38.8797 78.2176 40.8397 87.3645 41.981 93.0077C43.2185 99.1264 50.1164 102.318 53.4107 103.148V112Z" fill="#FFDFD0"/>
<path d="M62.8639 92.9219C61.4029 86.7344 53.0957 83.5833 49.1998 82.8672C58.9108 83.5547 64.3248 89.7422 64.4967 92.0625C64.6342 93.9187 63.3795 93.9531 62.8639 92.9219Z" fill="#D9CDBC"/>
<path d="M41.3796 67.3125C38.5609 67.7937 37.7416 71.0078 37.6843 72.5547C37.4552 72.9271 37.014 73.0531 37.0828 70.5781C37.1515 68.1031 39.976 67.3698 41.3796 67.3125Z" fill="#EEDFC9"/>
<path d="M50.2969 60.9208C50.2969 52.6804 56.9773 46 65.2178 46C71.5104 46 76.8927 49.8897 79.0859 55.4003C81.2792 49.8897 86.6621 46 92.9541 46C101.195 46 107.875 52.6804 107.875 60.9208C107.875 81.3311 79.0859 95.0517 79.0859 95.0517C79.0859 95.0517 50.2969 80.3406 50.2969 60.9208Z" fill="#E48080"/>
</svg>
