<svg width="157" height="157" viewBox="0 0 157 157" fill="none" xmlns="http://www.w3.org/2000/svg">
<circle cx="78.5" cy="78.5" r="78.5" fill="#9CC5DE" fill-opacity="0.6"/>
<path d="M92.7463 54.0839C92.7463 51.8461 94.5604 50.0319 96.7983 50.0319C98.5072 50.0319 99.9688 51.0882 100.564 52.5847C101.16 51.0882 102.622 50.0319 104.331 50.0319C106.568 50.0319 108.383 51.8461 108.383 54.0839C108.383 59.6267 100.564 63.3528 100.564 63.3528C100.564 63.3528 92.7463 59.3577 92.7463 54.0839Z" fill="#E48080"/>
<path d="M50.6483 54.1847C50.6483 51.9469 52.4625 50.1327 54.7003 50.1327C56.4092 50.1327 57.8709 51.189 58.4665 52.6855C59.0621 51.189 60.5239 50.1327 62.2326 50.1327C64.4705 50.1327 66.2846 51.9469 66.2846 54.1847C66.2846 59.7275 58.4665 63.4535 58.4665 63.4535C58.4665 63.4535 50.6483 59.4585 50.6483 54.1847Z" fill="#E48080"/>
<ellipse cx="53.0737" cy="73.4004" rx="5.48006" ry="5.30038" fill="#E5E5E5"/>
<path d="M53.1634 79.4195C48.1026 79.4195 44 83.4954 44 88.5234C44 90.0898 44.2233 91.5605 44.6298 92.895H61.9189C62.184 91.6379 62.3268 90.1881 62.3268 88.5234C62.3268 83.4954 58.2242 79.4195 53.1634 79.4195Z" fill="#E5E5E5"/>
<ellipse cx="105.359" cy="74.4783" rx="5.48006" ry="5.30038" fill="#E5E5E5"/>
<path d="M105.448 80.4976C100.388 80.4976 96.285 84.5735 96.285 89.6014C96.285 91.1678 96.5082 92.6386 96.9148 93.9731H114.204C114.469 92.7159 114.612 91.2661 114.612 89.6014C114.612 84.5735 110.509 80.4976 105.448 80.4976Z" fill="#E5E5E5"/>
<circle cx="80.2044" cy="56.6906" r="10.6906" fill="#77A3BE"/>
<path d="M80.4741 68.4591C70.4518 68.4591 62.327 76.5838 62.327 86.6062C62.327 89.7285 62.7691 92.6602 63.5742 95.3204H97.8134C98.3385 92.8144 98.6212 89.9244 98.6212 86.6062C98.6212 76.5838 90.4965 68.4591 80.4741 68.4591Z" fill="#77A3BE"/>
<ellipse cx="58.3743" cy="82.9228" rx="6.82761" ry="6.73778" fill="#9CC5DE"/>
<path d="M58.5538 90.3793C52.203 90.3793 47.0547 95.5421 47.0547 101.911C47.0547 103.895 47.3348 105.758 47.845 107.448H69.5411C69.8738 105.856 70.053 104.019 70.053 101.911C70.053 95.5421 64.9046 90.3793 58.5538 90.3793Z" fill="#9CC5DE"/>
<ellipse cx="101.496" cy="82.9228" rx="6.82761" ry="6.73778" fill="#9CC5DE"/>
<path d="M101.676 90.3793C95.3248 90.3793 90.1765 95.5421 90.1765 101.911C90.1765 103.895 90.4566 105.758 90.9667 107.448H112.663C112.996 105.856 113.175 104.019 113.175 101.911C113.175 95.5421 108.026 90.3793 101.676 90.3793Z" fill="#9CC5DE"/>
<ellipse cx="80.2937" cy="86.5166" rx="6.82761" ry="6.73778" fill="#E5E5E5"/>
<path d="M80.4735 93.973C74.1227 93.973 68.9743 99.1359 68.9743 105.505C68.9743 107.489 69.2545 109.352 69.7646 111.042H91.4607C91.7934 109.45 91.9726 107.613 91.9726 105.505C91.9726 99.1359 86.8243 93.973 80.4735 93.973Z" fill="#E5E5E5"/>
</svg>
