<svg width="157" height="157" viewBox="0 0 157 157" fill="none" xmlns="http://www.w3.org/2000/svg">
<circle cx="78.5" cy="78.5" r="78.5" fill="#9CC5DE" fill-opacity="0.6"/>
<rect x="59.7567" y="58.0116" width="31.2742" height="10.9807" rx="4.1699" fill="#C4C4C4"/>
<rect x="51" y="64.2668" width="48.7878" height="48.9268" rx="4.1699" fill="#E48080"/>
<path d="M71.2958 75.5255V82.7874H64.0657V90.3734H71.2958V97.765H79.2361V90.3734H86.7221V82.7874H79.2361V75.5255H71.2958Z" fill="white"/>
<rect x="54.1969" y="43" width="42.255" height="18.0696" rx="4.1699" fill="#ABABAB"/>
<path d="M92.183 108.411C89.0903 104.998 89.35 99.7235 92.7632 96.6308L93.225 96.2124L99.8668 90.1941L106.509 84.1758L106.97 83.7574C110.383 80.6646 115.658 80.9244 118.75 84.3375L119.122 84.7472C122.214 88.1604 121.954 93.4344 118.541 96.5272L118.08 96.9456L111.438 102.964L104.796 108.982L104.334 109.401C100.921 112.493 95.647 112.234 92.5542 108.82L92.183 108.411Z" fill="white"/>
<path d="M111.534 102.849L99.8986 90.2447L107.044 83.6892C110.447 80.5664 115.741 80.805 118.85 84.2214L119.286 84.7002C122.417 88.1407 122.127 93.4776 118.643 96.5597L111.534 102.849Z" fill="#E48080"/>
</svg>
