<svg width="22" height="22" viewBox="0 0 22 22" fill="none" xmlns="http://www.w3.org/2000/svg">
<path d="M11.1708 5.20321e-06C5.19671 0.00127283 0.354763 4.84529 0.356031 10.8194C0.356454 12.888 0.950082 14.9131 2.06644 16.6547L0.383496 21.0212C0.293875 21.2534 0.409483 21.5143 0.641711 21.604C0.693642 21.624 0.748784 21.6343 0.804432 21.6342C0.856067 21.6344 0.907321 21.6256 0.955871 21.608L5.463 19.999C10.534 23.1573 17.2052 21.6067 20.3634 16.5356C23.5217 11.4646 21.9711 4.79344 16.9001 1.6352C15.1811 0.564563 13.196 -0.00198074 11.1708 5.20321e-06Z" fill="#9C7EB3"/>
<path d="M15.3977 13.5957C15.3977 13.5957 14.2935 13.0548 13.6021 12.6943C12.8196 12.2914 11.9002 13.0458 11.4675 13.4749C10.7941 13.2163 10.1791 12.8258 9.65836 12.3265C9.15896 11.8059 8.76853 11.1908 8.50994 10.5174C8.93903 10.0838 9.6917 9.16522 9.29058 8.3828C8.93451 7.69051 8.38917 6.58717 8.38917 6.58628C8.31265 6.43442 8.1572 6.33855 7.98712 6.33838H7.08572C5.77297 6.56511 4.81849 7.71054 4.83218 9.04264C4.83218 10.4579 6.52593 13.1766 7.66806 14.3196C8.81019 15.4625 11.5289 17.1554 12.945 17.1554C14.2771 17.1691 15.4225 16.2146 15.6492 14.9019V14.0005C15.6494 13.8286 15.5518 13.6716 15.3977 13.5957Z" fill="#FAFAFA"/>
<path d="M11.3642 4.56462C11.4715 4.479 11.5359 4.479 11.8791 4.479C12.0507 4.479 12.3082 4.50041 12.4584 4.52182C13.1663 4.60744 13.6169 4.71446 14.239 5.01409C14.8612 5.31375 15.2474 5.59197 15.7837 6.08426C16.2771 6.55515 16.5346 6.91901 16.8349 7.49689C17.2426 8.28881 17.4571 9.20917 17.5 10.2365C17.5215 10.579 17.5 10.6646 17.4142 10.7716C17.264 10.9642 16.9208 10.9428 16.792 10.7074C16.7491 10.6432 16.7491 10.579 16.7277 10.3007C16.7062 9.87268 16.6848 9.59444 16.6204 9.25199C16.3844 7.94638 15.7408 6.89762 14.711 6.14849C13.8529 5.52779 13.102 5.29236 11.9435 5.20675C11.5359 5.20675 11.4715 5.20675 11.3857 5.12114C11.2141 5.01409 11.2141 4.71443 11.3642 4.56462Z" fill="white"/>
<path d="M13.503 7.23914C13.0948 7.00528 12.4716 6.81393 11.9129 6.7714C11.7195 6.75013 11.5906 6.70763 11.5261 6.62258C11.3972 6.51628 11.3972 6.32492 11.4831 6.19737C11.5906 6.02729 11.7625 6.00602 12.2567 6.09106C13.503 6.26115 14.47 6.8352 15.1146 7.7494C15.4799 8.25965 15.6948 8.87621 15.7593 9.51404C15.7808 9.7479 15.7808 10.1731 15.7593 10.2582C15.7378 10.3219 15.6518 10.4283 15.5659 10.4495C15.4799 10.4921 15.308 10.4921 15.2221 10.4283C15.0717 10.3432 15.0072 10.2369 15.0072 9.89674C15.0072 9.38649 14.8782 8.8337 14.6204 8.40849C14.3625 7.91948 13.9758 7.51554 13.503 7.23914Z" fill="white"/>
<path d="M14.043 10.0615C13.9148 10.1677 13.7014 10.1677 13.5732 10.0615C13.4665 9.99783 13.4451 9.91289 13.4238 9.70053C13.4024 9.42447 13.3384 9.23334 13.2743 9.06346C13.1035 8.68121 12.7833 8.49012 12.2495 8.42639C11.9933 8.40515 11.9292 8.36269 11.8438 8.27775C11.6944 8.10787 11.7584 7.83181 11.9506 7.72562C12.036 7.68314 12.0573 7.68314 12.2281 7.70438C12.3349 7.70438 12.4844 7.72562 12.5698 7.74686C12.9754 7.83181 13.2744 7.98045 13.5519 8.21405C13.8935 8.53257 14.0857 8.89358 14.1498 9.44571C14.1924 9.80671 14.1711 9.95535 14.043 10.0615Z" fill="white"/>
</svg>
