<svg width="38" height="38" viewBox="0 0 38 38" fill="none" xmlns="http://www.w3.org/2000/svg">
<path d="M7.076 14.475C6.93836 14.0175 7.01865 13.8269 7.076 13.7888C7.59214 13.217 11.1765 13.5601 11.664 13.9603C12.1515 14.3606 14.5888 19.5639 15.3917 19.3638C16.1946 19.1636 15.9365 17.0194 15.8792 15.6471C15.8218 14.2748 15.1198 14.3426 14.7896 14.1605C14.5273 14.0158 14.5273 13.5601 15.0476 13.3028C15.6388 13.0104 19.693 12.7024 20.2951 13.5601C20.8973 14.4178 20.0657 19.3638 21.0407 19.3638C22.0156 19.3638 24.281 14.475 24.5104 13.9603C24.6939 13.5487 25.1985 13.522 25.4279 13.5601C26.4794 13.5696 28.7141 13.5944 29.2417 13.6173C29.7693 13.6401 29.9204 13.8365 29.9299 13.9318C30.4747 15.1039 26.9764 19.0493 26.4602 19.7926C26.0473 20.3873 26.2117 20.7837 26.3455 20.9076C29.2991 23.6808 30.2167 24.71 29.9586 25.682C29.7005 26.6541 27.4639 26.2824 25.6287 26.2824C23.7935 26.2824 22.1877 23.2519 21.3848 23.1661C20.5819 23.0804 20.5819 24.7386 20.4672 25.4533C20.3754 26.0251 19.9128 26.2443 19.693 26.2824C11.2912 27.1973 7.24805 15.0467 7.076 14.475Z" fill="#333333"/>
<circle cx="19" cy="19" r="18.5" stroke="#333333"/>
</svg>
