<svg width="23" height="22" viewBox="0 0 23 22" fill="none" xmlns="http://www.w3.org/2000/svg">
<path d="M11.4661 5.20321e-06C5.492 0.00127283 0.650052 4.84529 0.651319 10.8194C0.651742 12.888 1.24537 14.9131 2.36173 16.6547L0.678784 21.0212C0.589163 21.2534 0.704771 21.5143 0.937 21.604C0.98893 21.624 1.04407 21.6343 1.09972 21.6342C1.15135 21.6344 1.20261 21.6256 1.25116 21.608L5.75828 19.999C10.8293 23.1573 17.5005 21.6067 20.6587 16.5356C23.8169 11.4646 22.2664 4.79344 17.1953 1.6352C15.4764 0.564563 13.4913 -0.00198074 11.4661 5.20321e-06Z" fill="#7CC57F"/>
<path d="M16.623 12.6655C16.623 12.6655 15.5188 12.1247 14.8274 11.7641C14.045 11.3612 13.1255 12.1157 12.6929 12.5448C12.0195 12.2861 11.4044 11.8957 10.8837 11.3963C10.3843 10.8757 9.99387 10.2607 9.73528 9.58718C10.1644 9.15361 10.917 8.23505 10.5159 7.45263C10.1598 6.76034 9.61452 5.657 9.61452 5.65611C9.53799 5.50425 9.38254 5.40837 9.21247 5.4082H8.31106C6.99831 5.63494 6.04383 6.78036 6.05752 8.11247C6.05752 9.52769 7.75128 12.2464 8.89341 13.3894C10.0355 14.5324 12.7542 16.2253 14.1703 16.2253C15.5024 16.239 16.6478 15.2844 16.8746 13.9717V13.0703C16.8747 12.8984 16.7772 12.7415 16.623 12.6655Z" fill="#FAFAFA"/>
</svg>
