<svg width="38" height="38" viewBox="0 0 38 38" fill="none" xmlns="http://www.w3.org/2000/svg">
<path fill-rule="evenodd" clip-rule="evenodd" d="M11 11C8.79086 11 7 12.7909 7 15V23C7 25.2091 8.79086 27 11 27H26C28.2091 27 30 25.2091 30 23V15C30 12.7909 28.2091 11 26 11H11ZM23.5 19.866C24.1667 19.4811 24.1667 18.5189 23.5 18.134L17.5 14.6699C16.8333 14.285 16 14.7661 16 15.5359V22.4641C16 23.2339 16.8333 23.715 17.5 23.3301L23.5 19.866Z" fill="#333333"/>
<circle cx="19" cy="19" r="18.5" stroke="#333333"/>
</svg>
